<?xml version="1.0" encoding="UTF-8" standalone="no"?>
<!-- Created with PhysiCell (http://PhysiCell.MathCancer.org/) -->
<svg 
 xmlns:dc="http://purl.org/dc/elements/1.1/" 
 xmlns:cc="http://creativecommons.org/ns#" 
 xmlns:rdf="http://www.w3.org/1999/02/22-rdf-syntax-ns#" 
 xmlns:svg="http://www.w3.org/2000/svg" 
 xmlns="http://www.w3.org/2000/svg" 
 version="1.1" 
 width="500" 
 height="535" 
 id="svg2">
  <rect x="0" y="0" width="500" height="535" stroke-width="1" stroke="white" fill="white"/>
  <text x="6.25" y="15"
   font-family="Arial" font-size="12.5" fill="black" >
   Current time: 2 days, 10 hours, and 0.00 minutes, z = 0.00 &#956;m
  </text>
  <text x="6.25" y="28.75"
   font-family="Arial" font-size="11.875" fill="black" >
   207 agents
  </text>
 <g id="tissue" 
    transform="translate(0,535) scale(1,-1)">
  <g id="ECM">
  </g>
  <g id="cells">
   <g id="cell0">
  <circle cx="111.327" cy="187.332" r="8.41271" stroke-width="0.5" stroke="rgb(0,0,0)" fill="lightblue"/>
  <circle cx="111.327" cy="187.332" r="5.05167" stroke-width="0.5" stroke="rgb(0,0,0)" fill="blue"/>
   </g>
   <g id="cell212">
  <circle cx="290.277" cy="158.257" r="8.41271" stroke-width="0.5" stroke="rgb(0,0,0)" fill="lightblue"/>
  <circle cx="290.277" cy="158.257" r="5.05167" stroke-width="0.5" stroke="rgb(0,0,0)" fill="blue"/>
   </g>
   <g id="cell300">
  <circle cx="364.395" cy="179.433" r="8.41271" stroke-width="0.5" stroke="rgb(0,0,0)" fill="lightblue"/>
  <circle cx="364.395" cy="179.433" r="5.05167" stroke-width="0.5" stroke="rgb(0,0,0)" fill="blue"/>
   </g>
   <g id="cell292">
  <circle cx="349.922" cy="287.016" r="8.41271" stroke-width="0.5" stroke="rgb(0,0,0)" fill="lightblue"/>
  <circle cx="349.922" cy="287.016" r="5.05167" stroke-width="0.5" stroke="rgb(0,0,0)" fill="blue"/>
   </g>
   <g id="cell4">
  <circle cx="112.473" cy="253.239" r="8.41271" stroke-width="0.5" stroke="rgb(0,0,0)" fill="lightblue"/>
  <circle cx="112.473" cy="253.239" r="5.05167" stroke-width="0.5" stroke="rgb(0,0,0)" fill="blue"/>
   </g>
   <g id="cell227">
  <circle cx="289.379" cy="398.033" r="8.41271" stroke-width="0.5" stroke="rgb(0,0,0)" fill="lightblue"/>
  <circle cx="289.379" cy="398.033" r="5.05167" stroke-width="0.5" stroke="rgb(0,0,0)" fill="blue"/>
   </g>
   <g id="cell216">
  <circle cx="290.354" cy="224.046" r="8.41271" stroke-width="0.5" stroke="rgb(0,0,0)" fill="lightblue"/>
  <circle cx="290.354" cy="224.046" r="5.05167" stroke-width="0.5" stroke="rgb(0,0,0)" fill="blue"/>
   </g>
   <g id="cell290">
  <circle cx="349.213" cy="254.357" r="8.41271" stroke-width="0.5" stroke="rgb(0,0,0)" fill="lightblue"/>
  <circle cx="349.213" cy="254.357" r="5.05167" stroke-width="0.5" stroke="rgb(0,0,0)" fill="blue"/>
   </g>
   <g id="cell8">
  <circle cx="110.836" cy="318.671" r="8.41271" stroke-width="0.5" stroke="rgb(0,0,0)" fill="lightblue"/>
  <circle cx="110.836" cy="318.671" r="5.05167" stroke-width="0.5" stroke="rgb(0,0,0)" fill="blue"/>
   </g>
   <g id="cell9">
  <circle cx="125.567" cy="162.189" r="3.55859" stroke-width="0.5" stroke="rgb(0,0,0)" fill="pink"/>
  <circle cx="125.567" cy="162.189" r="3.03601" stroke-width="0.5" stroke="rgb(0,0,0)" fill="purple"/>
   </g>
   <g id="cell10">
  <circle cx="125.67" cy="178.823" r="8.41271" stroke-width="0.5" stroke="rgb(0,0,0)" fill="lightblue"/>
  <circle cx="125.67" cy="178.823" r="5.05167" stroke-width="0.5" stroke="rgb(0,0,0)" fill="blue"/>
   </g>
   <g id="cell11">
  <circle cx="125.861" cy="195.499" r="8.41271" stroke-width="0.5" stroke="rgb(0,0,0)" fill="lightblue"/>
  <circle cx="125.861" cy="195.499" r="5.05167" stroke-width="0.5" stroke="rgb(0,0,0)" fill="blue"/>
   </g>
   <g id="cell12">
  <circle cx="125.649" cy="212.18" r="8.41271" stroke-width="0.5" stroke="rgb(0,0,0)" fill="lightblue"/>
  <circle cx="125.649" cy="212.18" r="5.05167" stroke-width="0.5" stroke="rgb(0,0,0)" fill="blue"/>
   </g>
   <g id="cell13">
  <circle cx="126.534" cy="228.837" r="8.41271" stroke-width="0.5" stroke="rgb(0,0,0)" fill="lightblue"/>
  <circle cx="126.534" cy="228.837" r="5.05167" stroke-width="0.5" stroke="rgb(0,0,0)" fill="blue"/>
   </g>
   <g id="cell14">
  <circle cx="127.239" cy="245.499" r="8.41271" stroke-width="0.5" stroke="rgb(0,0,0)" fill="lightblue"/>
  <circle cx="127.239" cy="245.499" r="5.05167" stroke-width="0.5" stroke="rgb(0,0,0)" fill="blue"/>
   </g>
   <g id="cell15">
  <circle cx="126.555" cy="262.157" r="8.41271" stroke-width="0.5" stroke="rgb(0,0,0)" fill="lightblue"/>
  <circle cx="126.555" cy="262.157" r="5.05167" stroke-width="0.5" stroke="rgb(0,0,0)" fill="blue"/>
   </g>
   <g id="cell16">
  <circle cx="126.667" cy="278.826" r="8.41271" stroke-width="0.5" stroke="rgb(0,0,0)" fill="lightblue"/>
  <circle cx="126.667" cy="278.826" r="5.05167" stroke-width="0.5" stroke="rgb(0,0,0)" fill="blue"/>
   </g>
   <g id="cell275">
  <circle cx="335.597" cy="278.491" r="8.41271" stroke-width="0.5" stroke="rgb(0,0,0)" fill="lightblue"/>
  <circle cx="335.597" cy="278.491" r="5.05167" stroke-width="0.5" stroke="rgb(0,0,0)" fill="blue"/>
   </g>
   <g id="cell18">
  <circle cx="125.655" cy="311.037" r="8.41271" stroke-width="0.5" stroke="rgb(0,0,0)" fill="lightblue"/>
  <circle cx="125.655" cy="311.037" r="5.05167" stroke-width="0.5" stroke="rgb(0,0,0)" fill="blue"/>
   </g>
   <g id="cell19">
  <circle cx="124.856" cy="327.687" r="8.41271" stroke-width="0.5" stroke="rgb(0,0,0)" fill="lightblue"/>
  <circle cx="124.856" cy="327.687" r="5.05167" stroke-width="0.5" stroke="rgb(0,0,0)" fill="blue"/>
   </g>
   <g id="cell20">
  <circle cx="125.633" cy="344.336" r="8.41271" stroke-width="0.5" stroke="rgb(0,0,0)" fill="lightblue"/>
  <circle cx="125.633" cy="344.336" r="5.05167" stroke-width="0.5" stroke="rgb(0,0,0)" fill="blue"/>
   </g>
   <g id="cell21">
  <circle cx="141.29" cy="141.213" r="8.41271" stroke-width="0.5" stroke="rgb(0,0,0)" fill="lightblue"/>
  <circle cx="141.29" cy="141.213" r="5.05167" stroke-width="0.5" stroke="rgb(0,0,0)" fill="blue"/>
   </g>
   <g id="cell251">
  <circle cx="319.054" cy="175.322" r="1.94916" stroke-width="0.5" stroke="rgb(0,0,0)" fill="pink"/>
  <circle cx="319.054" cy="175.322" r="1.88892" stroke-width="0.5" stroke="rgb(0,0,0)" fill="purple"/>
   </g>
   <g id="cell23">
  <circle cx="141.9" cy="174.913" r="8.41271" stroke-width="0.5" stroke="rgb(0,0,0)" fill="lightblue"/>
  <circle cx="141.9" cy="174.913" r="5.05167" stroke-width="0.5" stroke="rgb(0,0,0)" fill="blue"/>
   </g>
   <g id="cell24">
  <circle cx="142.048" cy="191.584" r="3.77172" stroke-width="0.5" stroke="rgb(0,0,0)" fill="pink"/>
  <circle cx="142.048" cy="191.584" r="3.15533" stroke-width="0.5" stroke="rgb(0,0,0)" fill="purple"/>
   </g>
   <g id="cell25">
  <circle cx="141.835" cy="208.216" r="8.41271" stroke-width="0.5" stroke="rgb(0,0,0)" fill="lightblue"/>
  <circle cx="141.835" cy="208.216" r="5.05167" stroke-width="0.5" stroke="rgb(0,0,0)" fill="blue"/>
   </g>
   <g id="cell326">
  <circle cx="393.454" cy="245.827" r="8.41271" stroke-width="0.5" stroke="rgb(0,0,0)" fill="lightblue"/>
  <circle cx="393.454" cy="245.827" r="5.05167" stroke-width="0.5" stroke="rgb(0,0,0)" fill="blue"/>
   </g>
   <g id="cell279">
  <circle cx="335.737" cy="345.029" r="2.46463" stroke-width="0.5" stroke="rgb(0,0,0)" fill="pink"/>
  <circle cx="335.737" cy="345.029" r="2.30782" stroke-width="0.5" stroke="rgb(0,0,0)" fill="purple"/>
   </g>
   <g id="cell28">
  <circle cx="141.328" cy="254.515" r="2.58536" stroke-width="0.5" stroke="rgb(0,0,0)" fill="pink"/>
  <circle cx="141.328" cy="254.515" r="2.39864" stroke-width="0.5" stroke="rgb(0,0,0)" fill="purple"/>
   </g>
   <g id="cell269">
  <circle cx="334.626" cy="181.312" r="8.41271" stroke-width="0.5" stroke="rgb(0,0,0)" fill="lightblue"/>
  <circle cx="334.626" cy="181.312" r="5.05167" stroke-width="0.5" stroke="rgb(0,0,0)" fill="blue"/>
   </g>
   <g id="cell30">
  <circle cx="140.168" cy="288.602" r="8.41271" stroke-width="0.5" stroke="rgb(0,0,0)" fill="lightblue"/>
  <circle cx="140.168" cy="288.602" r="5.05167" stroke-width="0.5" stroke="rgb(0,0,0)" fill="blue"/>
   </g>
   <g id="cell224">
  <circle cx="290.114" cy="349.219" r="8.41271" stroke-width="0.5" stroke="rgb(0,0,0)" fill="lightblue"/>
  <circle cx="290.114" cy="349.219" r="5.05167" stroke-width="0.5" stroke="rgb(0,0,0)" fill="blue"/>
   </g>
   <g id="cell317">
  <circle cx="379.03" cy="254.136" r="8.41271" stroke-width="0.5" stroke="rgb(0,0,0)" fill="lightblue"/>
  <circle cx="379.03" cy="254.136" r="5.05167" stroke-width="0.5" stroke="rgb(0,0,0)" fill="blue"/>
   </g>
   <g id="cell33">
  <circle cx="141.092" cy="331.453" r="8.41271" stroke-width="0.5" stroke="rgb(0,0,0)" fill="lightblue"/>
  <circle cx="141.092" cy="331.453" r="5.05167" stroke-width="0.5" stroke="rgb(0,0,0)" fill="blue"/>
   </g>
   <g id="cell239">
  <circle cx="305.25" cy="279.018" r="8.41271" stroke-width="0.5" stroke="rgb(0,0,0)" fill="lightblue"/>
  <circle cx="305.25" cy="279.018" r="5.05167" stroke-width="0.5" stroke="rgb(0,0,0)" fill="blue"/>
   </g>
   <g id="cell35">
  <circle cx="155.994" cy="131.392" r="8.41271" stroke-width="0.5" stroke="rgb(0,0,0)" fill="lightblue"/>
  <circle cx="155.994" cy="131.392" r="5.05167" stroke-width="0.5" stroke="rgb(0,0,0)" fill="blue"/>
   </g>
   <g id="cell36">
  <circle cx="156.48" cy="148.037" r="8.41271" stroke-width="0.5" stroke="rgb(0,0,0)" fill="lightblue"/>
  <circle cx="156.48" cy="148.037" r="5.05167" stroke-width="0.5" stroke="rgb(0,0,0)" fill="blue"/>
   </g>
   <g id="cell37">
  <circle cx="156.855" cy="164.692" r="8.41271" stroke-width="0.5" stroke="rgb(0,0,0)" fill="lightblue"/>
  <circle cx="156.855" cy="164.692" r="5.05167" stroke-width="0.5" stroke="rgb(0,0,0)" fill="blue"/>
   </g>
   <g id="cell38">
  <circle cx="157.289" cy="181.342" r="8.41271" stroke-width="0.5" stroke="rgb(0,0,0)" fill="lightblue"/>
  <circle cx="157.289" cy="181.342" r="5.05167" stroke-width="0.5" stroke="rgb(0,0,0)" fill="blue"/>
   </g>
   <g id="cell39">
  <circle cx="157.597" cy="197.609" r="1.42376" stroke-width="0.5" stroke="rgb(0,0,0)" fill="pink"/>
  <circle cx="157.597" cy="197.609" r="1.41173" stroke-width="0.5" stroke="rgb(0,0,0)" fill="purple"/>
   </g>
   <g id="cell40">
  <circle cx="157.53" cy="213.803" r="8.41271" stroke-width="0.5" stroke="rgb(0,0,0)" fill="lightblue"/>
  <circle cx="157.53" cy="213.803" r="5.05167" stroke-width="0.5" stroke="rgb(0,0,0)" fill="blue"/>
   </g>
   <g id="cell41">
  <circle cx="156.902" cy="230.438" r="8.41271" stroke-width="0.5" stroke="rgb(0,0,0)" fill="lightblue"/>
  <circle cx="156.902" cy="230.438" r="5.05167" stroke-width="0.5" stroke="rgb(0,0,0)" fill="blue"/>
   </g>
   <g id="cell42">
  <circle cx="156.198" cy="247.071" r="8.41271" stroke-width="0.5" stroke="rgb(0,0,0)" fill="lightblue"/>
  <circle cx="156.198" cy="247.071" r="5.05167" stroke-width="0.5" stroke="rgb(0,0,0)" fill="blue"/>
   </g>
   <g id="cell43">
  <circle cx="155.435" cy="263.704" r="8.41271" stroke-width="0.5" stroke="rgb(0,0,0)" fill="lightblue"/>
  <circle cx="155.435" cy="263.704" r="5.05167" stroke-width="0.5" stroke="rgb(0,0,0)" fill="blue"/>
   </g>
   <g id="cell44">
  <circle cx="154.653" cy="280.352" r="8.41271" stroke-width="0.5" stroke="rgb(0,0,0)" fill="lightblue"/>
  <circle cx="154.653" cy="280.352" r="5.05167" stroke-width="0.5" stroke="rgb(0,0,0)" fill="blue"/>
   </g>
   <g id="cell215">
  <circle cx="290.231" cy="207.374" r="8.41271" stroke-width="0.5" stroke="rgb(0,0,0)" fill="lightblue"/>
  <circle cx="290.231" cy="207.374" r="5.05167" stroke-width="0.5" stroke="rgb(0,0,0)" fill="blue"/>
   </g>
   <g id="cell327">
  <circle cx="393.438" cy="262.51" r="8.41271" stroke-width="0.5" stroke="rgb(0,0,0)" fill="lightblue"/>
  <circle cx="393.438" cy="262.51" r="5.05167" stroke-width="0.5" stroke="rgb(0,0,0)" fill="blue"/>
   </g>
   <g id="cell253">
  <circle cx="319.437" cy="208.005" r="8.41271" stroke-width="0.5" stroke="rgb(0,0,0)" fill="lightblue"/>
  <circle cx="319.437" cy="208.005" r="5.05167" stroke-width="0.5" stroke="rgb(0,0,0)" fill="blue"/>
   </g>
   <g id="cell48">
  <circle cx="156.383" cy="338.093" r="8.41271" stroke-width="0.5" stroke="rgb(0,0,0)" fill="lightblue"/>
  <circle cx="156.383" cy="338.093" r="5.05167" stroke-width="0.5" stroke="rgb(0,0,0)" fill="blue"/>
   </g>
   <g id="cell49">
  <circle cx="157.09" cy="354.747" r="8.41271" stroke-width="0.5" stroke="rgb(0,0,0)" fill="lightblue"/>
  <circle cx="157.09" cy="354.747" r="5.05167" stroke-width="0.5" stroke="rgb(0,0,0)" fill="blue"/>
   </g>
   <g id="cell50">
  <circle cx="156.858" cy="371.415" r="8.41271" stroke-width="0.5" stroke="rgb(0,0,0)" fill="lightblue"/>
  <circle cx="156.858" cy="371.415" r="5.05167" stroke-width="0.5" stroke="rgb(0,0,0)" fill="blue"/>
   </g>
   <g id="cell280">
  <circle cx="330.141" cy="360.692" r="8.41271" stroke-width="0.5" stroke="rgb(0,0,0)" fill="lightblue"/>
  <circle cx="330.141" cy="360.692" r="5.05167" stroke-width="0.5" stroke="rgb(0,0,0)" fill="blue"/>
   </g>
   <g id="cell52">
  <circle cx="170.219" cy="122.669" r="8.41271" stroke-width="0.5" stroke="rgb(0,0,0)" fill="lightblue"/>
  <circle cx="170.219" cy="122.669" r="5.05167" stroke-width="0.5" stroke="rgb(0,0,0)" fill="blue"/>
   </g>
   <g id="cell53">
  <circle cx="170.686" cy="139.327" r="8.41271" stroke-width="0.5" stroke="rgb(0,0,0)" fill="lightblue"/>
  <circle cx="170.686" cy="139.327" r="5.05167" stroke-width="0.5" stroke="rgb(0,0,0)" fill="blue"/>
   </g>
   <g id="cell54">
  <circle cx="171.109" cy="156.001" r="8.41271" stroke-width="0.5" stroke="rgb(0,0,0)" fill="lightblue"/>
  <circle cx="171.109" cy="156.001" r="5.05167" stroke-width="0.5" stroke="rgb(0,0,0)" fill="blue"/>
   </g>
   <g id="cell55">
  <circle cx="171.521" cy="172.648" r="8.41271" stroke-width="0.5" stroke="rgb(0,0,0)" fill="lightblue"/>
  <circle cx="171.521" cy="172.648" r="5.05167" stroke-width="0.5" stroke="rgb(0,0,0)" fill="blue"/>
   </g>
   <g id="cell56">
  <circle cx="171.965" cy="189.276" r="8.41271" stroke-width="0.5" stroke="rgb(0,0,0)" fill="lightblue"/>
  <circle cx="171.965" cy="189.276" r="5.05167" stroke-width="0.5" stroke="rgb(0,0,0)" fill="blue"/>
   </g>
   <g id="cell57">
  <circle cx="172.23" cy="205.958" r="8.41271" stroke-width="0.5" stroke="rgb(0,0,0)" fill="lightblue"/>
  <circle cx="172.23" cy="205.958" r="5.05167" stroke-width="0.5" stroke="rgb(0,0,0)" fill="blue"/>
   </g>
   <g id="cell58">
  <circle cx="171.652" cy="222.657" r="8.41271" stroke-width="0.5" stroke="rgb(0,0,0)" fill="lightblue"/>
  <circle cx="171.652" cy="222.657" r="5.05167" stroke-width="0.5" stroke="rgb(0,0,0)" fill="blue"/>
   </g>
   <g id="cell59">
  <circle cx="170.978" cy="239.344" r="8.41271" stroke-width="0.5" stroke="rgb(0,0,0)" fill="lightblue"/>
  <circle cx="170.978" cy="239.344" r="5.05167" stroke-width="0.5" stroke="rgb(0,0,0)" fill="blue"/>
   </g>
   <g id="cell60">
  <circle cx="170.256" cy="256.014" r="8.41271" stroke-width="0.5" stroke="rgb(0,0,0)" fill="lightblue"/>
  <circle cx="170.256" cy="256.014" r="5.05167" stroke-width="0.5" stroke="rgb(0,0,0)" fill="blue"/>
   </g>
   <g id="cell288">
  <circle cx="349.967" cy="221.087" r="8.41271" stroke-width="0.5" stroke="rgb(0,0,0)" fill="lightblue"/>
  <circle cx="349.967" cy="221.087" r="5.05167" stroke-width="0.5" stroke="rgb(0,0,0)" fill="blue"/>
   </g>
   <g id="cell62">
  <circle cx="170.957" cy="283.603" r="3.55859" stroke-width="0.5" stroke="rgb(0,0,0)" fill="pink"/>
  <circle cx="170.957" cy="283.603" r="3.03601" stroke-width="0.5" stroke="rgb(0,0,0)" fill="purple"/>
   </g>
   <g id="cell63">
  <circle cx="170.812" cy="300.243" r="8.41271" stroke-width="0.5" stroke="rgb(0,0,0)" fill="lightblue"/>
  <circle cx="170.812" cy="300.243" r="5.05167" stroke-width="0.5" stroke="rgb(0,0,0)" fill="blue"/>
   </g>
   <g id="cell64">
  <circle cx="171.505" cy="316.903" r="8.41271" stroke-width="0.5" stroke="rgb(0,0,0)" fill="lightblue"/>
  <circle cx="171.505" cy="316.903" r="5.05167" stroke-width="0.5" stroke="rgb(0,0,0)" fill="blue"/>
   </g>
   <g id="cell241">
  <circle cx="303.945" cy="312.391" r="4.6647" stroke-width="0.5" stroke="rgb(0,0,0)" fill="pink"/>
  <circle cx="303.945" cy="312.391" r="3.5927" stroke-width="0.5" stroke="rgb(0,0,0)" fill="purple"/>
   </g>
   <g id="cell274">
  <circle cx="334.318" cy="261.882" r="8.41271" stroke-width="0.5" stroke="rgb(0,0,0)" fill="lightblue"/>
  <circle cx="334.318" cy="261.882" r="5.05167" stroke-width="0.5" stroke="rgb(0,0,0)" fill="blue"/>
   </g>
   <g id="cell320">
  <circle cx="379.372" cy="303.875" r="8.41271" stroke-width="0.5" stroke="rgb(0,0,0)" fill="lightblue"/>
  <circle cx="379.372" cy="303.875" r="5.05167" stroke-width="0.5" stroke="rgb(0,0,0)" fill="blue"/>
   </g>
   <g id="cell258">
  <circle cx="320.548" cy="285.634" r="8.41271" stroke-width="0.5" stroke="rgb(0,0,0)" fill="lightblue"/>
  <circle cx="320.548" cy="285.634" r="5.05167" stroke-width="0.5" stroke="rgb(0,0,0)" fill="blue"/>
   </g>
   <g id="cell209">
  <circle cx="290.896" cy="108.281" r="8.41271" stroke-width="0.5" stroke="rgb(0,0,0)" fill="lightblue"/>
  <circle cx="290.896" cy="108.281" r="5.05167" stroke-width="0.5" stroke="rgb(0,0,0)" fill="blue"/>
   </g>
   <g id="cell70">
  <circle cx="186.718" cy="125.116" r="8.41271" stroke-width="0.5" stroke="rgb(0,0,0)" fill="lightblue"/>
  <circle cx="186.718" cy="125.116" r="5.05167" stroke-width="0.5" stroke="rgb(0,0,0)" fill="blue"/>
   </g>
   <g id="cell321">
  <circle cx="379.29" cy="320.499" r="8.41271" stroke-width="0.5" stroke="rgb(0,0,0)" fill="lightblue"/>
  <circle cx="379.29" cy="320.499" r="5.05167" stroke-width="0.5" stroke="rgb(0,0,0)" fill="blue"/>
   </g>
   <g id="cell72">
  <circle cx="185.33" cy="147.328" r="8.41271" stroke-width="0.5" stroke="rgb(0,0,0)" fill="lightblue"/>
  <circle cx="185.33" cy="147.328" r="5.05167" stroke-width="0.5" stroke="rgb(0,0,0)" fill="blue"/>
   </g>
   <g id="cell73">
  <circle cx="185.755" cy="164.008" r="8.41271" stroke-width="0.5" stroke="rgb(0,0,0)" fill="lightblue"/>
  <circle cx="185.755" cy="164.008" r="5.05167" stroke-width="0.5" stroke="rgb(0,0,0)" fill="blue"/>
   </g>
   <g id="cell74">
  <circle cx="187.164" cy="180.654" r="8.41271" stroke-width="0.5" stroke="rgb(0,0,0)" fill="lightblue"/>
  <circle cx="187.164" cy="180.654" r="5.05167" stroke-width="0.5" stroke="rgb(0,0,0)" fill="blue"/>
   </g>
   <g id="cell75">
  <circle cx="186.524" cy="197.342" r="8.41271" stroke-width="0.5" stroke="rgb(0,0,0)" fill="lightblue"/>
  <circle cx="186.524" cy="197.342" r="5.05167" stroke-width="0.5" stroke="rgb(0,0,0)" fill="blue"/>
   </g>
   <g id="cell232">
  <circle cx="304.668" cy="166.792" r="8.41271" stroke-width="0.5" stroke="rgb(0,0,0)" fill="lightblue"/>
  <circle cx="304.668" cy="166.792" r="5.05167" stroke-width="0.5" stroke="rgb(0,0,0)" fill="blue"/>
   </g>
   <g id="cell277">
  <circle cx="335.708" cy="312.141" r="8.41271" stroke-width="0.5" stroke="rgb(0,0,0)" fill="lightblue"/>
  <circle cx="335.708" cy="312.141" r="5.05167" stroke-width="0.5" stroke="rgb(0,0,0)" fill="blue"/>
   </g>
   <g id="cell78">
  <circle cx="186.223" cy="246.066" r="8.41271" stroke-width="0.5" stroke="rgb(0,0,0)" fill="lightblue"/>
  <circle cx="186.223" cy="246.066" r="5.05167" stroke-width="0.5" stroke="rgb(0,0,0)" fill="blue"/>
   </g>
   <g id="cell79">
  <circle cx="185.523" cy="262.714" r="8.41271" stroke-width="0.5" stroke="rgb(0,0,0)" fill="lightblue"/>
  <circle cx="185.523" cy="262.714" r="5.05167" stroke-width="0.5" stroke="rgb(0,0,0)" fill="blue"/>
   </g>
   <g id="cell229">
  <circle cx="305.219" cy="116.91" r="1.44458" stroke-width="0.5" stroke="rgb(0,0,0)" fill="pink"/>
  <circle cx="305.219" cy="116.91" r="1.4315" stroke-width="0.5" stroke="rgb(0,0,0)" fill="purple"/>
   </g>
   <g id="cell303">
  <circle cx="364.456" cy="229.358" r="8.41271" stroke-width="0.5" stroke="rgb(0,0,0)" fill="lightblue"/>
  <circle cx="364.456" cy="229.358" r="5.05167" stroke-width="0.5" stroke="rgb(0,0,0)" fill="blue"/>
   </g>
   <g id="cell82">
  <circle cx="185.577" cy="307.979" r="8.41271" stroke-width="0.5" stroke="rgb(0,0,0)" fill="lightblue"/>
  <circle cx="185.577" cy="307.979" r="5.05167" stroke-width="0.5" stroke="rgb(0,0,0)" fill="blue"/>
   </g>
   <g id="cell83">
  <circle cx="186.282" cy="324.635" r="8.41271" stroke-width="0.5" stroke="rgb(0,0,0)" fill="lightblue"/>
  <circle cx="186.282" cy="324.635" r="5.05167" stroke-width="0.5" stroke="rgb(0,0,0)" fill="blue"/>
   </g>
   <g id="cell304">
  <circle cx="364.492" cy="246.029" r="8.41271" stroke-width="0.5" stroke="rgb(0,0,0)" fill="lightblue"/>
  <circle cx="364.492" cy="246.029" r="5.05167" stroke-width="0.5" stroke="rgb(0,0,0)" fill="blue"/>
   </g>
   <g id="cell85">
  <circle cx="187.351" cy="357.314" r="8.41271" stroke-width="0.5" stroke="rgb(0,0,0)" fill="lightblue"/>
  <circle cx="187.351" cy="357.314" r="5.05167" stroke-width="0.5" stroke="rgb(0,0,0)" fill="blue"/>
   </g>
   <g id="cell86">
  <circle cx="187.713" cy="373.981" r="8.41271" stroke-width="0.5" stroke="rgb(0,0,0)" fill="lightblue"/>
  <circle cx="187.713" cy="373.981" r="5.05167" stroke-width="0.5" stroke="rgb(0,0,0)" fill="blue"/>
   </g>
   <g id="cell87">
  <circle cx="187.525" cy="390.65" r="8.41271" stroke-width="0.5" stroke="rgb(0,0,0)" fill="lightblue"/>
  <circle cx="187.525" cy="390.65" r="5.05167" stroke-width="0.5" stroke="rgb(0,0,0)" fill="blue"/>
   </g>
   <g id="cell88">
  <circle cx="200.18" cy="98.583" r="8.41271" stroke-width="0.5" stroke="rgb(0,0,0)" fill="lightblue"/>
  <circle cx="200.18" cy="98.583" r="5.05167" stroke-width="0.5" stroke="rgb(0,0,0)" fill="blue"/>
   </g>
   <g id="cell89">
  <circle cx="200.167" cy="115.249" r="8.41271" stroke-width="0.5" stroke="rgb(0,0,0)" fill="lightblue"/>
  <circle cx="200.167" cy="115.249" r="5.05167" stroke-width="0.5" stroke="rgb(0,0,0)" fill="blue"/>
   </g>
   <g id="cell315">
  <circle cx="378.861" cy="220.908" r="8.41271" stroke-width="0.5" stroke="rgb(0,0,0)" fill="lightblue"/>
  <circle cx="378.861" cy="220.908" r="5.05167" stroke-width="0.5" stroke="rgb(0,0,0)" fill="blue"/>
   </g>
   <g id="cell219">
  <circle cx="290.97" cy="270.388" r="8.41271" stroke-width="0.5" stroke="rgb(0,0,0)" fill="lightblue"/>
  <circle cx="290.97" cy="270.388" r="5.05167" stroke-width="0.5" stroke="rgb(0,0,0)" fill="blue"/>
   </g>
   <g id="cell283">
  <circle cx="349.723" cy="139.657" r="8.41271" stroke-width="0.5" stroke="rgb(0,0,0)" fill="lightblue"/>
  <circle cx="349.723" cy="139.657" r="5.05167" stroke-width="0.5" stroke="rgb(0,0,0)" fill="blue"/>
   </g>
   <g id="cell325">
  <circle cx="393.352" cy="229.162" r="8.41271" stroke-width="0.5" stroke="rgb(0,0,0)" fill="lightblue"/>
  <circle cx="393.352" cy="229.162" r="5.05167" stroke-width="0.5" stroke="rgb(0,0,0)" fill="blue"/>
   </g>
   <g id="cell318">
  <circle cx="378.927" cy="270.709" r="8.41271" stroke-width="0.5" stroke="rgb(0,0,0)" fill="lightblue"/>
  <circle cx="378.927" cy="270.709" r="5.05167" stroke-width="0.5" stroke="rgb(0,0,0)" fill="blue"/>
   </g>
   <g id="cell95">
  <circle cx="201.05" cy="205.533" r="8.41271" stroke-width="0.5" stroke="rgb(0,0,0)" fill="lightblue"/>
  <circle cx="201.05" cy="205.533" r="5.05167" stroke-width="0.5" stroke="rgb(0,0,0)" fill="blue"/>
   </g>
   <g id="cell261">
  <circle cx="318.983" cy="330.417" r="8.41271" stroke-width="0.5" stroke="rgb(0,0,0)" fill="lightblue"/>
  <circle cx="318.983" cy="330.417" r="5.05167" stroke-width="0.5" stroke="rgb(0,0,0)" fill="blue"/>
   </g>
   <g id="cell97">
  <circle cx="201.201" cy="238.738" r="8.41271" stroke-width="0.5" stroke="rgb(0,0,0)" fill="lightblue"/>
  <circle cx="201.201" cy="238.738" r="5.05167" stroke-width="0.5" stroke="rgb(0,0,0)" fill="blue"/>
   </g>
   <g id="cell289">
  <circle cx="350.055" cy="237.731" r="8.41271" stroke-width="0.5" stroke="rgb(0,0,0)" fill="lightblue"/>
  <circle cx="350.055" cy="237.731" r="5.05167" stroke-width="0.5" stroke="rgb(0,0,0)" fill="blue"/>
   </g>
   <g id="cell210">
  <circle cx="290.759" cy="124.937" r="8.41271" stroke-width="0.5" stroke="rgb(0,0,0)" fill="lightblue"/>
  <circle cx="290.759" cy="124.937" r="5.05167" stroke-width="0.5" stroke="rgb(0,0,0)" fill="blue"/>
   </g>
   <g id="cell100">
  <circle cx="201.479" cy="285.993" r="8.41271" stroke-width="0.5" stroke="rgb(0,0,0)" fill="lightblue"/>
  <circle cx="201.479" cy="285.993" r="5.05167" stroke-width="0.5" stroke="rgb(0,0,0)" fill="blue"/>
   </g>
   <g id="cell101">
  <circle cx="201.37" cy="302.664" r="8.41271" stroke-width="0.5" stroke="rgb(0,0,0)" fill="lightblue"/>
  <circle cx="201.37" cy="302.664" r="5.05167" stroke-width="0.5" stroke="rgb(0,0,0)" fill="blue"/>
   </g>
   <g id="cell306">
  <circle cx="364.549" cy="279.103" r="8.41271" stroke-width="0.5" stroke="rgb(0,0,0)" fill="lightblue"/>
  <circle cx="364.549" cy="279.103" r="5.05167" stroke-width="0.5" stroke="rgb(0,0,0)" fill="blue"/>
   </g>
   <g id="cell103">
  <circle cx="201.149" cy="332.209" r="8.41271" stroke-width="0.5" stroke="rgb(0,0,0)" fill="lightblue"/>
  <circle cx="201.149" cy="332.209" r="5.05167" stroke-width="0.5" stroke="rgb(0,0,0)" fill="blue"/>
   </g>
   <g id="cell104">
  <circle cx="201.727" cy="348.852" r="8.41271" stroke-width="0.5" stroke="rgb(0,0,0)" fill="lightblue"/>
  <circle cx="201.727" cy="348.852" r="5.05167" stroke-width="0.5" stroke="rgb(0,0,0)" fill="blue"/>
   </g>
   <g id="cell244">
  <circle cx="305.288" cy="356.118" r="8.41271" stroke-width="0.5" stroke="rgb(0,0,0)" fill="lightblue"/>
  <circle cx="305.288" cy="356.118" r="5.05167" stroke-width="0.5" stroke="rgb(0,0,0)" fill="blue"/>
   </g>
   <g id="cell293">
  <circle cx="350.036" cy="303.643" r="8.41271" stroke-width="0.5" stroke="rgb(0,0,0)" fill="lightblue"/>
  <circle cx="350.036" cy="303.643" r="5.05167" stroke-width="0.5" stroke="rgb(0,0,0)" fill="blue"/>
   </g>
   <g id="cell310">
  <circle cx="364.615" cy="345.293" r="8.41271" stroke-width="0.5" stroke="rgb(0,0,0)" fill="lightblue"/>
  <circle cx="364.615" cy="345.293" r="5.05167" stroke-width="0.5" stroke="rgb(0,0,0)" fill="blue"/>
   </g>
   <g id="cell108">
  <circle cx="215.731" cy="104.569" r="8.41271" stroke-width="0.5" stroke="rgb(0,0,0)" fill="lightblue"/>
  <circle cx="215.731" cy="104.569" r="5.05167" stroke-width="0.5" stroke="rgb(0,0,0)" fill="blue"/>
   </g>
   <g id="cell109">
  <circle cx="215.719" cy="121.232" r="8.41271" stroke-width="0.5" stroke="rgb(0,0,0)" fill="lightblue"/>
  <circle cx="215.719" cy="121.232" r="5.05167" stroke-width="0.5" stroke="rgb(0,0,0)" fill="blue"/>
   </g>
   <g id="cell301">
  <circle cx="363.905" cy="196.08" r="8.41271" stroke-width="0.5" stroke="rgb(0,0,0)" fill="lightblue"/>
  <circle cx="363.905" cy="196.08" r="5.05167" stroke-width="0.5" stroke="rgb(0,0,0)" fill="blue"/>
   </g>
   <g id="cell111">
  <circle cx="216.853" cy="151.665" r="8.41271" stroke-width="0.5" stroke="rgb(0,0,0)" fill="lightblue"/>
  <circle cx="216.853" cy="151.665" r="5.05167" stroke-width="0.5" stroke="rgb(0,0,0)" fill="blue"/>
   </g>
   <g id="cell112">
  <circle cx="215.868" cy="168.31" r="8.41271" stroke-width="0.5" stroke="rgb(0,0,0)" fill="lightblue"/>
  <circle cx="215.868" cy="168.31" r="5.05167" stroke-width="0.5" stroke="rgb(0,0,0)" fill="blue"/>
   </g>
   <g id="cell113">
  <circle cx="211.687" cy="184.454" r="8.41271" stroke-width="0.5" stroke="rgb(0,0,0)" fill="lightblue"/>
  <circle cx="211.687" cy="184.454" r="5.05167" stroke-width="0.5" stroke="rgb(0,0,0)" fill="blue"/>
   </g>
   <g id="cell114">
  <circle cx="216.881" cy="200.305" r="8.41271" stroke-width="0.5" stroke="rgb(0,0,0)" fill="lightblue"/>
  <circle cx="216.881" cy="200.305" r="5.05167" stroke-width="0.5" stroke="rgb(0,0,0)" fill="blue"/>
   </g>
   <g id="cell115">
  <circle cx="216.357" cy="216.976" r="8.41271" stroke-width="0.5" stroke="rgb(0,0,0)" fill="lightblue"/>
  <circle cx="216.357" cy="216.976" r="5.05167" stroke-width="0.5" stroke="rgb(0,0,0)" fill="blue"/>
   </g>
   <g id="cell265">
  <circle cx="334.56" cy="115.265" r="4.6647" stroke-width="0.5" stroke="rgb(0,0,0)" fill="pink"/>
  <circle cx="334.56" cy="115.265" r="3.5927" stroke-width="0.5" stroke="rgb(0,0,0)" fill="purple"/>
   </g>
   <g id="cell233">
  <circle cx="304.603" cy="183.473" r="8.41271" stroke-width="0.5" stroke="rgb(0,0,0)" fill="lightblue"/>
  <circle cx="304.603" cy="183.473" r="5.05167" stroke-width="0.5" stroke="rgb(0,0,0)" fill="blue"/>
   </g>
   <g id="cell307">
  <circle cx="364.723" cy="295.777" r="8.41271" stroke-width="0.5" stroke="rgb(0,0,0)" fill="lightblue"/>
  <circle cx="364.723" cy="295.777" r="5.05167" stroke-width="0.5" stroke="rgb(0,0,0)" fill="blue"/>
   </g>
   <g id="cell119">
  <circle cx="216.309" cy="273.695" r="8.41271" stroke-width="0.5" stroke="rgb(0,0,0)" fill="lightblue"/>
  <circle cx="216.309" cy="273.695" r="5.05167" stroke-width="0.5" stroke="rgb(0,0,0)" fill="blue"/>
   </g>
   <g id="cell120">
  <circle cx="217.576" cy="290.292" r="8.41271" stroke-width="0.5" stroke="rgb(0,0,0)" fill="lightblue"/>
  <circle cx="217.576" cy="290.292" r="5.05167" stroke-width="0.5" stroke="rgb(0,0,0)" fill="blue"/>
   </g>
   <g id="cell121">
  <circle cx="217.476" cy="306.93" r="8.41271" stroke-width="0.5" stroke="rgb(0,0,0)" fill="lightblue"/>
  <circle cx="217.476" cy="306.93" r="5.05167" stroke-width="0.5" stroke="rgb(0,0,0)" fill="blue"/>
   </g>
   <g id="cell122">
  <circle cx="215.293" cy="323.436" r="8.41271" stroke-width="0.5" stroke="rgb(0,0,0)" fill="lightblue"/>
  <circle cx="215.293" cy="323.436" r="5.05167" stroke-width="0.5" stroke="rgb(0,0,0)" fill="blue"/>
   </g>
   <g id="cell123">
  <circle cx="215.861" cy="340.05" r="7.35234" stroke-width="0.5" stroke="rgb(0,0,0)" fill="pink"/>
  <circle cx="215.861" cy="340.05" r="4.58042" stroke-width="0.5" stroke="rgb(0,0,0)" fill="purple"/>
   </g>
   <g id="cell124">
  <circle cx="216.424" cy="356.704" r="8.41271" stroke-width="0.5" stroke="rgb(0,0,0)" fill="lightblue"/>
  <circle cx="216.424" cy="356.704" r="5.05167" stroke-width="0.5" stroke="rgb(0,0,0)" fill="blue"/>
   </g>
   <g id="cell230">
  <circle cx="305.063" cy="133.484" r="8.41271" stroke-width="0.5" stroke="rgb(0,0,0)" fill="lightblue"/>
  <circle cx="305.063" cy="133.484" r="5.05167" stroke-width="0.5" stroke="rgb(0,0,0)" fill="blue"/>
   </g>
   <g id="cell126">
  <circle cx="216.537" cy="389.313" r="8.41271" stroke-width="0.5" stroke="rgb(0,0,0)" fill="lightblue"/>
  <circle cx="216.537" cy="389.313" r="5.05167" stroke-width="0.5" stroke="rgb(0,0,0)" fill="blue"/>
   </g>
   <g id="cell127">
  <circle cx="217.004" cy="405.976" r="8.41271" stroke-width="0.5" stroke="rgb(0,0,0)" fill="lightblue"/>
  <circle cx="217.004" cy="405.976" r="5.05167" stroke-width="0.5" stroke="rgb(0,0,0)" fill="blue"/>
   </g>
   <g id="cell217">
  <circle cx="290.074" cy="240.701" r="8.41271" stroke-width="0.5" stroke="rgb(0,0,0)" fill="lightblue"/>
  <circle cx="290.074" cy="240.701" r="5.05167" stroke-width="0.5" stroke="rgb(0,0,0)" fill="blue"/>
   </g>
   <g id="cell309">
  <circle cx="364.728" cy="328.626" r="8.41271" stroke-width="0.5" stroke="rgb(0,0,0)" fill="lightblue"/>
  <circle cx="364.728" cy="328.626" r="5.05167" stroke-width="0.5" stroke="rgb(0,0,0)" fill="blue"/>
   </g>
   <g id="cell130">
  <circle cx="231.506" cy="126.561" r="8.41271" stroke-width="0.5" stroke="rgb(0,0,0)" fill="lightblue"/>
  <circle cx="231.506" cy="126.561" r="5.05167" stroke-width="0.5" stroke="rgb(0,0,0)" fill="blue"/>
   </g>
   <g id="cell131">
  <circle cx="231.235" cy="143.225" r="8.41271" stroke-width="0.5" stroke="rgb(0,0,0)" fill="lightblue"/>
  <circle cx="231.235" cy="143.225" r="5.05167" stroke-width="0.5" stroke="rgb(0,0,0)" fill="blue"/>
   </g>
   <g id="cell240">
  <circle cx="307.572" cy="296.065" r="8.41271" stroke-width="0.5" stroke="rgb(0,0,0)" fill="lightblue"/>
  <circle cx="307.572" cy="296.065" r="5.05167" stroke-width="0.5" stroke="rgb(0,0,0)" fill="blue"/>
   </g>
   <g id="cell133">
  <circle cx="230.747" cy="175.823" r="8.41271" stroke-width="0.5" stroke="rgb(0,0,0)" fill="lightblue"/>
  <circle cx="230.747" cy="175.823" r="5.05167" stroke-width="0.5" stroke="rgb(0,0,0)" fill="blue"/>
   </g>
   <g id="cell134">
  <circle cx="231.596" cy="192.465" r="8.41271" stroke-width="0.5" stroke="rgb(0,0,0)" fill="lightblue"/>
  <circle cx="231.596" cy="192.465" r="5.05167" stroke-width="0.5" stroke="rgb(0,0,0)" fill="blue"/>
   </g>
   <g id="cell135">
  <circle cx="231.045" cy="209.112" r="8.41271" stroke-width="0.5" stroke="rgb(0,0,0)" fill="lightblue"/>
  <circle cx="231.045" cy="209.112" r="5.05167" stroke-width="0.5" stroke="rgb(0,0,0)" fill="blue"/>
   </g>
   <g id="cell136">
  <circle cx="230.567" cy="225.767" r="8.41271" stroke-width="0.5" stroke="rgb(0,0,0)" fill="lightblue"/>
  <circle cx="230.567" cy="225.767" r="5.05167" stroke-width="0.5" stroke="rgb(0,0,0)" fill="blue"/>
   </g>
   <g id="cell137">
  <circle cx="230.316" cy="242.434" r="8.41271" stroke-width="0.5" stroke="rgb(0,0,0)" fill="lightblue"/>
  <circle cx="230.316" cy="242.434" r="5.05167" stroke-width="0.5" stroke="rgb(0,0,0)" fill="blue"/>
   </g>
   <g id="cell329">
  <circle cx="393.679" cy="295.255" r="8.41271" stroke-width="0.5" stroke="rgb(0,0,0)" fill="lightblue"/>
  <circle cx="393.679" cy="295.255" r="5.05167" stroke-width="0.5" stroke="rgb(0,0,0)" fill="blue"/>
   </g>
   <g id="cell214">
  <circle cx="289.613" cy="190.735" r="8.41271" stroke-width="0.5" stroke="rgb(0,0,0)" fill="lightblue"/>
  <circle cx="289.613" cy="190.735" r="5.05167" stroke-width="0.5" stroke="rgb(0,0,0)" fill="blue"/>
   </g>
   <g id="cell140">
  <circle cx="231.359" cy="280.93" r="8.41271" stroke-width="0.5" stroke="rgb(0,0,0)" fill="lightblue"/>
  <circle cx="231.359" cy="280.93" r="5.05167" stroke-width="0.5" stroke="rgb(0,0,0)" fill="blue"/>
   </g>
   <g id="cell316">
  <circle cx="378.946" cy="237.547" r="8.41271" stroke-width="0.5" stroke="rgb(0,0,0)" fill="lightblue"/>
  <circle cx="378.946" cy="237.547" r="5.05167" stroke-width="0.5" stroke="rgb(0,0,0)" fill="blue"/>
   </g>
   <g id="cell142">
  <circle cx="233.74" cy="310.518" r="8.41271" stroke-width="0.5" stroke="rgb(0,0,0)" fill="lightblue"/>
  <circle cx="233.74" cy="310.518" r="5.05167" stroke-width="0.5" stroke="rgb(0,0,0)" fill="blue"/>
   </g>
   <g id="cell143">
  <circle cx="230.678" cy="329.809" r="8.41271" stroke-width="0.5" stroke="rgb(0,0,0)" fill="lightblue"/>
  <circle cx="230.678" cy="329.809" r="5.05167" stroke-width="0.5" stroke="rgb(0,0,0)" fill="blue"/>
   </g>
   <g id="cell243">
  <circle cx="304.952" cy="339.459" r="8.41271" stroke-width="0.5" stroke="rgb(0,0,0)" fill="lightblue"/>
  <circle cx="304.952" cy="339.459" r="5.05167" stroke-width="0.5" stroke="rgb(0,0,0)" fill="blue"/>
   </g>
   <g id="cell145">
  <circle cx="231.57" cy="363.701" r="8.41271" stroke-width="0.5" stroke="rgb(0,0,0)" fill="lightblue"/>
  <circle cx="231.57" cy="363.701" r="5.05167" stroke-width="0.5" stroke="rgb(0,0,0)" fill="blue"/>
   </g>
   <g id="cell236">
  <circle cx="304.663" cy="232.607" r="8.41271" stroke-width="0.5" stroke="rgb(0,0,0)" fill="lightblue"/>
  <circle cx="304.663" cy="232.607" r="5.05167" stroke-width="0.5" stroke="rgb(0,0,0)" fill="blue"/>
   </g>
   <g id="cell231">
  <circle cx="304.832" cy="150.138" r="8.41271" stroke-width="0.5" stroke="rgb(0,0,0)" fill="lightblue"/>
  <circle cx="304.832" cy="150.138" r="5.05167" stroke-width="0.5" stroke="rgb(0,0,0)" fill="blue"/>
   </g>
   <g id="cell148">
  <circle cx="246.298" cy="101.81" r="1.25718" stroke-width="0.5" stroke="rgb(0,0,0)" fill="pink"/>
  <circle cx="246.298" cy="101.81" r="1.25148" stroke-width="0.5" stroke="rgb(0,0,0)" fill="purple"/>
   </g>
   <g id="cell149">
  <circle cx="246.066" cy="118.454" r="8.41271" stroke-width="0.5" stroke="rgb(0,0,0)" fill="lightblue"/>
  <circle cx="246.066" cy="118.454" r="5.05167" stroke-width="0.5" stroke="rgb(0,0,0)" fill="blue"/>
   </g>
   <g id="cell150">
  <circle cx="245.813" cy="135.116" r="8.41271" stroke-width="0.5" stroke="rgb(0,0,0)" fill="lightblue"/>
  <circle cx="245.813" cy="135.116" r="5.05167" stroke-width="0.5" stroke="rgb(0,0,0)" fill="blue"/>
   </g>
   <g id="cell311">
  <circle cx="365.099" cy="361.94" r="8.41271" stroke-width="0.5" stroke="rgb(0,0,0)" fill="lightblue"/>
  <circle cx="365.099" cy="361.94" r="5.05167" stroke-width="0.5" stroke="rgb(0,0,0)" fill="blue"/>
   </g>
   <g id="cell152">
  <circle cx="245.525" cy="168.106" r="8.41271" stroke-width="0.5" stroke="rgb(0,0,0)" fill="lightblue"/>
  <circle cx="245.525" cy="168.106" r="5.05167" stroke-width="0.5" stroke="rgb(0,0,0)" fill="blue"/>
   </g>
   <g id="cell295">
  <circle cx="350.234" cy="336.913" r="8.41271" stroke-width="0.5" stroke="rgb(0,0,0)" fill="lightblue"/>
  <circle cx="350.234" cy="336.913" r="5.05167" stroke-width="0.5" stroke="rgb(0,0,0)" fill="blue"/>
   </g>
   <g id="cell154">
  <circle cx="247.507" cy="197.441" r="8.41271" stroke-width="0.5" stroke="rgb(0,0,0)" fill="lightblue"/>
  <circle cx="247.507" cy="197.441" r="5.05167" stroke-width="0.5" stroke="rgb(0,0,0)" fill="blue"/>
   </g>
   <g id="cell155">
  <circle cx="246.956" cy="214.1" r="8.41271" stroke-width="0.5" stroke="rgb(0,0,0)" fill="lightblue"/>
  <circle cx="246.956" cy="214.1" r="5.05167" stroke-width="0.5" stroke="rgb(0,0,0)" fill="blue"/>
   </g>
   <g id="cell156">
  <circle cx="246.52" cy="230.754" r="8.41271" stroke-width="0.5" stroke="rgb(0,0,0)" fill="lightblue"/>
  <circle cx="246.52" cy="230.754" r="5.05167" stroke-width="0.5" stroke="rgb(0,0,0)" fill="blue"/>
   </g>
   <g id="cell157">
  <circle cx="246.228" cy="247.427" r="8.41271" stroke-width="0.5" stroke="rgb(0,0,0)" fill="lightblue"/>
  <circle cx="246.228" cy="247.427" r="5.05167" stroke-width="0.5" stroke="rgb(0,0,0)" fill="blue"/>
   </g>
   <g id="cell158">
  <circle cx="246.244" cy="264.058" r="8.41271" stroke-width="0.5" stroke="rgb(0,0,0)" fill="lightblue"/>
  <circle cx="246.244" cy="264.058" r="5.05167" stroke-width="0.5" stroke="rgb(0,0,0)" fill="blue"/>
   </g>
   <g id="cell159">
  <circle cx="248.036" cy="280.592" r="8.41271" stroke-width="0.5" stroke="rgb(0,0,0)" fill="lightblue"/>
  <circle cx="248.036" cy="280.592" r="5.05167" stroke-width="0.5" stroke="rgb(0,0,0)" fill="blue"/>
   </g>
   <g id="cell160">
  <circle cx="242.232" cy="296.186" r="8.41271" stroke-width="0.5" stroke="rgb(0,0,0)" fill="lightblue"/>
  <circle cx="242.232" cy="296.186" r="5.05167" stroke-width="0.5" stroke="rgb(0,0,0)" fill="blue"/>
   </g>
   <g id="cell319">
  <circle cx="379.057" cy="287.289" r="8.41271" stroke-width="0.5" stroke="rgb(0,0,0)" fill="lightblue"/>
  <circle cx="379.057" cy="287.289" r="5.05167" stroke-width="0.5" stroke="rgb(0,0,0)" fill="blue"/>
   </g>
   <g id="cell162">
  <circle cx="245.551" cy="322.259" r="8.41271" stroke-width="0.5" stroke="rgb(0,0,0)" fill="lightblue"/>
  <circle cx="245.551" cy="322.259" r="5.05167" stroke-width="0.5" stroke="rgb(0,0,0)" fill="blue"/>
   </g>
   <g id="cell294">
  <circle cx="350.276" cy="320.275" r="8.41271" stroke-width="0.5" stroke="rgb(0,0,0)" fill="lightblue"/>
  <circle cx="350.276" cy="320.275" r="5.05167" stroke-width="0.5" stroke="rgb(0,0,0)" fill="blue"/>
   </g>
   <g id="cell282">
  <circle cx="349.193" cy="123.014" r="8.41271" stroke-width="0.5" stroke="rgb(0,0,0)" fill="lightblue"/>
  <circle cx="349.193" cy="123.014" r="5.05167" stroke-width="0.5" stroke="rgb(0,0,0)" fill="blue"/>
   </g>
   <g id="cell165">
  <circle cx="245.761" cy="372.471" r="8.41271" stroke-width="0.5" stroke="rgb(0,0,0)" fill="lightblue"/>
  <circle cx="245.761" cy="372.471" r="5.05167" stroke-width="0.5" stroke="rgb(0,0,0)" fill="blue"/>
   </g>
   <g id="cell250">
  <circle cx="319.226" cy="158.586" r="8.41271" stroke-width="0.5" stroke="rgb(0,0,0)" fill="lightblue"/>
  <circle cx="319.226" cy="158.586" r="5.05167" stroke-width="0.5" stroke="rgb(0,0,0)" fill="blue"/>
   </g>
   <g id="cell267">
  <circle cx="332.487" cy="148.383" r="8.41271" stroke-width="0.5" stroke="rgb(0,0,0)" fill="lightblue"/>
  <circle cx="332.487" cy="148.383" r="5.05167" stroke-width="0.5" stroke="rgb(0,0,0)" fill="blue"/>
   </g>
   <g id="cell248">
  <circle cx="319.649" cy="125.397" r="8.41271" stroke-width="0.5" stroke="rgb(0,0,0)" fill="lightblue"/>
  <circle cx="319.649" cy="125.397" r="5.05167" stroke-width="0.5" stroke="rgb(0,0,0)" fill="blue"/>
   </g>
   <g id="cell169">
  <circle cx="260.608" cy="110.325" r="8.41271" stroke-width="0.5" stroke="rgb(0,0,0)" fill="lightblue"/>
  <circle cx="260.608" cy="110.325" r="5.05167" stroke-width="0.5" stroke="rgb(0,0,0)" fill="blue"/>
   </g>
   <g id="cell170">
  <circle cx="260.395" cy="127.002" r="8.41271" stroke-width="0.5" stroke="rgb(0,0,0)" fill="lightblue"/>
  <circle cx="260.395" cy="127.002" r="5.05167" stroke-width="0.5" stroke="rgb(0,0,0)" fill="blue"/>
   </g>
   <g id="cell222">
  <circle cx="287.179" cy="317.196" r="8.41271" stroke-width="0.5" stroke="rgb(0,0,0)" fill="lightblue"/>
  <circle cx="287.179" cy="317.196" r="5.05167" stroke-width="0.5" stroke="rgb(0,0,0)" fill="blue"/>
   </g>
   <g id="cell172">
  <circle cx="260.068" cy="159.94" r="8.41271" stroke-width="0.5" stroke="rgb(0,0,0)" fill="lightblue"/>
  <circle cx="260.068" cy="159.94" r="5.05167" stroke-width="0.5" stroke="rgb(0,0,0)" fill="blue"/>
   </g>
   <g id="cell271">
  <circle cx="334.749" cy="214.493" r="1.44458" stroke-width="0.5" stroke="rgb(0,0,0)" fill="pink"/>
  <circle cx="334.749" cy="214.493" r="1.4315" stroke-width="0.5" stroke="rgb(0,0,0)" fill="purple"/>
   </g>
   <g id="cell322">
  <circle cx="379.115" cy="337.127" r="8.41271" stroke-width="0.5" stroke="rgb(0,0,0)" fill="lightblue"/>
  <circle cx="379.115" cy="337.127" r="5.05167" stroke-width="0.5" stroke="rgb(0,0,0)" fill="blue"/>
   </g>
   <g id="cell255">
  <circle cx="320.791" cy="236.864" r="8.41271" stroke-width="0.5" stroke="rgb(0,0,0)" fill="lightblue"/>
  <circle cx="320.791" cy="236.864" r="5.05167" stroke-width="0.5" stroke="rgb(0,0,0)" fill="blue"/>
   </g>
   <g id="cell176">
  <circle cx="261.205" cy="222.782" r="8.41271" stroke-width="0.5" stroke="rgb(0,0,0)" fill="lightblue"/>
  <circle cx="261.205" cy="222.782" r="5.05167" stroke-width="0.5" stroke="rgb(0,0,0)" fill="blue"/>
   </g>
   <g id="cell177">
  <circle cx="260.794" cy="239.405" r="8.41271" stroke-width="0.5" stroke="rgb(0,0,0)" fill="lightblue"/>
  <circle cx="260.794" cy="239.405" r="5.05167" stroke-width="0.5" stroke="rgb(0,0,0)" fill="blue"/>
   </g>
   <g id="cell178">
  <circle cx="260.838" cy="256.045" r="8.41271" stroke-width="0.5" stroke="rgb(0,0,0)" fill="lightblue"/>
  <circle cx="260.838" cy="256.045" r="5.05167" stroke-width="0.5" stroke="rgb(0,0,0)" fill="blue"/>
   </g>
   <g id="cell273">
  <circle cx="335.204" cy="245.257" r="8.41271" stroke-width="0.5" stroke="rgb(0,0,0)" fill="lightblue"/>
  <circle cx="335.204" cy="245.257" r="5.05167" stroke-width="0.5" stroke="rgb(0,0,0)" fill="blue"/>
   </g>
   <g id="cell211">
  <circle cx="290.477" cy="141.586" r="8.41271" stroke-width="0.5" stroke="rgb(0,0,0)" fill="lightblue"/>
  <circle cx="290.477" cy="141.586" r="5.05167" stroke-width="0.5" stroke="rgb(0,0,0)" fill="blue"/>
   </g>
   <g id="cell181">
  <circle cx="257.988" cy="301.698" r="8.41271" stroke-width="0.5" stroke="rgb(0,0,0)" fill="lightblue"/>
  <circle cx="257.988" cy="301.698" r="5.05167" stroke-width="0.5" stroke="rgb(0,0,0)" fill="blue"/>
   </g>
   <g id="cell302">
  <circle cx="364.363" cy="212.714" r="8.41271" stroke-width="0.5" stroke="rgb(0,0,0)" fill="lightblue"/>
  <circle cx="364.363" cy="212.714" r="5.05167" stroke-width="0.5" stroke="rgb(0,0,0)" fill="blue"/>
   </g>
   <g id="cell183">
  <circle cx="259.194" cy="331.829" r="8.41271" stroke-width="0.5" stroke="rgb(0,0,0)" fill="lightblue"/>
  <circle cx="259.194" cy="331.829" r="5.05167" stroke-width="0.5" stroke="rgb(0,0,0)" fill="blue"/>
   </g>
   <g id="cell184">
  <circle cx="261.25" cy="348.338" r="2.40785" stroke-width="0.5" stroke="rgb(0,0,0)" fill="pink"/>
  <circle cx="261.25" cy="348.338" r="2.26416" stroke-width="0.5" stroke="rgb(0,0,0)" fill="purple"/>
   </g>
   <g id="cell185">
  <circle cx="260.655" cy="364.954" r="8.41271" stroke-width="0.5" stroke="rgb(0,0,0)" fill="lightblue"/>
  <circle cx="260.655" cy="364.954" r="5.05167" stroke-width="0.5" stroke="rgb(0,0,0)" fill="blue"/>
   </g>
   <g id="cell186">
  <circle cx="260.32" cy="381.617" r="2.85859" stroke-width="0.5" stroke="rgb(0,0,0)" fill="pink"/>
  <circle cx="260.32" cy="381.617" r="2.59417" stroke-width="0.5" stroke="rgb(0,0,0)" fill="purple"/>
   </g>
   <g id="cell187">
  <circle cx="260.66" cy="398.267" r="8.41271" stroke-width="0.5" stroke="rgb(0,0,0)" fill="lightblue"/>
  <circle cx="260.66" cy="398.267" r="5.05167" stroke-width="0.5" stroke="rgb(0,0,0)" fill="blue"/>
   </g>
   <g id="cell188">
  <circle cx="275.289" cy="102.436" r="8.41271" stroke-width="0.5" stroke="rgb(0,0,0)" fill="lightblue"/>
  <circle cx="275.289" cy="102.436" r="5.05167" stroke-width="0.5" stroke="rgb(0,0,0)" fill="blue"/>
   </g>
   <g id="cell313">
  <circle cx="378.584" cy="188.19" r="8.41271" stroke-width="0.5" stroke="rgb(0,0,0)" fill="lightblue"/>
  <circle cx="378.584" cy="188.19" r="5.05167" stroke-width="0.5" stroke="rgb(0,0,0)" fill="blue"/>
   </g>
   <g id="cell190">
  <circle cx="276.074" cy="132.805" r="8.41271" stroke-width="0.5" stroke="rgb(0,0,0)" fill="lightblue"/>
  <circle cx="276.074" cy="132.805" r="5.05167" stroke-width="0.5" stroke="rgb(0,0,0)" fill="blue"/>
   </g>
   <g id="cell191">
  <circle cx="275.809" cy="149.461" r="8.41271" stroke-width="0.5" stroke="rgb(0,0,0)" fill="lightblue"/>
  <circle cx="275.809" cy="149.461" r="5.05167" stroke-width="0.5" stroke="rgb(0,0,0)" fill="blue"/>
   </g>
   <g id="cell192">
  <circle cx="275.563" cy="166.085" r="8.41271" stroke-width="0.5" stroke="rgb(0,0,0)" fill="lightblue"/>
  <circle cx="275.563" cy="166.085" r="5.05167" stroke-width="0.5" stroke="rgb(0,0,0)" fill="blue"/>
   </g>
   <g id="cell193">
  <circle cx="275.011" cy="182.721" r="8.41271" stroke-width="0.5" stroke="rgb(0,0,0)" fill="lightblue"/>
  <circle cx="275.011" cy="182.721" r="5.05167" stroke-width="0.5" stroke="rgb(0,0,0)" fill="blue"/>
   </g>
   <g id="cell194">
  <circle cx="275.389" cy="199.396" r="8.41271" stroke-width="0.5" stroke="rgb(0,0,0)" fill="lightblue"/>
  <circle cx="275.389" cy="199.396" r="5.05167" stroke-width="0.5" stroke="rgb(0,0,0)" fill="blue"/>
   </g>
   <g id="cell266">
  <circle cx="335.02" cy="131.856" r="8.41271" stroke-width="0.5" stroke="rgb(0,0,0)" fill="lightblue"/>
  <circle cx="335.02" cy="131.856" r="5.05167" stroke-width="0.5" stroke="rgb(0,0,0)" fill="blue"/>
   </g>
   <g id="cell196">
  <circle cx="275.756" cy="232.098" r="8.41271" stroke-width="0.5" stroke="rgb(0,0,0)" fill="lightblue"/>
  <circle cx="275.756" cy="232.098" r="5.05167" stroke-width="0.5" stroke="rgb(0,0,0)" fill="blue"/>
   </g>
   <g id="cell221">
  <circle cx="291.707" cy="301.161" r="8.41271" stroke-width="0.5" stroke="rgb(0,0,0)" fill="lightblue"/>
  <circle cx="291.707" cy="301.161" r="5.05167" stroke-width="0.5" stroke="rgb(0,0,0)" fill="blue"/>
   </g>
   <g id="cell198">
  <circle cx="275.139" cy="264.951" r="2.46463" stroke-width="0.5" stroke="rgb(0,0,0)" fill="pink"/>
  <circle cx="275.139" cy="264.951" r="2.30782" stroke-width="0.5" stroke="rgb(0,0,0)" fill="purple"/>
   </g>
   <g id="cell264">
  <circle cx="319.414" cy="380.387" r="8.41271" stroke-width="0.5" stroke="rgb(0,0,0)" fill="lightblue"/>
  <circle cx="319.414" cy="380.387" r="5.05167" stroke-width="0.5" stroke="rgb(0,0,0)" fill="blue"/>
   </g>
   <g id="cell200">
  <circle cx="275.607" cy="296.793" r="8.41271" stroke-width="0.5" stroke="rgb(0,0,0)" fill="lightblue"/>
  <circle cx="275.607" cy="296.793" r="5.05167" stroke-width="0.5" stroke="rgb(0,0,0)" fill="blue"/>
   </g>
   <g id="cell285">
  <circle cx="349.042" cy="172.947" r="8.41271" stroke-width="0.5" stroke="rgb(0,0,0)" fill="lightblue"/>
  <circle cx="349.042" cy="172.947" r="5.05167" stroke-width="0.5" stroke="rgb(0,0,0)" fill="blue"/>
   </g>
   <g id="cell238">
  <circle cx="305.546" cy="262.32" r="8.41271" stroke-width="0.5" stroke="rgb(0,0,0)" fill="lightblue"/>
  <circle cx="305.546" cy="262.32" r="5.05167" stroke-width="0.5" stroke="rgb(0,0,0)" fill="blue"/>
   </g>
   <g id="cell284">
  <circle cx="348.993" cy="156.283" r="8.41271" stroke-width="0.5" stroke="rgb(0,0,0)" fill="lightblue"/>
  <circle cx="348.993" cy="156.283" r="5.05167" stroke-width="0.5" stroke="rgb(0,0,0)" fill="blue"/>
   </g>
   <g id="cell204">
  <circle cx="275.394" cy="357.117" r="8.41271" stroke-width="0.5" stroke="rgb(0,0,0)" fill="lightblue"/>
  <circle cx="275.394" cy="357.117" r="5.05167" stroke-width="0.5" stroke="rgb(0,0,0)" fill="blue"/>
   </g>
   <g id="cell298">
  <circle cx="363.795" cy="148.567" r="8.41271" stroke-width="0.5" stroke="rgb(0,0,0)" fill="lightblue"/>
  <circle cx="363.795" cy="148.567" r="5.05167" stroke-width="0.5" stroke="rgb(0,0,0)" fill="blue"/>
   </g>
   <g id="cell206">
  <circle cx="274.95" cy="389.684" r="8.41271" stroke-width="0.5" stroke="rgb(0,0,0)" fill="lightblue"/>
  <circle cx="274.95" cy="389.684" r="5.05167" stroke-width="0.5" stroke="rgb(0,0,0)" fill="blue"/>
   </g>
  </g>
 </g>
  <rect x="287.5" y="517.5" width="200" height="5" stroke-width="1" stroke="rgb(255,255,255)" fill="rgb(0,0,0)"/>
  <text x="290.625" y="514.375"
   font-family="Arial" font-size="12.5" fill="black" >
   200 &#956;m
  </text>
  <text x="12.5" y="522.5"
   font-family="Arial" font-size="9.375" fill="black" >
   0 days, 0 hours, 1 minutes, and 5.6045 seconds
  </text>
  <rect x="0" y="35" width="500" height="500" stroke-width="1" stroke="rgb(0,0,0)" fill="none"/>
</svg>
