<?xml version="1.0" encoding="UTF-8" standalone="no"?>
<!-- Created with PhysiCell (http://PhysiCell.MathCancer.org/) -->
<svg 
 xmlns:dc="http://purl.org/dc/elements/1.1/" 
 xmlns:cc="http://creativecommons.org/ns#" 
 xmlns:rdf="http://www.w3.org/1999/02/22-rdf-syntax-ns#" 
 xmlns:svg="http://www.w3.org/2000/svg" 
 xmlns="http://www.w3.org/2000/svg" 
 version="1.1" 
 width="500" 
 height="535" 
 id="svg2">
  <rect x="0" y="0" width="500" height="535" stroke-width="1" stroke="white" fill="white"/>
  <text x="6.25" y="15"
   font-family="Arial" font-size="12.5" fill="black" >
   Current time: 4 days, 2 hours, and 0.00 minutes, z = 0.00 &#956;m
  </text>
  <text x="6.25" y="28.75"
   font-family="Arial" font-size="11.875" fill="black" >
   137 agents
  </text>
 <g id="tissue" 
    transform="translate(0,535) scale(1,-1)">
  <g id="ECM">
  </g>
  <g id="cells">
   <g id="cell0">
  <circle cx="111.387" cy="187.325" r="8.41271" stroke-width="0.5" stroke="rgb(0,0,0)" fill="lightblue"/>
  <circle cx="111.387" cy="187.325" r="5.05167" stroke-width="0.5" stroke="rgb(0,0,0)" fill="blue"/>
   </g>
   <g id="cell231">
  <circle cx="304.734" cy="150.001" r="8.41271" stroke-width="0.5" stroke="rgb(0,0,0)" fill="lightblue"/>
  <circle cx="304.734" cy="150.001" r="5.05167" stroke-width="0.5" stroke="rgb(0,0,0)" fill="blue"/>
   </g>
   <g id="cell300">
  <circle cx="364.432" cy="179.316" r="8.41271" stroke-width="0.5" stroke="rgb(0,0,0)" fill="lightblue"/>
  <circle cx="364.432" cy="179.316" r="5.05167" stroke-width="0.5" stroke="rgb(0,0,0)" fill="blue"/>
   </g>
   <g id="cell292">
  <circle cx="350" cy="287.055" r="8.41271" stroke-width="0.5" stroke="rgb(0,0,0)" fill="lightblue"/>
  <circle cx="350" cy="287.055" r="5.05167" stroke-width="0.5" stroke="rgb(0,0,0)" fill="blue"/>
   </g>
   <g id="cell143">
  <circle cx="230.721" cy="329.536" r="8.41271" stroke-width="0.5" stroke="rgb(0,0,0)" fill="lightblue"/>
  <circle cx="230.721" cy="329.536" r="5.05167" stroke-width="0.5" stroke="rgb(0,0,0)" fill="blue"/>
   </g>
   <g id="cell227">
  <circle cx="289.378" cy="398.033" r="8.41271" stroke-width="0.5" stroke="rgb(0,0,0)" fill="lightblue"/>
  <circle cx="289.378" cy="398.033" r="5.05167" stroke-width="0.5" stroke="rgb(0,0,0)" fill="blue"/>
   </g>
   <g id="cell216">
  <circle cx="290.362" cy="223.983" r="8.41271" stroke-width="0.5" stroke="rgb(0,0,0)" fill="lightblue"/>
  <circle cx="290.362" cy="223.983" r="5.05167" stroke-width="0.5" stroke="rgb(0,0,0)" fill="blue"/>
   </g>
   <g id="cell290">
  <circle cx="349.391" cy="254.109" r="8.41271" stroke-width="0.5" stroke="rgb(0,0,0)" fill="lightblue"/>
  <circle cx="349.391" cy="254.109" r="5.05167" stroke-width="0.5" stroke="rgb(0,0,0)" fill="blue"/>
   </g>
   <g id="cell8">
  <circle cx="110.852" cy="318.652" r="8.41271" stroke-width="0.5" stroke="rgb(0,0,0)" fill="lightblue"/>
  <circle cx="110.852" cy="318.652" r="5.05167" stroke-width="0.5" stroke="rgb(0,0,0)" fill="blue"/>
   </g>
   <g id="cell196">
  <circle cx="275.61" cy="231.785" r="8.41271" stroke-width="0.5" stroke="rgb(0,0,0)" fill="lightblue"/>
  <circle cx="275.61" cy="231.785" r="5.05167" stroke-width="0.5" stroke="rgb(0,0,0)" fill="blue"/>
   </g>
   <g id="cell10">
  <circle cx="125.76" cy="178.881" r="8.41271" stroke-width="0.5" stroke="rgb(0,0,0)" fill="lightblue"/>
  <circle cx="125.76" cy="178.881" r="5.05167" stroke-width="0.5" stroke="rgb(0,0,0)" fill="blue"/>
   </g>
   <g id="cell311">
  <circle cx="365.101" cy="362.001" r="8.41271" stroke-width="0.5" stroke="rgb(0,0,0)" fill="lightblue"/>
  <circle cx="365.101" cy="362.001" r="5.05167" stroke-width="0.5" stroke="rgb(0,0,0)" fill="blue"/>
   </g>
   <g id="cell160">
  <circle cx="242.09" cy="296.181" r="8.41271" stroke-width="0.5" stroke="rgb(0,0,0)" fill="lightblue"/>
  <circle cx="242.09" cy="296.181" r="5.05167" stroke-width="0.5" stroke="rgb(0,0,0)" fill="blue"/>
   </g>
   <g id="cell13">
  <circle cx="126.534" cy="228.854" r="8.41271" stroke-width="0.5" stroke="rgb(0,0,0)" fill="lightblue"/>
  <circle cx="126.534" cy="228.854" r="5.05167" stroke-width="0.5" stroke="rgb(0,0,0)" fill="blue"/>
   </g>
   <g id="cell149">
  <circle cx="246.157" cy="118.48" r="8.41271" stroke-width="0.5" stroke="rgb(0,0,0)" fill="lightblue"/>
  <circle cx="246.157" cy="118.48" r="5.05167" stroke-width="0.5" stroke="rgb(0,0,0)" fill="blue"/>
   </g>
   <g id="cell15">
  <circle cx="126.549" cy="262.126" r="8.41271" stroke-width="0.5" stroke="rgb(0,0,0)" fill="lightblue"/>
  <circle cx="126.549" cy="262.126" r="5.05167" stroke-width="0.5" stroke="rgb(0,0,0)" fill="blue"/>
   </g>
   <g id="cell16">
  <circle cx="126.687" cy="278.795" r="8.41271" stroke-width="0.5" stroke="rgb(0,0,0)" fill="lightblue"/>
  <circle cx="126.687" cy="278.795" r="5.05167" stroke-width="0.5" stroke="rgb(0,0,0)" fill="blue"/>
   </g>
   <g id="cell275">
  <circle cx="335.667" cy="278.547" r="8.41271" stroke-width="0.5" stroke="rgb(0,0,0)" fill="lightblue"/>
  <circle cx="335.667" cy="278.547" r="5.05167" stroke-width="0.5" stroke="rgb(0,0,0)" fill="blue"/>
   </g>
   <g id="cell267">
  <circle cx="332.865" cy="148.374" r="8.41271" stroke-width="0.5" stroke="rgb(0,0,0)" fill="lightblue"/>
  <circle cx="332.865" cy="148.374" r="5.05167" stroke-width="0.5" stroke="rgb(0,0,0)" fill="blue"/>
   </g>
   <g id="cell19">
  <circle cx="124.855" cy="327.672" r="2.30099" stroke-width="0.5" stroke="rgb(0,0,0)" fill="pink"/>
  <circle cx="124.855" cy="327.672" r="2.18031" stroke-width="0.5" stroke="rgb(0,0,0)" fill="purple"/>
   </g>
   <g id="cell20">
  <circle cx="125.715" cy="344.266" r="8.41271" stroke-width="0.5" stroke="rgb(0,0,0)" fill="lightblue"/>
  <circle cx="125.715" cy="344.266" r="5.05167" stroke-width="0.5" stroke="rgb(0,0,0)" fill="blue"/>
   </g>
   <g id="cell21">
  <circle cx="141.603" cy="140.813" r="8.41271" stroke-width="0.5" stroke="rgb(0,0,0)" fill="lightblue"/>
  <circle cx="141.603" cy="140.813" r="5.05167" stroke-width="0.5" stroke="rgb(0,0,0)" fill="blue"/>
   </g>
   <g id="cell185">
  <circle cx="260.93" cy="364.797" r="3.55859" stroke-width="0.5" stroke="rgb(0,0,0)" fill="pink"/>
  <circle cx="260.93" cy="364.797" r="3.03601" stroke-width="0.5" stroke="rgb(0,0,0)" fill="purple"/>
   </g>
   <g id="cell23">
  <circle cx="141.96" cy="174.953" r="8.41271" stroke-width="0.5" stroke="rgb(0,0,0)" fill="lightblue"/>
  <circle cx="141.96" cy="174.953" r="5.05167" stroke-width="0.5" stroke="rgb(0,0,0)" fill="blue"/>
   </g>
   <g id="cell194">
  <circle cx="275.505" cy="199.518" r="8.41271" stroke-width="0.5" stroke="rgb(0,0,0)" fill="lightblue"/>
  <circle cx="275.505" cy="199.518" r="5.05167" stroke-width="0.5" stroke="rgb(0,0,0)" fill="blue"/>
   </g>
   <g id="cell25">
  <circle cx="141.805" cy="208.209" r="8.41271" stroke-width="0.5" stroke="rgb(0,0,0)" fill="lightblue"/>
  <circle cx="141.805" cy="208.209" r="5.05167" stroke-width="0.5" stroke="rgb(0,0,0)" fill="blue"/>
   </g>
   <g id="cell176">
  <circle cx="261.513" cy="222.859" r="8.41271" stroke-width="0.5" stroke="rgb(0,0,0)" fill="lightblue"/>
  <circle cx="261.513" cy="222.859" r="5.05167" stroke-width="0.5" stroke="rgb(0,0,0)" fill="blue"/>
   </g>
   <g id="cell264">
  <circle cx="319.414" cy="380.387" r="8.41271" stroke-width="0.5" stroke="rgb(0,0,0)" fill="lightblue"/>
  <circle cx="319.414" cy="380.387" r="5.05167" stroke-width="0.5" stroke="rgb(0,0,0)" fill="blue"/>
   </g>
   <g id="cell282">
  <circle cx="348.981" cy="123.073" r="8.41271" stroke-width="0.5" stroke="rgb(0,0,0)" fill="lightblue"/>
  <circle cx="348.981" cy="123.073" r="5.05167" stroke-width="0.5" stroke="rgb(0,0,0)" fill="blue"/>
   </g>
   <g id="cell269">
  <circle cx="334.634" cy="181.308" r="8.41271" stroke-width="0.5" stroke="rgb(0,0,0)" fill="lightblue"/>
  <circle cx="334.634" cy="181.308" r="5.05167" stroke-width="0.5" stroke="rgb(0,0,0)" fill="blue"/>
   </g>
   <g id="cell329">
  <circle cx="393.636" cy="295.326" r="8.41271" stroke-width="0.5" stroke="rgb(0,0,0)" fill="lightblue"/>
  <circle cx="393.636" cy="295.326" r="5.05167" stroke-width="0.5" stroke="rgb(0,0,0)" fill="blue"/>
   </g>
   <g id="cell224">
  <circle cx="290.371" cy="348.924" r="8.41271" stroke-width="0.5" stroke="rgb(0,0,0)" fill="lightblue"/>
  <circle cx="290.371" cy="348.924" r="5.05167" stroke-width="0.5" stroke="rgb(0,0,0)" fill="blue"/>
   </g>
   <g id="cell317">
  <circle cx="378.787" cy="254.159" r="8.41271" stroke-width="0.5" stroke="rgb(0,0,0)" fill="lightblue"/>
  <circle cx="378.787" cy="254.159" r="5.05167" stroke-width="0.5" stroke="rgb(0,0,0)" fill="blue"/>
   </g>
   <g id="cell33">
  <circle cx="141.046" cy="331.535" r="8.41271" stroke-width="0.5" stroke="rgb(0,0,0)" fill="lightblue"/>
  <circle cx="141.046" cy="331.535" r="5.05167" stroke-width="0.5" stroke="rgb(0,0,0)" fill="blue"/>
   </g>
   <g id="cell239">
  <circle cx="305.179" cy="279.246" r="8.41271" stroke-width="0.5" stroke="rgb(0,0,0)" fill="lightblue"/>
  <circle cx="305.179" cy="279.246" r="5.05167" stroke-width="0.5" stroke="rgb(0,0,0)" fill="blue"/>
   </g>
   <g id="cell313">
  <circle cx="378.563" cy="188.158" r="8.41271" stroke-width="0.5" stroke="rgb(0,0,0)" fill="lightblue"/>
  <circle cx="378.563" cy="188.158" r="5.05167" stroke-width="0.5" stroke="rgb(0,0,0)" fill="blue"/>
   </g>
   <g id="cell36">
  <circle cx="156.54" cy="148.212" r="8.41271" stroke-width="0.5" stroke="rgb(0,0,0)" fill="lightblue"/>
  <circle cx="156.54" cy="148.212" r="5.05167" stroke-width="0.5" stroke="rgb(0,0,0)" fill="blue"/>
   </g>
   <g id="cell221">
  <circle cx="291.579" cy="301.151" r="8.41271" stroke-width="0.5" stroke="rgb(0,0,0)" fill="lightblue"/>
  <circle cx="291.579" cy="301.151" r="5.05167" stroke-width="0.5" stroke="rgb(0,0,0)" fill="blue"/>
   </g>
   <g id="cell236">
  <circle cx="304.513" cy="232.83" r="8.41271" stroke-width="0.5" stroke="rgb(0,0,0)" fill="lightblue"/>
  <circle cx="304.513" cy="232.83" r="5.05167" stroke-width="0.5" stroke="rgb(0,0,0)" fill="blue"/>
   </g>
   <g id="cell298">
  <circle cx="363.622" cy="148.727" r="8.41271" stroke-width="0.5" stroke="rgb(0,0,0)" fill="lightblue"/>
  <circle cx="363.622" cy="148.727" r="5.05167" stroke-width="0.5" stroke="rgb(0,0,0)" fill="blue"/>
   </g>
   <g id="cell285">
  <circle cx="349.039" cy="172.92" r="8.41271" stroke-width="0.5" stroke="rgb(0,0,0)" fill="lightblue"/>
  <circle cx="349.039" cy="172.92" r="5.05167" stroke-width="0.5" stroke="rgb(0,0,0)" fill="blue"/>
   </g>
   <g id="cell41">
  <circle cx="156.843" cy="230.377" r="8.41271" stroke-width="0.5" stroke="rgb(0,0,0)" fill="lightblue"/>
  <circle cx="156.843" cy="230.377" r="5.05167" stroke-width="0.5" stroke="rgb(0,0,0)" fill="blue"/>
   </g>
   <g id="cell42">
  <circle cx="156.279" cy="247.024" r="8.41271" stroke-width="0.5" stroke="rgb(0,0,0)" fill="lightblue"/>
  <circle cx="156.279" cy="247.024" r="5.05167" stroke-width="0.5" stroke="rgb(0,0,0)" fill="blue"/>
   </g>
   <g id="cell43">
  <circle cx="155.706" cy="263.683" r="8.41271" stroke-width="0.5" stroke="rgb(0,0,0)" fill="lightblue"/>
  <circle cx="155.706" cy="263.683" r="5.05167" stroke-width="0.5" stroke="rgb(0,0,0)" fill="blue"/>
   </g>
   <g id="cell177">
  <circle cx="260.813" cy="239.499" r="8.41271" stroke-width="0.5" stroke="rgb(0,0,0)" fill="lightblue"/>
  <circle cx="260.813" cy="239.499" r="5.05167" stroke-width="0.5" stroke="rgb(0,0,0)" fill="blue"/>
   </g>
   <g id="cell215">
  <circle cx="290.237" cy="207.315" r="8.41271" stroke-width="0.5" stroke="rgb(0,0,0)" fill="lightblue"/>
  <circle cx="290.237" cy="207.315" r="5.05167" stroke-width="0.5" stroke="rgb(0,0,0)" fill="blue"/>
   </g>
   <g id="cell327">
  <circle cx="393.308" cy="262.364" r="4.6647" stroke-width="0.5" stroke="rgb(0,0,0)" fill="pink"/>
  <circle cx="393.308" cy="262.364" r="3.5927" stroke-width="0.5" stroke="rgb(0,0,0)" fill="purple"/>
   </g>
   <g id="cell253">
  <circle cx="319.437" cy="208.005" r="8.41271" stroke-width="0.5" stroke="rgb(0,0,0)" fill="lightblue"/>
  <circle cx="319.437" cy="208.005" r="5.05167" stroke-width="0.5" stroke="rgb(0,0,0)" fill="blue"/>
   </g>
   <g id="cell48">
  <circle cx="156.36" cy="338.122" r="8.41271" stroke-width="0.5" stroke="rgb(0,0,0)" fill="lightblue"/>
  <circle cx="156.36" cy="338.122" r="5.05167" stroke-width="0.5" stroke="rgb(0,0,0)" fill="blue"/>
   </g>
   <g id="cell49">
  <circle cx="157.088" cy="354.734" r="2.40785" stroke-width="0.5" stroke="rgb(0,0,0)" fill="pink"/>
  <circle cx="157.088" cy="354.734" r="2.26416" stroke-width="0.5" stroke="rgb(0,0,0)" fill="purple"/>
   </g>
   <g id="cell169">
  <circle cx="260.737" cy="110.405" r="8.41271" stroke-width="0.5" stroke="rgb(0,0,0)" fill="lightblue"/>
  <circle cx="260.737" cy="110.405" r="5.05167" stroke-width="0.5" stroke="rgb(0,0,0)" fill="blue"/>
   </g>
   <g id="cell156">
  <circle cx="246.719" cy="230.566" r="8.41271" stroke-width="0.5" stroke="rgb(0,0,0)" fill="lightblue"/>
  <circle cx="246.719" cy="230.566" r="5.05167" stroke-width="0.5" stroke="rgb(0,0,0)" fill="blue"/>
   </g>
   <g id="cell248">
  <circle cx="319.625" cy="125.404" r="8.41271" stroke-width="0.5" stroke="rgb(0,0,0)" fill="lightblue"/>
  <circle cx="319.625" cy="125.404" r="5.05167" stroke-width="0.5" stroke="rgb(0,0,0)" fill="blue"/>
   </g>
   <g id="cell53">
  <circle cx="170.635" cy="139.312" r="8.41271" stroke-width="0.5" stroke="rgb(0,0,0)" fill="lightblue"/>
  <circle cx="170.635" cy="139.312" r="5.05167" stroke-width="0.5" stroke="rgb(0,0,0)" fill="blue"/>
   </g>
   <g id="cell302">
  <circle cx="364.468" cy="212.615" r="8.41271" stroke-width="0.5" stroke="rgb(0,0,0)" fill="lightblue"/>
  <circle cx="364.468" cy="212.615" r="5.05167" stroke-width="0.5" stroke="rgb(0,0,0)" fill="blue"/>
   </g>
   <g id="cell145">
  <circle cx="231.643" cy="363.752" r="8.41271" stroke-width="0.5" stroke="rgb(0,0,0)" fill="lightblue"/>
  <circle cx="231.643" cy="363.752" r="5.05167" stroke-width="0.5" stroke="rgb(0,0,0)" fill="blue"/>
   </g>
   <g id="cell56">
  <circle cx="172.05" cy="189.326" r="8.41271" stroke-width="0.5" stroke="rgb(0,0,0)" fill="lightblue"/>
  <circle cx="172.05" cy="189.326" r="5.05167" stroke-width="0.5" stroke="rgb(0,0,0)" fill="blue"/>
   </g>
   <g id="cell57">
  <circle cx="172.415" cy="205.989" r="8.41271" stroke-width="0.5" stroke="rgb(0,0,0)" fill="lightblue"/>
  <circle cx="172.415" cy="205.989" r="5.05167" stroke-width="0.5" stroke="rgb(0,0,0)" fill="blue"/>
   </g>
   <g id="cell140">
  <circle cx="231.395" cy="281.168" r="2.30099" stroke-width="0.5" stroke="rgb(0,0,0)" fill="pink"/>
  <circle cx="231.395" cy="281.168" r="2.18031" stroke-width="0.5" stroke="rgb(0,0,0)" fill="purple"/>
   </g>
   <g id="cell59">
  <circle cx="170.948" cy="239.216" r="6.653" stroke-width="0.5" stroke="rgb(0,0,0)" fill="pink"/>
  <circle cx="170.948" cy="239.216" r="4.336" stroke-width="0.5" stroke="rgb(0,0,0)" fill="purple"/>
   </g>
   <g id="cell60">
  <circle cx="170.429" cy="255.818" r="8.41271" stroke-width="0.5" stroke="rgb(0,0,0)" fill="lightblue"/>
  <circle cx="170.429" cy="255.818" r="5.05167" stroke-width="0.5" stroke="rgb(0,0,0)" fill="blue"/>
   </g>
   <g id="cell288">
  <circle cx="350.006" cy="220.851" r="8.41271" stroke-width="0.5" stroke="rgb(0,0,0)" fill="lightblue"/>
  <circle cx="350.006" cy="220.851" r="5.05167" stroke-width="0.5" stroke="rgb(0,0,0)" fill="blue"/>
   </g>
   <g id="cell243">
  <circle cx="304.292" cy="339.696" r="8.41271" stroke-width="0.5" stroke="rgb(0,0,0)" fill="lightblue"/>
  <circle cx="304.292" cy="339.696" r="5.05167" stroke-width="0.5" stroke="rgb(0,0,0)" fill="blue"/>
   </g>
   <g id="cell63">
  <circle cx="170.831" cy="300.259" r="8.41271" stroke-width="0.5" stroke="rgb(0,0,0)" fill="lightblue"/>
  <circle cx="170.831" cy="300.259" r="5.05167" stroke-width="0.5" stroke="rgb(0,0,0)" fill="blue"/>
   </g>
   <g id="cell64">
  <circle cx="171.534" cy="316.913" r="8.41271" stroke-width="0.5" stroke="rgb(0,0,0)" fill="lightblue"/>
  <circle cx="171.534" cy="316.913" r="5.05167" stroke-width="0.5" stroke="rgb(0,0,0)" fill="blue"/>
   </g>
   <g id="cell192">
  <circle cx="275.646" cy="166.211" r="8.41271" stroke-width="0.5" stroke="rgb(0,0,0)" fill="lightblue"/>
  <circle cx="275.646" cy="166.211" r="5.05167" stroke-width="0.5" stroke="rgb(0,0,0)" fill="blue"/>
   </g>
   <g id="cell274">
  <circle cx="334.641" cy="261.916" r="8.41271" stroke-width="0.5" stroke="rgb(0,0,0)" fill="lightblue"/>
  <circle cx="334.641" cy="261.916" r="5.05167" stroke-width="0.5" stroke="rgb(0,0,0)" fill="blue"/>
   </g>
   <g id="cell320">
  <circle cx="379.349" cy="303.914" r="8.41271" stroke-width="0.5" stroke="rgb(0,0,0)" fill="lightblue"/>
  <circle cx="379.349" cy="303.914" r="5.05167" stroke-width="0.5" stroke="rgb(0,0,0)" fill="blue"/>
   </g>
   <g id="cell258">
  <circle cx="320.579" cy="285.625" r="8.41271" stroke-width="0.5" stroke="rgb(0,0,0)" fill="lightblue"/>
  <circle cx="320.579" cy="285.625" r="5.05167" stroke-width="0.5" stroke="rgb(0,0,0)" fill="blue"/>
   </g>
   <g id="cell209">
  <circle cx="290.882" cy="108.216" r="8.41271" stroke-width="0.5" stroke="rgb(0,0,0)" fill="lightblue"/>
  <circle cx="290.882" cy="108.216" r="5.05167" stroke-width="0.5" stroke="rgb(0,0,0)" fill="blue"/>
   </g>
   <g id="cell70">
  <circle cx="186.896" cy="124.876" r="8.41271" stroke-width="0.5" stroke="rgb(0,0,0)" fill="lightblue"/>
  <circle cx="186.896" cy="124.876" r="5.05167" stroke-width="0.5" stroke="rgb(0,0,0)" fill="blue"/>
   </g>
   <g id="cell321">
  <circle cx="379.31" cy="320.584" r="8.41271" stroke-width="0.5" stroke="rgb(0,0,0)" fill="lightblue"/>
  <circle cx="379.31" cy="320.584" r="5.05167" stroke-width="0.5" stroke="rgb(0,0,0)" fill="blue"/>
   </g>
   <g id="cell158">
  <circle cx="246.007" cy="264.111" r="8.41271" stroke-width="0.5" stroke="rgb(0,0,0)" fill="lightblue"/>
  <circle cx="246.007" cy="264.111" r="5.05167" stroke-width="0.5" stroke="rgb(0,0,0)" fill="blue"/>
   </g>
   <g id="cell73">
  <circle cx="185.875" cy="164.009" r="8.41271" stroke-width="0.5" stroke="rgb(0,0,0)" fill="lightblue"/>
  <circle cx="185.875" cy="164.009" r="5.05167" stroke-width="0.5" stroke="rgb(0,0,0)" fill="blue"/>
   </g>
   <g id="cell74">
  <circle cx="186.295" cy="180.674" r="8.41271" stroke-width="0.5" stroke="rgb(0,0,0)" fill="lightblue"/>
  <circle cx="186.295" cy="180.674" r="5.05167" stroke-width="0.5" stroke="rgb(0,0,0)" fill="blue"/>
   </g>
   <g id="cell75">
  <circle cx="186.671" cy="197.344" r="8.41271" stroke-width="0.5" stroke="rgb(0,0,0)" fill="lightblue"/>
  <circle cx="186.671" cy="197.344" r="5.05167" stroke-width="0.5" stroke="rgb(0,0,0)" fill="blue"/>
   </g>
   <g id="cell232">
  <circle cx="304.529" cy="166.669" r="8.41271" stroke-width="0.5" stroke="rgb(0,0,0)" fill="lightblue"/>
  <circle cx="304.529" cy="166.669" r="5.05167" stroke-width="0.5" stroke="rgb(0,0,0)" fill="blue"/>
   </g>
   <g id="cell277">
  <circle cx="335.765" cy="312.236" r="8.41271" stroke-width="0.5" stroke="rgb(0,0,0)" fill="lightblue"/>
  <circle cx="335.765" cy="312.236" r="5.05167" stroke-width="0.5" stroke="rgb(0,0,0)" fill="blue"/>
   </g>
   <g id="cell78">
  <circle cx="186.039" cy="246.224" r="8.41271" stroke-width="0.5" stroke="rgb(0,0,0)" fill="lightblue"/>
  <circle cx="186.039" cy="246.224" r="5.05167" stroke-width="0.5" stroke="rgb(0,0,0)" fill="blue"/>
   </g>
   <g id="cell79">
  <circle cx="185.529" cy="262.885" r="8.41271" stroke-width="0.5" stroke="rgb(0,0,0)" fill="lightblue"/>
  <circle cx="185.529" cy="262.885" r="5.05167" stroke-width="0.5" stroke="rgb(0,0,0)" fill="blue"/>
   </g>
   <g id="cell154">
  <circle cx="247.432" cy="197.523" r="8.41271" stroke-width="0.5" stroke="rgb(0,0,0)" fill="lightblue"/>
  <circle cx="247.432" cy="197.523" r="5.05167" stroke-width="0.5" stroke="rgb(0,0,0)" fill="blue"/>
   </g>
   <g id="cell303">
  <circle cx="364.41" cy="229.312" r="8.41271" stroke-width="0.5" stroke="rgb(0,0,0)" fill="lightblue"/>
  <circle cx="364.41" cy="229.312" r="5.05167" stroke-width="0.5" stroke="rgb(0,0,0)" fill="blue"/>
   </g>
   <g id="cell82">
  <circle cx="185.607" cy="307.976" r="8.41271" stroke-width="0.5" stroke="rgb(0,0,0)" fill="lightblue"/>
  <circle cx="185.607" cy="307.976" r="5.05167" stroke-width="0.5" stroke="rgb(0,0,0)" fill="blue"/>
   </g>
   <g id="cell183">
  <circle cx="259.228" cy="331.853" r="1.77769" stroke-width="0.5" stroke="rgb(0,0,0)" fill="pink"/>
  <circle cx="259.228" cy="331.853" r="1.73848" stroke-width="0.5" stroke="rgb(0,0,0)" fill="purple"/>
   </g>
   <g id="cell304">
  <circle cx="364.18" cy="246.055" r="8.41271" stroke-width="0.5" stroke="rgb(0,0,0)" fill="lightblue"/>
  <circle cx="364.18" cy="246.055" r="5.05167" stroke-width="0.5" stroke="rgb(0,0,0)" fill="blue"/>
   </g>
   <g id="cell85">
  <circle cx="187.371" cy="357.311" r="8.41271" stroke-width="0.5" stroke="rgb(0,0,0)" fill="lightblue"/>
  <circle cx="187.371" cy="357.311" r="5.05167" stroke-width="0.5" stroke="rgb(0,0,0)" fill="blue"/>
   </g>
   <g id="cell86">
  <circle cx="187.713" cy="373.977" r="8.41271" stroke-width="0.5" stroke="rgb(0,0,0)" fill="lightblue"/>
  <circle cx="187.713" cy="373.977" r="5.05167" stroke-width="0.5" stroke="rgb(0,0,0)" fill="blue"/>
   </g>
   <g id="cell87">
  <circle cx="187.525" cy="390.645" r="8.41271" stroke-width="0.5" stroke="rgb(0,0,0)" fill="lightblue"/>
  <circle cx="187.525" cy="390.645" r="5.05167" stroke-width="0.5" stroke="rgb(0,0,0)" fill="blue"/>
   </g>
   <g id="cell204">
  <circle cx="275.723" cy="356.932" r="8.41271" stroke-width="0.5" stroke="rgb(0,0,0)" fill="lightblue"/>
  <circle cx="275.723" cy="356.932" r="5.05167" stroke-width="0.5" stroke="rgb(0,0,0)" fill="blue"/>
   </g>
   <g id="cell89">
  <circle cx="200.369" cy="115.031" r="8.41271" stroke-width="0.5" stroke="rgb(0,0,0)" fill="lightblue"/>
  <circle cx="200.369" cy="115.031" r="5.05167" stroke-width="0.5" stroke="rgb(0,0,0)" fill="blue"/>
   </g>
   <g id="cell315">
  <circle cx="378.862" cy="220.986" r="8.41271" stroke-width="0.5" stroke="rgb(0,0,0)" fill="lightblue"/>
  <circle cx="378.862" cy="220.986" r="5.05167" stroke-width="0.5" stroke="rgb(0,0,0)" fill="blue"/>
   </g>
   <g id="cell219">
  <circle cx="291.03" cy="270.434" r="8.41271" stroke-width="0.5" stroke="rgb(0,0,0)" fill="lightblue"/>
  <circle cx="291.03" cy="270.434" r="5.05167" stroke-width="0.5" stroke="rgb(0,0,0)" fill="blue"/>
   </g>
   <g id="cell283">
  <circle cx="349.575" cy="139.738" r="8.41271" stroke-width="0.5" stroke="rgb(0,0,0)" fill="lightblue"/>
  <circle cx="349.575" cy="139.738" r="5.05167" stroke-width="0.5" stroke="rgb(0,0,0)" fill="blue"/>
   </g>
   <g id="cell325">
  <circle cx="393.322" cy="229.267" r="8.41271" stroke-width="0.5" stroke="rgb(0,0,0)" fill="lightblue"/>
  <circle cx="393.322" cy="229.267" r="5.05167" stroke-width="0.5" stroke="rgb(0,0,0)" fill="blue"/>
   </g>
   <g id="cell181">
  <circle cx="257.882" cy="301.52" r="8.41271" stroke-width="0.5" stroke="rgb(0,0,0)" fill="lightblue"/>
  <circle cx="257.882" cy="301.52" r="5.05167" stroke-width="0.5" stroke="rgb(0,0,0)" fill="blue"/>
   </g>
   <g id="cell95">
  <circle cx="201.143" cy="205.642" r="8.41271" stroke-width="0.5" stroke="rgb(0,0,0)" fill="lightblue"/>
  <circle cx="201.143" cy="205.642" r="5.05167" stroke-width="0.5" stroke="rgb(0,0,0)" fill="blue"/>
   </g>
   <g id="cell261">
  <circle cx="318.403" cy="330.787" r="8.41271" stroke-width="0.5" stroke="rgb(0,0,0)" fill="lightblue"/>
  <circle cx="318.403" cy="330.787" r="5.05167" stroke-width="0.5" stroke="rgb(0,0,0)" fill="blue"/>
   </g>
   <g id="cell97">
  <circle cx="201.005" cy="238.834" r="8.41271" stroke-width="0.5" stroke="rgb(0,0,0)" fill="lightblue"/>
  <circle cx="201.005" cy="238.834" r="5.05167" stroke-width="0.5" stroke="rgb(0,0,0)" fill="blue"/>
   </g>
   <g id="cell289">
  <circle cx="349.902" cy="237.484" r="8.41271" stroke-width="0.5" stroke="rgb(0,0,0)" fill="lightblue"/>
  <circle cx="349.902" cy="237.484" r="5.05167" stroke-width="0.5" stroke="rgb(0,0,0)" fill="blue"/>
   </g>
   <g id="cell214">
  <circle cx="289.626" cy="190.657" r="8.41271" stroke-width="0.5" stroke="rgb(0,0,0)" fill="lightblue"/>
  <circle cx="289.626" cy="190.657" r="5.05167" stroke-width="0.5" stroke="rgb(0,0,0)" fill="blue"/>
   </g>
   <g id="cell100">
  <circle cx="201.644" cy="285.846" r="8.41271" stroke-width="0.5" stroke="rgb(0,0,0)" fill="lightblue"/>
  <circle cx="201.644" cy="285.846" r="5.05167" stroke-width="0.5" stroke="rgb(0,0,0)" fill="blue"/>
   </g>
   <g id="cell101">
  <circle cx="201.362" cy="302.519" r="8.41271" stroke-width="0.5" stroke="rgb(0,0,0)" fill="lightblue"/>
  <circle cx="201.362" cy="302.519" r="5.05167" stroke-width="0.5" stroke="rgb(0,0,0)" fill="blue"/>
   </g>
   <g id="cell306">
  <circle cx="364.61" cy="279.03" r="8.41271" stroke-width="0.5" stroke="rgb(0,0,0)" fill="lightblue"/>
  <circle cx="364.61" cy="279.03" r="5.05167" stroke-width="0.5" stroke="rgb(0,0,0)" fill="blue"/>
   </g>
   <g id="cell165">
  <circle cx="246.004" cy="372.219" r="8.41271" stroke-width="0.5" stroke="rgb(0,0,0)" fill="lightblue"/>
  <circle cx="246.004" cy="372.219" r="5.05167" stroke-width="0.5" stroke="rgb(0,0,0)" fill="blue"/>
   </g>
   <g id="cell104">
  <circle cx="201.735" cy="348.853" r="8.41271" stroke-width="0.5" stroke="rgb(0,0,0)" fill="lightblue"/>
  <circle cx="201.735" cy="348.853" r="5.05167" stroke-width="0.5" stroke="rgb(0,0,0)" fill="blue"/>
   </g>
   <g id="cell244">
  <circle cx="305.307" cy="356.329" r="8.41271" stroke-width="0.5" stroke="rgb(0,0,0)" fill="lightblue"/>
  <circle cx="305.307" cy="356.329" r="5.05167" stroke-width="0.5" stroke="rgb(0,0,0)" fill="blue"/>
   </g>
   <g id="cell293">
  <circle cx="350.097" cy="303.724" r="8.41271" stroke-width="0.5" stroke="rgb(0,0,0)" fill="lightblue"/>
  <circle cx="350.097" cy="303.724" r="5.05167" stroke-width="0.5" stroke="rgb(0,0,0)" fill="blue"/>
   </g>
   <g id="cell310">
  <circle cx="364.526" cy="345.34" r="8.41271" stroke-width="0.5" stroke="rgb(0,0,0)" fill="lightblue"/>
  <circle cx="364.526" cy="345.34" r="5.05167" stroke-width="0.5" stroke="rgb(0,0,0)" fill="blue"/>
   </g>
   <g id="cell108">
  <circle cx="215.174" cy="104.785" r="8.41271" stroke-width="0.5" stroke="rgb(0,0,0)" fill="lightblue"/>
  <circle cx="215.174" cy="104.785" r="5.05167" stroke-width="0.5" stroke="rgb(0,0,0)" fill="blue"/>
   </g>
   <g id="cell109">
  <circle cx="215.752" cy="121.434" r="8.41271" stroke-width="0.5" stroke="rgb(0,0,0)" fill="lightblue"/>
  <circle cx="215.752" cy="121.434" r="5.05167" stroke-width="0.5" stroke="rgb(0,0,0)" fill="blue"/>
   </g>
   <g id="cell301">
  <circle cx="363.875" cy="195.943" r="1.36435" stroke-width="0.5" stroke="rgb(0,0,0)" fill="pink"/>
  <circle cx="363.875" cy="195.943" r="1.35498" stroke-width="0.5" stroke="rgb(0,0,0)" fill="purple"/>
   </g>
   <g id="cell111">
  <circle cx="216.925" cy="151.69" r="8.41271" stroke-width="0.5" stroke="rgb(0,0,0)" fill="lightblue"/>
  <circle cx="216.925" cy="151.69" r="5.05167" stroke-width="0.5" stroke="rgb(0,0,0)" fill="blue"/>
   </g>
   <g id="cell112">
  <circle cx="215.866" cy="168.326" r="8.41271" stroke-width="0.5" stroke="rgb(0,0,0)" fill="lightblue"/>
  <circle cx="215.866" cy="168.326" r="5.05167" stroke-width="0.5" stroke="rgb(0,0,0)" fill="blue"/>
   </g>
   <g id="cell294">
  <circle cx="350.287" cy="320.355" r="3.45824" stroke-width="0.5" stroke="rgb(0,0,0)" fill="pink"/>
  <circle cx="350.287" cy="320.355" r="2.97752" stroke-width="0.5" stroke="rgb(0,0,0)" fill="purple"/>
   </g>
   <g id="cell206">
  <circle cx="274.95" cy="389.685" r="8.41271" stroke-width="0.5" stroke="rgb(0,0,0)" fill="lightblue"/>
  <circle cx="274.95" cy="389.685" r="5.05167" stroke-width="0.5" stroke="rgb(0,0,0)" fill="blue"/>
   </g>
   <g id="cell115">
  <circle cx="216.512" cy="217.006" r="8.41271" stroke-width="0.5" stroke="rgb(0,0,0)" fill="lightblue"/>
  <circle cx="216.512" cy="217.006" r="5.05167" stroke-width="0.5" stroke="rgb(0,0,0)" fill="blue"/>
   </g>
   <g id="cell193">
  <circle cx="274.892" cy="182.861" r="8.41271" stroke-width="0.5" stroke="rgb(0,0,0)" fill="lightblue"/>
  <circle cx="274.892" cy="182.861" r="5.05167" stroke-width="0.5" stroke="rgb(0,0,0)" fill="blue"/>
   </g>
   <g id="cell233">
  <circle cx="304.569" cy="183.312" r="1.80957" stroke-width="0.5" stroke="rgb(0,0,0)" fill="pink"/>
  <circle cx="304.569" cy="183.312" r="1.76686" stroke-width="0.5" stroke="rgb(0,0,0)" fill="purple"/>
   </g>
   <g id="cell187">
  <circle cx="260.66" cy="398.267" r="8.41271" stroke-width="0.5" stroke="rgb(0,0,0)" fill="lightblue"/>
  <circle cx="260.66" cy="398.267" r="5.05167" stroke-width="0.5" stroke="rgb(0,0,0)" fill="blue"/>
   </g>
   <g id="cell119">
  <circle cx="216.408" cy="273.883" r="8.41271" stroke-width="0.5" stroke="rgb(0,0,0)" fill="lightblue"/>
  <circle cx="216.408" cy="273.883" r="5.05167" stroke-width="0.5" stroke="rgb(0,0,0)" fill="blue"/>
   </g>
   <g id="cell120">
  <circle cx="217.644" cy="290.503" r="8.41271" stroke-width="0.5" stroke="rgb(0,0,0)" fill="lightblue"/>
  <circle cx="217.644" cy="290.503" r="5.05167" stroke-width="0.5" stroke="rgb(0,0,0)" fill="blue"/>
   </g>
   <g id="cell142">
  <circle cx="233.769" cy="310.634" r="8.41271" stroke-width="0.5" stroke="rgb(0,0,0)" fill="lightblue"/>
  <circle cx="233.769" cy="310.634" r="5.05167" stroke-width="0.5" stroke="rgb(0,0,0)" fill="blue"/>
   </g>
   <g id="cell170">
  <circle cx="260.44" cy="127.072" r="8.41271" stroke-width="0.5" stroke="rgb(0,0,0)" fill="lightblue"/>
  <circle cx="260.44" cy="127.072" r="5.05167" stroke-width="0.5" stroke="rgb(0,0,0)" fill="blue"/>
   </g>
   <g id="cell191">
  <circle cx="275.856" cy="149.544" r="8.41271" stroke-width="0.5" stroke="rgb(0,0,0)" fill="lightblue"/>
  <circle cx="275.856" cy="149.544" r="5.05167" stroke-width="0.5" stroke="rgb(0,0,0)" fill="blue"/>
   </g>
   <g id="cell273">
  <circle cx="335.187" cy="245.273" r="8.41271" stroke-width="0.5" stroke="rgb(0,0,0)" fill="lightblue"/>
  <circle cx="335.187" cy="245.273" r="5.05167" stroke-width="0.5" stroke="rgb(0,0,0)" fill="blue"/>
   </g>
   <g id="cell178">
  <circle cx="260.663" cy="256.169" r="8.41271" stroke-width="0.5" stroke="rgb(0,0,0)" fill="lightblue"/>
  <circle cx="260.663" cy="256.169" r="5.05167" stroke-width="0.5" stroke="rgb(0,0,0)" fill="blue"/>
   </g>
   <g id="cell255">
  <circle cx="320.687" cy="236.988" r="8.41271" stroke-width="0.5" stroke="rgb(0,0,0)" fill="lightblue"/>
  <circle cx="320.687" cy="236.988" r="5.05167" stroke-width="0.5" stroke="rgb(0,0,0)" fill="blue"/>
   </g>
   <g id="cell127">
  <circle cx="217.004" cy="405.951" r="8.41271" stroke-width="0.5" stroke="rgb(0,0,0)" fill="lightblue"/>
  <circle cx="217.004" cy="405.951" r="5.05167" stroke-width="0.5" stroke="rgb(0,0,0)" fill="blue"/>
   </g>
   <g id="cell217">
  <circle cx="289.762" cy="240.626" r="8.41271" stroke-width="0.5" stroke="rgb(0,0,0)" fill="lightblue"/>
  <circle cx="289.762" cy="240.626" r="5.05167" stroke-width="0.5" stroke="rgb(0,0,0)" fill="blue"/>
   </g>
   <g id="cell309">
  <circle cx="364.73" cy="328.67" r="8.41271" stroke-width="0.5" stroke="rgb(0,0,0)" fill="lightblue"/>
  <circle cx="364.73" cy="328.67" r="5.05167" stroke-width="0.5" stroke="rgb(0,0,0)" fill="blue"/>
   </g>
   <g id="cell130">
  <circle cx="231.597" cy="126.588" r="8.41271" stroke-width="0.5" stroke="rgb(0,0,0)" fill="lightblue"/>
  <circle cx="231.597" cy="126.588" r="5.05167" stroke-width="0.5" stroke="rgb(0,0,0)" fill="blue"/>
   </g>
   <g id="cell131">
  <circle cx="231.3" cy="143.252" r="8.41271" stroke-width="0.5" stroke="rgb(0,0,0)" fill="lightblue"/>
  <circle cx="231.3" cy="143.252" r="5.05167" stroke-width="0.5" stroke="rgb(0,0,0)" fill="blue"/>
   </g>
   <g id="cell240">
  <circle cx="307.356" cy="295.773" r="8.41271" stroke-width="0.5" stroke="rgb(0,0,0)" fill="lightblue"/>
  <circle cx="307.356" cy="295.773" r="5.05167" stroke-width="0.5" stroke="rgb(0,0,0)" fill="blue"/>
   </g>
   <g id="cell133">
  <circle cx="230.794" cy="175.742" r="8.41271" stroke-width="0.5" stroke="rgb(0,0,0)" fill="lightblue"/>
  <circle cx="230.794" cy="175.742" r="5.05167" stroke-width="0.5" stroke="rgb(0,0,0)" fill="blue"/>
   </g>
   <g id="cell134">
  <circle cx="231.574" cy="192.391" r="8.41271" stroke-width="0.5" stroke="rgb(0,0,0)" fill="lightblue"/>
  <circle cx="231.574" cy="192.391" r="5.05167" stroke-width="0.5" stroke="rgb(0,0,0)" fill="blue"/>
   </g>
   <g id="cell135">
  <circle cx="231.163" cy="209.053" r="8.41271" stroke-width="0.5" stroke="rgb(0,0,0)" fill="lightblue"/>
  <circle cx="231.163" cy="209.053" r="5.05167" stroke-width="0.5" stroke="rgb(0,0,0)" fill="blue"/>
   </g>
   <g id="cell136">
  <circle cx="230.748" cy="225.715" r="8.41271" stroke-width="0.5" stroke="rgb(0,0,0)" fill="lightblue"/>
  <circle cx="230.748" cy="225.715" r="5.05167" stroke-width="0.5" stroke="rgb(0,0,0)" fill="blue"/>
   </g>
  </g>
 </g>
  <rect x="287.5" y="517.5" width="200" height="5" stroke-width="1" stroke="rgb(255,255,255)" fill="rgb(0,0,0)"/>
  <text x="290.625" y="514.375"
   font-family="Arial" font-size="12.5" fill="black" >
   200 &#956;m
  </text>
  <text x="12.5" y="522.5"
   font-family="Arial" font-size="9.375" fill="black" >
   0 days, 0 hours, 1 minutes, and 47.1312 seconds
  </text>
  <rect x="0" y="35" width="500" height="500" stroke-width="1" stroke="rgb(0,0,0)" fill="none"/>
</svg>
