<?xml version="1.0" encoding="UTF-8" standalone="no"?>
<!-- Created with PhysiCell (http://PhysiCell.MathCancer.org/) -->
<svg 
 xmlns:dc="http://purl.org/dc/elements/1.1/" 
 xmlns:cc="http://creativecommons.org/ns#" 
 xmlns:rdf="http://www.w3.org/1999/02/22-rdf-syntax-ns#" 
 xmlns:svg="http://www.w3.org/2000/svg" 
 xmlns="http://www.w3.org/2000/svg" 
 version="1.1" 
 width="500" 
 height="535" 
 id="svg2">
  <rect x="0" y="0" width="500" height="535" stroke-width="1" stroke="white" fill="white"/>
  <text x="6.25" y="15"
   font-family="Arial" font-size="12.5" fill="black" >
   Current time: 2 days, 11 hours, and 0.00 minutes, z = 0.00 &#956;m
  </text>
  <text x="6.25" y="28.75"
   font-family="Arial" font-size="11.875" fill="black" >
   206 agents
  </text>
 <g id="tissue" 
    transform="translate(0,535) scale(1,-1)">
  <g id="ECM">
  </g>
  <g id="cells">
   <g id="cell0">
  <circle cx="111.332" cy="187.33" r="8.41271" stroke-width="0.5" stroke="rgb(0,0,0)" fill="lightblue"/>
  <circle cx="111.332" cy="187.33" r="5.05167" stroke-width="0.5" stroke="rgb(0,0,0)" fill="blue"/>
   </g>
   <g id="cell212">
  <circle cx="290.265" cy="158.247" r="8.41271" stroke-width="0.5" stroke="rgb(0,0,0)" fill="lightblue"/>
  <circle cx="290.265" cy="158.247" r="5.05167" stroke-width="0.5" stroke="rgb(0,0,0)" fill="blue"/>
   </g>
   <g id="cell300">
  <circle cx="364.399" cy="179.425" r="8.41271" stroke-width="0.5" stroke="rgb(0,0,0)" fill="lightblue"/>
  <circle cx="364.399" cy="179.425" r="5.05167" stroke-width="0.5" stroke="rgb(0,0,0)" fill="blue"/>
   </g>
   <g id="cell292">
  <circle cx="349.932" cy="287.019" r="8.41271" stroke-width="0.5" stroke="rgb(0,0,0)" fill="lightblue"/>
  <circle cx="349.932" cy="287.019" r="5.05167" stroke-width="0.5" stroke="rgb(0,0,0)" fill="blue"/>
   </g>
   <g id="cell4">
  <circle cx="112.473" cy="253.238" r="8.41271" stroke-width="0.5" stroke="rgb(0,0,0)" fill="lightblue"/>
  <circle cx="112.473" cy="253.238" r="5.05167" stroke-width="0.5" stroke="rgb(0,0,0)" fill="blue"/>
   </g>
   <g id="cell227">
  <circle cx="289.379" cy="398.033" r="8.41271" stroke-width="0.5" stroke="rgb(0,0,0)" fill="lightblue"/>
  <circle cx="289.379" cy="398.033" r="5.05167" stroke-width="0.5" stroke="rgb(0,0,0)" fill="blue"/>
   </g>
   <g id="cell216">
  <circle cx="290.356" cy="224.039" r="8.41271" stroke-width="0.5" stroke="rgb(0,0,0)" fill="lightblue"/>
  <circle cx="290.356" cy="224.039" r="5.05167" stroke-width="0.5" stroke="rgb(0,0,0)" fill="blue"/>
   </g>
   <g id="cell290">
  <circle cx="349.217" cy="254.35" r="8.41271" stroke-width="0.5" stroke="rgb(0,0,0)" fill="lightblue"/>
  <circle cx="349.217" cy="254.35" r="5.05167" stroke-width="0.5" stroke="rgb(0,0,0)" fill="blue"/>
   </g>
   <g id="cell8">
  <circle cx="110.836" cy="318.67" r="8.41271" stroke-width="0.5" stroke="rgb(0,0,0)" fill="lightblue"/>
  <circle cx="110.836" cy="318.67" r="5.05167" stroke-width="0.5" stroke="rgb(0,0,0)" fill="blue"/>
   </g>
   <g id="cell9">
  <circle cx="125.567" cy="162.189" r="2.71639" stroke-width="0.5" stroke="rgb(0,0,0)" fill="pink"/>
  <circle cx="125.567" cy="162.189" r="2.49412" stroke-width="0.5" stroke="rgb(0,0,0)" fill="purple"/>
   </g>
   <g id="cell10">
  <circle cx="125.68" cy="178.826" r="8.41271" stroke-width="0.5" stroke="rgb(0,0,0)" fill="lightblue"/>
  <circle cx="125.68" cy="178.826" r="5.05167" stroke-width="0.5" stroke="rgb(0,0,0)" fill="blue"/>
   </g>
   <g id="cell11">
  <circle cx="125.861" cy="195.502" r="8.41271" stroke-width="0.5" stroke="rgb(0,0,0)" fill="lightblue"/>
  <circle cx="125.861" cy="195.502" r="5.05167" stroke-width="0.5" stroke="rgb(0,0,0)" fill="blue"/>
   </g>
   <g id="cell12">
  <circle cx="125.646" cy="212.18" r="8.41271" stroke-width="0.5" stroke="rgb(0,0,0)" fill="lightblue"/>
  <circle cx="125.646" cy="212.18" r="5.05167" stroke-width="0.5" stroke="rgb(0,0,0)" fill="blue"/>
   </g>
   <g id="cell13">
  <circle cx="126.534" cy="228.835" r="8.41271" stroke-width="0.5" stroke="rgb(0,0,0)" fill="lightblue"/>
  <circle cx="126.534" cy="228.835" r="5.05167" stroke-width="0.5" stroke="rgb(0,0,0)" fill="blue"/>
   </g>
   <g id="cell14">
  <circle cx="127.237" cy="245.497" r="8.41271" stroke-width="0.5" stroke="rgb(0,0,0)" fill="lightblue"/>
  <circle cx="127.237" cy="245.497" r="5.05167" stroke-width="0.5" stroke="rgb(0,0,0)" fill="blue"/>
   </g>
   <g id="cell15">
  <circle cx="126.555" cy="262.155" r="8.41271" stroke-width="0.5" stroke="rgb(0,0,0)" fill="lightblue"/>
  <circle cx="126.555" cy="262.155" r="5.05167" stroke-width="0.5" stroke="rgb(0,0,0)" fill="blue"/>
   </g>
   <g id="cell16">
  <circle cx="126.667" cy="278.825" r="8.41271" stroke-width="0.5" stroke="rgb(0,0,0)" fill="lightblue"/>
  <circle cx="126.667" cy="278.825" r="5.05167" stroke-width="0.5" stroke="rgb(0,0,0)" fill="blue"/>
   </g>
   <g id="cell275">
  <circle cx="335.605" cy="278.495" r="8.41271" stroke-width="0.5" stroke="rgb(0,0,0)" fill="lightblue"/>
  <circle cx="335.605" cy="278.495" r="5.05167" stroke-width="0.5" stroke="rgb(0,0,0)" fill="blue"/>
   </g>
   <g id="cell18">
  <circle cx="125.655" cy="311.037" r="8.41271" stroke-width="0.5" stroke="rgb(0,0,0)" fill="lightblue"/>
  <circle cx="125.655" cy="311.037" r="5.05167" stroke-width="0.5" stroke="rgb(0,0,0)" fill="blue"/>
   </g>
   <g id="cell19">
  <circle cx="124.855" cy="327.686" r="8.41271" stroke-width="0.5" stroke="rgb(0,0,0)" fill="lightblue"/>
  <circle cx="124.855" cy="327.686" r="5.05167" stroke-width="0.5" stroke="rgb(0,0,0)" fill="blue"/>
   </g>
   <g id="cell20">
  <circle cx="125.635" cy="344.336" r="8.41271" stroke-width="0.5" stroke="rgb(0,0,0)" fill="lightblue"/>
  <circle cx="125.635" cy="344.336" r="5.05167" stroke-width="0.5" stroke="rgb(0,0,0)" fill="blue"/>
   </g>
   <g id="cell21">
  <circle cx="141.304" cy="141.191" r="8.41271" stroke-width="0.5" stroke="rgb(0,0,0)" fill="lightblue"/>
  <circle cx="141.304" cy="141.191" r="5.05167" stroke-width="0.5" stroke="rgb(0,0,0)" fill="blue"/>
   </g>
   <g id="cell251">
  <circle cx="319.054" cy="175.322" r="1.63356" stroke-width="0.5" stroke="rgb(0,0,0)" fill="pink"/>
  <circle cx="319.054" cy="175.322" r="1.60794" stroke-width="0.5" stroke="rgb(0,0,0)" fill="purple"/>
   </g>
   <g id="cell23">
  <circle cx="141.91" cy="174.905" r="8.41271" stroke-width="0.5" stroke="rgb(0,0,0)" fill="lightblue"/>
  <circle cx="141.91" cy="174.905" r="5.05167" stroke-width="0.5" stroke="rgb(0,0,0)" fill="blue"/>
   </g>
   <g id="cell24">
  <circle cx="142.048" cy="191.584" r="2.85859" stroke-width="0.5" stroke="rgb(0,0,0)" fill="pink"/>
  <circle cx="142.048" cy="191.584" r="2.59417" stroke-width="0.5" stroke="rgb(0,0,0)" fill="purple"/>
   </g>
   <g id="cell25">
  <circle cx="141.832" cy="208.212" r="8.41271" stroke-width="0.5" stroke="rgb(0,0,0)" fill="lightblue"/>
  <circle cx="141.832" cy="208.212" r="5.05167" stroke-width="0.5" stroke="rgb(0,0,0)" fill="blue"/>
   </g>
   <g id="cell326">
  <circle cx="393.451" cy="245.82" r="8.41271" stroke-width="0.5" stroke="rgb(0,0,0)" fill="lightblue"/>
  <circle cx="393.451" cy="245.82" r="5.05167" stroke-width="0.5" stroke="rgb(0,0,0)" fill="blue"/>
   </g>
   <g id="cell279">
  <circle cx="335.737" cy="345.029" r="1.98741" stroke-width="0.5" stroke="rgb(0,0,0)" fill="pink"/>
  <circle cx="335.737" cy="345.029" r="1.92174" stroke-width="0.5" stroke="rgb(0,0,0)" fill="purple"/>
   </g>
   <g id="cell28">
  <circle cx="141.328" cy="254.515" r="2.06842" stroke-width="0.5" stroke="rgb(0,0,0)" fill="pink"/>
  <circle cx="141.328" cy="254.515" r="1.99032" stroke-width="0.5" stroke="rgb(0,0,0)" fill="purple"/>
   </g>
   <g id="cell269">
  <circle cx="334.625" cy="181.313" r="8.41271" stroke-width="0.5" stroke="rgb(0,0,0)" fill="lightblue"/>
  <circle cx="334.625" cy="181.313" r="5.05167" stroke-width="0.5" stroke="rgb(0,0,0)" fill="blue"/>
   </g>
   <g id="cell30">
  <circle cx="140.168" cy="288.602" r="8.41271" stroke-width="0.5" stroke="rgb(0,0,0)" fill="lightblue"/>
  <circle cx="140.168" cy="288.602" r="5.05167" stroke-width="0.5" stroke="rgb(0,0,0)" fill="blue"/>
   </g>
   <g id="cell224">
  <circle cx="290.12" cy="349.212" r="8.41271" stroke-width="0.5" stroke="rgb(0,0,0)" fill="lightblue"/>
  <circle cx="290.12" cy="349.212" r="5.05167" stroke-width="0.5" stroke="rgb(0,0,0)" fill="blue"/>
   </g>
   <g id="cell317">
  <circle cx="379.029" cy="254.134" r="8.41271" stroke-width="0.5" stroke="rgb(0,0,0)" fill="lightblue"/>
  <circle cx="379.029" cy="254.134" r="5.05167" stroke-width="0.5" stroke="rgb(0,0,0)" fill="blue"/>
   </g>
   <g id="cell33">
  <circle cx="141.092" cy="331.455" r="8.41271" stroke-width="0.5" stroke="rgb(0,0,0)" fill="lightblue"/>
  <circle cx="141.092" cy="331.455" r="5.05167" stroke-width="0.5" stroke="rgb(0,0,0)" fill="blue"/>
   </g>
   <g id="cell239">
  <circle cx="305.247" cy="279.035" r="8.41271" stroke-width="0.5" stroke="rgb(0,0,0)" fill="lightblue"/>
  <circle cx="305.247" cy="279.035" r="5.05167" stroke-width="0.5" stroke="rgb(0,0,0)" fill="blue"/>
   </g>
   <g id="cell35">
  <circle cx="155.992" cy="131.399" r="8.41271" stroke-width="0.5" stroke="rgb(0,0,0)" fill="lightblue"/>
  <circle cx="155.992" cy="131.399" r="5.05167" stroke-width="0.5" stroke="rgb(0,0,0)" fill="blue"/>
   </g>
   <g id="cell36">
  <circle cx="156.48" cy="148.044" r="8.41271" stroke-width="0.5" stroke="rgb(0,0,0)" fill="lightblue"/>
  <circle cx="156.48" cy="148.044" r="5.05167" stroke-width="0.5" stroke="rgb(0,0,0)" fill="blue"/>
   </g>
   <g id="cell37">
  <circle cx="156.857" cy="164.7" r="8.41271" stroke-width="0.5" stroke="rgb(0,0,0)" fill="lightblue"/>
  <circle cx="156.857" cy="164.7" r="5.05167" stroke-width="0.5" stroke="rgb(0,0,0)" fill="blue"/>
   </g>
   <g id="cell38">
  <circle cx="157.295" cy="181.35" r="8.41271" stroke-width="0.5" stroke="rgb(0,0,0)" fill="lightblue"/>
  <circle cx="157.295" cy="181.35" r="5.05167" stroke-width="0.5" stroke="rgb(0,0,0)" fill="blue"/>
   </g>
   <g id="cell39">
  <circle cx="157.597" cy="197.609" r="1.24061" stroke-width="0.5" stroke="rgb(0,0,0)" fill="pink"/>
  <circle cx="157.597" cy="197.609" r="1.23536" stroke-width="0.5" stroke="rgb(0,0,0)" fill="purple"/>
   </g>
   <g id="cell40">
  <circle cx="157.532" cy="213.792" r="8.41271" stroke-width="0.5" stroke="rgb(0,0,0)" fill="lightblue"/>
  <circle cx="157.532" cy="213.792" r="5.05167" stroke-width="0.5" stroke="rgb(0,0,0)" fill="blue"/>
   </g>
   <g id="cell41">
  <circle cx="156.899" cy="230.432" r="8.41271" stroke-width="0.5" stroke="rgb(0,0,0)" fill="lightblue"/>
  <circle cx="156.899" cy="230.432" r="5.05167" stroke-width="0.5" stroke="rgb(0,0,0)" fill="blue"/>
   </g>
   <g id="cell42">
  <circle cx="156.198" cy="247.069" r="8.41271" stroke-width="0.5" stroke="rgb(0,0,0)" fill="lightblue"/>
  <circle cx="156.198" cy="247.069" r="5.05167" stroke-width="0.5" stroke="rgb(0,0,0)" fill="blue"/>
   </g>
   <g id="cell43">
  <circle cx="155.448" cy="263.706" r="8.41271" stroke-width="0.5" stroke="rgb(0,0,0)" fill="lightblue"/>
  <circle cx="155.448" cy="263.706" r="5.05167" stroke-width="0.5" stroke="rgb(0,0,0)" fill="blue"/>
   </g>
   <g id="cell44">
  <circle cx="154.653" cy="280.354" r="8.41271" stroke-width="0.5" stroke="rgb(0,0,0)" fill="lightblue"/>
  <circle cx="154.653" cy="280.354" r="5.05167" stroke-width="0.5" stroke="rgb(0,0,0)" fill="blue"/>
   </g>
   <g id="cell215">
  <circle cx="290.19" cy="207.366" r="8.41271" stroke-width="0.5" stroke="rgb(0,0,0)" fill="lightblue"/>
  <circle cx="290.19" cy="207.366" r="5.05167" stroke-width="0.5" stroke="rgb(0,0,0)" fill="blue"/>
   </g>
   <g id="cell327">
  <circle cx="393.442" cy="262.502" r="8.41271" stroke-width="0.5" stroke="rgb(0,0,0)" fill="lightblue"/>
  <circle cx="393.442" cy="262.502" r="5.05167" stroke-width="0.5" stroke="rgb(0,0,0)" fill="blue"/>
   </g>
   <g id="cell253">
  <circle cx="319.437" cy="208.005" r="8.41271" stroke-width="0.5" stroke="rgb(0,0,0)" fill="lightblue"/>
  <circle cx="319.437" cy="208.005" r="5.05167" stroke-width="0.5" stroke="rgb(0,0,0)" fill="blue"/>
   </g>
   <g id="cell48">
  <circle cx="156.382" cy="338.093" r="8.41271" stroke-width="0.5" stroke="rgb(0,0,0)" fill="lightblue"/>
  <circle cx="156.382" cy="338.093" r="5.05167" stroke-width="0.5" stroke="rgb(0,0,0)" fill="blue"/>
   </g>
   <g id="cell49">
  <circle cx="157.09" cy="354.747" r="8.41271" stroke-width="0.5" stroke="rgb(0,0,0)" fill="lightblue"/>
  <circle cx="157.09" cy="354.747" r="5.05167" stroke-width="0.5" stroke="rgb(0,0,0)" fill="blue"/>
   </g>
   <g id="cell50">
  <circle cx="156.858" cy="371.415" r="8.41271" stroke-width="0.5" stroke="rgb(0,0,0)" fill="lightblue"/>
  <circle cx="156.858" cy="371.415" r="5.05167" stroke-width="0.5" stroke="rgb(0,0,0)" fill="blue"/>
   </g>
   <g id="cell280">
  <circle cx="330.141" cy="360.692" r="8.41271" stroke-width="0.5" stroke="rgb(0,0,0)" fill="lightblue"/>
  <circle cx="330.141" cy="360.692" r="5.05167" stroke-width="0.5" stroke="rgb(0,0,0)" fill="blue"/>
   </g>
   <g id="cell52">
  <circle cx="170.216" cy="122.673" r="8.41271" stroke-width="0.5" stroke="rgb(0,0,0)" fill="lightblue"/>
  <circle cx="170.216" cy="122.673" r="5.05167" stroke-width="0.5" stroke="rgb(0,0,0)" fill="blue"/>
   </g>
   <g id="cell53">
  <circle cx="170.684" cy="139.331" r="8.41271" stroke-width="0.5" stroke="rgb(0,0,0)" fill="lightblue"/>
  <circle cx="170.684" cy="139.331" r="5.05167" stroke-width="0.5" stroke="rgb(0,0,0)" fill="blue"/>
   </g>
   <g id="cell54">
  <circle cx="171.108" cy="156.006" r="8.41271" stroke-width="0.5" stroke="rgb(0,0,0)" fill="lightblue"/>
  <circle cx="171.108" cy="156.006" r="5.05167" stroke-width="0.5" stroke="rgb(0,0,0)" fill="blue"/>
   </g>
   <g id="cell55">
  <circle cx="171.526" cy="172.653" r="8.41271" stroke-width="0.5" stroke="rgb(0,0,0)" fill="lightblue"/>
  <circle cx="171.526" cy="172.653" r="5.05167" stroke-width="0.5" stroke="rgb(0,0,0)" fill="blue"/>
   </g>
   <g id="cell56">
  <circle cx="171.973" cy="189.281" r="8.41271" stroke-width="0.5" stroke="rgb(0,0,0)" fill="lightblue"/>
  <circle cx="171.973" cy="189.281" r="5.05167" stroke-width="0.5" stroke="rgb(0,0,0)" fill="blue"/>
   </g>
   <g id="cell57">
  <circle cx="172.243" cy="205.962" r="8.41271" stroke-width="0.5" stroke="rgb(0,0,0)" fill="lightblue"/>
  <circle cx="172.243" cy="205.962" r="5.05167" stroke-width="0.5" stroke="rgb(0,0,0)" fill="blue"/>
   </g>
   <g id="cell58">
  <circle cx="171.649" cy="222.656" r="8.41271" stroke-width="0.5" stroke="rgb(0,0,0)" fill="lightblue"/>
  <circle cx="171.649" cy="222.656" r="5.05167" stroke-width="0.5" stroke="rgb(0,0,0)" fill="blue"/>
   </g>
   <g id="cell59">
  <circle cx="170.976" cy="239.34" r="8.41271" stroke-width="0.5" stroke="rgb(0,0,0)" fill="lightblue"/>
  <circle cx="170.976" cy="239.34" r="5.05167" stroke-width="0.5" stroke="rgb(0,0,0)" fill="blue"/>
   </g>
   <g id="cell60">
  <circle cx="170.26" cy="256.008" r="8.41271" stroke-width="0.5" stroke="rgb(0,0,0)" fill="lightblue"/>
  <circle cx="170.26" cy="256.008" r="5.05167" stroke-width="0.5" stroke="rgb(0,0,0)" fill="blue"/>
   </g>
   <g id="cell288">
  <circle cx="349.966" cy="221.08" r="8.41271" stroke-width="0.5" stroke="rgb(0,0,0)" fill="lightblue"/>
  <circle cx="349.966" cy="221.08" r="5.05167" stroke-width="0.5" stroke="rgb(0,0,0)" fill="blue"/>
   </g>
   <g id="cell62">
  <circle cx="170.957" cy="283.603" r="2.71639" stroke-width="0.5" stroke="rgb(0,0,0)" fill="pink"/>
  <circle cx="170.957" cy="283.603" r="2.49412" stroke-width="0.5" stroke="rgb(0,0,0)" fill="purple"/>
   </g>
   <g id="cell63">
  <circle cx="170.812" cy="300.246" r="8.41271" stroke-width="0.5" stroke="rgb(0,0,0)" fill="lightblue"/>
  <circle cx="170.812" cy="300.246" r="5.05167" stroke-width="0.5" stroke="rgb(0,0,0)" fill="blue"/>
   </g>
   <g id="cell64">
  <circle cx="171.506" cy="316.905" r="8.41271" stroke-width="0.5" stroke="rgb(0,0,0)" fill="lightblue"/>
  <circle cx="171.506" cy="316.905" r="5.05167" stroke-width="0.5" stroke="rgb(0,0,0)" fill="blue"/>
   </g>
   <g id="cell241">
  <circle cx="303.945" cy="312.391" r="3.45824" stroke-width="0.5" stroke="rgb(0,0,0)" fill="pink"/>
  <circle cx="303.945" cy="312.391" r="2.97752" stroke-width="0.5" stroke="rgb(0,0,0)" fill="purple"/>
   </g>
   <g id="cell274">
  <circle cx="334.327" cy="261.884" r="8.41271" stroke-width="0.5" stroke="rgb(0,0,0)" fill="lightblue"/>
  <circle cx="334.327" cy="261.884" r="5.05167" stroke-width="0.5" stroke="rgb(0,0,0)" fill="blue"/>
   </g>
   <g id="cell320">
  <circle cx="379.36" cy="303.88" r="8.41271" stroke-width="0.5" stroke="rgb(0,0,0)" fill="lightblue"/>
  <circle cx="379.36" cy="303.88" r="5.05167" stroke-width="0.5" stroke="rgb(0,0,0)" fill="blue"/>
   </g>
   <g id="cell258">
  <circle cx="320.554" cy="285.629" r="8.41271" stroke-width="0.5" stroke="rgb(0,0,0)" fill="lightblue"/>
  <circle cx="320.554" cy="285.629" r="5.05167" stroke-width="0.5" stroke="rgb(0,0,0)" fill="blue"/>
   </g>
   <g id="cell209">
  <circle cx="290.899" cy="108.273" r="8.41271" stroke-width="0.5" stroke="rgb(0,0,0)" fill="lightblue"/>
  <circle cx="290.899" cy="108.273" r="5.05167" stroke-width="0.5" stroke="rgb(0,0,0)" fill="blue"/>
   </g>
   <g id="cell70">
  <circle cx="186.717" cy="125.111" r="8.41271" stroke-width="0.5" stroke="rgb(0,0,0)" fill="lightblue"/>
  <circle cx="186.717" cy="125.111" r="5.05167" stroke-width="0.5" stroke="rgb(0,0,0)" fill="blue"/>
   </g>
   <g id="cell321">
  <circle cx="379.287" cy="320.505" r="8.41271" stroke-width="0.5" stroke="rgb(0,0,0)" fill="lightblue"/>
  <circle cx="379.287" cy="320.505" r="5.05167" stroke-width="0.5" stroke="rgb(0,0,0)" fill="blue"/>
   </g>
   <g id="cell72">
  <circle cx="185.328" cy="147.328" r="8.41271" stroke-width="0.5" stroke="rgb(0,0,0)" fill="lightblue"/>
  <circle cx="185.328" cy="147.328" r="5.05167" stroke-width="0.5" stroke="rgb(0,0,0)" fill="blue"/>
   </g>
   <g id="cell73">
  <circle cx="185.756" cy="164.006" r="8.41271" stroke-width="0.5" stroke="rgb(0,0,0)" fill="lightblue"/>
  <circle cx="185.756" cy="164.006" r="5.05167" stroke-width="0.5" stroke="rgb(0,0,0)" fill="blue"/>
   </g>
   <g id="cell74">
  <circle cx="187.102" cy="180.653" r="8.41271" stroke-width="0.5" stroke="rgb(0,0,0)" fill="lightblue"/>
  <circle cx="187.102" cy="180.653" r="5.05167" stroke-width="0.5" stroke="rgb(0,0,0)" fill="blue"/>
   </g>
   <g id="cell75">
  <circle cx="186.533" cy="197.342" r="8.41271" stroke-width="0.5" stroke="rgb(0,0,0)" fill="lightblue"/>
  <circle cx="186.533" cy="197.342" r="5.05167" stroke-width="0.5" stroke="rgb(0,0,0)" fill="blue"/>
   </g>
   <g id="cell232">
  <circle cx="304.661" cy="166.782" r="8.41271" stroke-width="0.5" stroke="rgb(0,0,0)" fill="lightblue"/>
  <circle cx="304.661" cy="166.782" r="5.05167" stroke-width="0.5" stroke="rgb(0,0,0)" fill="blue"/>
   </g>
   <g id="cell277">
  <circle cx="335.71" cy="312.149" r="8.41271" stroke-width="0.5" stroke="rgb(0,0,0)" fill="lightblue"/>
  <circle cx="335.71" cy="312.149" r="5.05167" stroke-width="0.5" stroke="rgb(0,0,0)" fill="blue"/>
   </g>
   <g id="cell78">
  <circle cx="186.219" cy="246.069" r="8.41271" stroke-width="0.5" stroke="rgb(0,0,0)" fill="lightblue"/>
  <circle cx="186.219" cy="246.069" r="5.05167" stroke-width="0.5" stroke="rgb(0,0,0)" fill="blue"/>
   </g>
   <g id="cell79">
  <circle cx="185.522" cy="262.717" r="8.41271" stroke-width="0.5" stroke="rgb(0,0,0)" fill="lightblue"/>
  <circle cx="185.522" cy="262.717" r="5.05167" stroke-width="0.5" stroke="rgb(0,0,0)" fill="blue"/>
   </g>
   <g id="cell229">
  <circle cx="305.219" cy="116.91" r="1.25718" stroke-width="0.5" stroke="rgb(0,0,0)" fill="pink"/>
  <circle cx="305.219" cy="116.91" r="1.25148" stroke-width="0.5" stroke="rgb(0,0,0)" fill="purple"/>
   </g>
   <g id="cell303">
  <circle cx="364.454" cy="229.351" r="8.41271" stroke-width="0.5" stroke="rgb(0,0,0)" fill="lightblue"/>
  <circle cx="364.454" cy="229.351" r="5.05167" stroke-width="0.5" stroke="rgb(0,0,0)" fill="blue"/>
   </g>
   <g id="cell82">
  <circle cx="185.577" cy="307.979" r="8.41271" stroke-width="0.5" stroke="rgb(0,0,0)" fill="lightblue"/>
  <circle cx="185.577" cy="307.979" r="5.05167" stroke-width="0.5" stroke="rgb(0,0,0)" fill="blue"/>
   </g>
   <g id="cell83">
  <circle cx="186.283" cy="324.635" r="8.41271" stroke-width="0.5" stroke="rgb(0,0,0)" fill="lightblue"/>
  <circle cx="186.283" cy="324.635" r="5.05167" stroke-width="0.5" stroke="rgb(0,0,0)" fill="blue"/>
   </g>
   <g id="cell304">
  <circle cx="364.491" cy="246.022" r="8.41271" stroke-width="0.5" stroke="rgb(0,0,0)" fill="lightblue"/>
  <circle cx="364.491" cy="246.022" r="5.05167" stroke-width="0.5" stroke="rgb(0,0,0)" fill="blue"/>
   </g>
   <g id="cell85">
  <circle cx="187.356" cy="357.313" r="8.41271" stroke-width="0.5" stroke="rgb(0,0,0)" fill="lightblue"/>
  <circle cx="187.356" cy="357.313" r="5.05167" stroke-width="0.5" stroke="rgb(0,0,0)" fill="blue"/>
   </g>
   <g id="cell86">
  <circle cx="187.713" cy="373.98" r="8.41271" stroke-width="0.5" stroke="rgb(0,0,0)" fill="lightblue"/>
  <circle cx="187.713" cy="373.98" r="5.05167" stroke-width="0.5" stroke="rgb(0,0,0)" fill="blue"/>
   </g>
   <g id="cell87">
  <circle cx="187.525" cy="390.65" r="8.41271" stroke-width="0.5" stroke="rgb(0,0,0)" fill="lightblue"/>
  <circle cx="187.525" cy="390.65" r="5.05167" stroke-width="0.5" stroke="rgb(0,0,0)" fill="blue"/>
   </g>
   <g id="cell88">
  <circle cx="200.176" cy="98.5798" r="8.41271" stroke-width="0.5" stroke="rgb(0,0,0)" fill="lightblue"/>
  <circle cx="200.176" cy="98.5798" r="5.05167" stroke-width="0.5" stroke="rgb(0,0,0)" fill="blue"/>
   </g>
   <g id="cell89">
  <circle cx="200.169" cy="115.247" r="8.41271" stroke-width="0.5" stroke="rgb(0,0,0)" fill="lightblue"/>
  <circle cx="200.169" cy="115.247" r="5.05167" stroke-width="0.5" stroke="rgb(0,0,0)" fill="blue"/>
   </g>
   <g id="cell315">
  <circle cx="378.859" cy="220.903" r="8.41271" stroke-width="0.5" stroke="rgb(0,0,0)" fill="lightblue"/>
  <circle cx="378.859" cy="220.903" r="5.05167" stroke-width="0.5" stroke="rgb(0,0,0)" fill="blue"/>
   </g>
   <g id="cell219">
  <circle cx="290.973" cy="270.396" r="8.41271" stroke-width="0.5" stroke="rgb(0,0,0)" fill="lightblue"/>
  <circle cx="290.973" cy="270.396" r="5.05167" stroke-width="0.5" stroke="rgb(0,0,0)" fill="blue"/>
   </g>
   <g id="cell283">
  <circle cx="349.724" cy="139.657" r="8.41271" stroke-width="0.5" stroke="rgb(0,0,0)" fill="lightblue"/>
  <circle cx="349.724" cy="139.657" r="5.05167" stroke-width="0.5" stroke="rgb(0,0,0)" fill="blue"/>
   </g>
   <g id="cell325">
  <circle cx="393.349" cy="229.156" r="8.41271" stroke-width="0.5" stroke="rgb(0,0,0)" fill="lightblue"/>
  <circle cx="393.349" cy="229.156" r="5.05167" stroke-width="0.5" stroke="rgb(0,0,0)" fill="blue"/>
   </g>
   <g id="cell318">
  <circle cx="378.937" cy="270.71" r="8.41271" stroke-width="0.5" stroke="rgb(0,0,0)" fill="lightblue"/>
  <circle cx="378.937" cy="270.71" r="5.05167" stroke-width="0.5" stroke="rgb(0,0,0)" fill="blue"/>
   </g>
   <g id="cell95">
  <circle cx="201.056" cy="205.536" r="8.41271" stroke-width="0.5" stroke="rgb(0,0,0)" fill="lightblue"/>
  <circle cx="201.056" cy="205.536" r="5.05167" stroke-width="0.5" stroke="rgb(0,0,0)" fill="blue"/>
   </g>
   <g id="cell261">
  <circle cx="318.972" cy="330.425" r="8.41271" stroke-width="0.5" stroke="rgb(0,0,0)" fill="lightblue"/>
  <circle cx="318.972" cy="330.425" r="5.05167" stroke-width="0.5" stroke="rgb(0,0,0)" fill="blue"/>
   </g>
   <g id="cell97">
  <circle cx="201.197" cy="238.739" r="8.41271" stroke-width="0.5" stroke="rgb(0,0,0)" fill="lightblue"/>
  <circle cx="201.197" cy="238.739" r="5.05167" stroke-width="0.5" stroke="rgb(0,0,0)" fill="blue"/>
   </g>
   <g id="cell289">
  <circle cx="350.052" cy="237.724" r="8.41271" stroke-width="0.5" stroke="rgb(0,0,0)" fill="lightblue"/>
  <circle cx="350.052" cy="237.724" r="5.05167" stroke-width="0.5" stroke="rgb(0,0,0)" fill="blue"/>
   </g>
   <g id="cell210">
  <circle cx="290.76" cy="124.928" r="8.41271" stroke-width="0.5" stroke="rgb(0,0,0)" fill="lightblue"/>
  <circle cx="290.76" cy="124.928" r="5.05167" stroke-width="0.5" stroke="rgb(0,0,0)" fill="blue"/>
   </g>
   <g id="cell100">
  <circle cx="201.481" cy="285.988" r="8.41271" stroke-width="0.5" stroke="rgb(0,0,0)" fill="lightblue"/>
  <circle cx="201.481" cy="285.988" r="5.05167" stroke-width="0.5" stroke="rgb(0,0,0)" fill="blue"/>
   </g>
   <g id="cell101">
  <circle cx="201.369" cy="302.659" r="8.41271" stroke-width="0.5" stroke="rgb(0,0,0)" fill="lightblue"/>
  <circle cx="201.369" cy="302.659" r="5.05167" stroke-width="0.5" stroke="rgb(0,0,0)" fill="blue"/>
   </g>
   <g id="cell306">
  <circle cx="364.555" cy="279.097" r="8.41271" stroke-width="0.5" stroke="rgb(0,0,0)" fill="lightblue"/>
  <circle cx="364.555" cy="279.097" r="5.05167" stroke-width="0.5" stroke="rgb(0,0,0)" fill="blue"/>
   </g>
   <g id="cell103">
  <circle cx="201.138" cy="332.209" r="8.41271" stroke-width="0.5" stroke="rgb(0,0,0)" fill="lightblue"/>
  <circle cx="201.138" cy="332.209" r="5.05167" stroke-width="0.5" stroke="rgb(0,0,0)" fill="blue"/>
   </g>
   <g id="cell104">
  <circle cx="201.727" cy="348.858" r="8.41271" stroke-width="0.5" stroke="rgb(0,0,0)" fill="lightblue"/>
  <circle cx="201.727" cy="348.858" r="5.05167" stroke-width="0.5" stroke="rgb(0,0,0)" fill="blue"/>
   </g>
   <g id="cell244">
  <circle cx="305.288" cy="356.123" r="8.41271" stroke-width="0.5" stroke="rgb(0,0,0)" fill="lightblue"/>
  <circle cx="305.288" cy="356.123" r="5.05167" stroke-width="0.5" stroke="rgb(0,0,0)" fill="blue"/>
   </g>
   <g id="cell293">
  <circle cx="350.037" cy="303.647" r="8.41271" stroke-width="0.5" stroke="rgb(0,0,0)" fill="lightblue"/>
  <circle cx="350.037" cy="303.647" r="5.05167" stroke-width="0.5" stroke="rgb(0,0,0)" fill="blue"/>
   </g>
   <g id="cell310">
  <circle cx="364.613" cy="345.302" r="8.41271" stroke-width="0.5" stroke="rgb(0,0,0)" fill="lightblue"/>
  <circle cx="364.613" cy="345.302" r="5.05167" stroke-width="0.5" stroke="rgb(0,0,0)" fill="blue"/>
   </g>
   <g id="cell108">
  <circle cx="215.724" cy="104.574" r="8.41271" stroke-width="0.5" stroke="rgb(0,0,0)" fill="lightblue"/>
  <circle cx="215.724" cy="104.574" r="5.05167" stroke-width="0.5" stroke="rgb(0,0,0)" fill="blue"/>
   </g>
   <g id="cell109">
  <circle cx="215.719" cy="121.236" r="8.41271" stroke-width="0.5" stroke="rgb(0,0,0)" fill="lightblue"/>
  <circle cx="215.719" cy="121.236" r="5.05167" stroke-width="0.5" stroke="rgb(0,0,0)" fill="blue"/>
   </g>
   <g id="cell301">
  <circle cx="363.901" cy="196.072" r="8.41271" stroke-width="0.5" stroke="rgb(0,0,0)" fill="lightblue"/>
  <circle cx="363.901" cy="196.072" r="5.05167" stroke-width="0.5" stroke="rgb(0,0,0)" fill="blue"/>
   </g>
   <g id="cell111">
  <circle cx="216.856" cy="151.666" r="8.41271" stroke-width="0.5" stroke="rgb(0,0,0)" fill="lightblue"/>
  <circle cx="216.856" cy="151.666" r="5.05167" stroke-width="0.5" stroke="rgb(0,0,0)" fill="blue"/>
   </g>
   <g id="cell112">
  <circle cx="215.866" cy="168.311" r="8.41271" stroke-width="0.5" stroke="rgb(0,0,0)" fill="lightblue"/>
  <circle cx="215.866" cy="168.311" r="5.05167" stroke-width="0.5" stroke="rgb(0,0,0)" fill="blue"/>
   </g>
   <g id="cell113">
  <circle cx="211.69" cy="184.456" r="8.41271" stroke-width="0.5" stroke="rgb(0,0,0)" fill="lightblue"/>
  <circle cx="211.69" cy="184.456" r="5.05167" stroke-width="0.5" stroke="rgb(0,0,0)" fill="blue"/>
   </g>
   <g id="cell114">
  <circle cx="216.885" cy="200.307" r="8.41271" stroke-width="0.5" stroke="rgb(0,0,0)" fill="lightblue"/>
  <circle cx="216.885" cy="200.307" r="5.05167" stroke-width="0.5" stroke="rgb(0,0,0)" fill="blue"/>
   </g>
   <g id="cell115">
  <circle cx="216.363" cy="216.978" r="8.41271" stroke-width="0.5" stroke="rgb(0,0,0)" fill="lightblue"/>
  <circle cx="216.363" cy="216.978" r="5.05167" stroke-width="0.5" stroke="rgb(0,0,0)" fill="blue"/>
   </g>
   <g id="cell265">
  <circle cx="334.56" cy="115.265" r="3.45824" stroke-width="0.5" stroke="rgb(0,0,0)" fill="pink"/>
  <circle cx="334.56" cy="115.265" r="2.97752" stroke-width="0.5" stroke="rgb(0,0,0)" fill="purple"/>
   </g>
   <g id="cell233">
  <circle cx="304.611" cy="183.462" r="8.41271" stroke-width="0.5" stroke="rgb(0,0,0)" fill="lightblue"/>
  <circle cx="304.611" cy="183.462" r="5.05167" stroke-width="0.5" stroke="rgb(0,0,0)" fill="blue"/>
   </g>
   <g id="cell307">
  <circle cx="364.717" cy="295.77" r="8.41271" stroke-width="0.5" stroke="rgb(0,0,0)" fill="lightblue"/>
  <circle cx="364.717" cy="295.77" r="5.05167" stroke-width="0.5" stroke="rgb(0,0,0)" fill="blue"/>
   </g>
   <g id="cell119">
  <circle cx="216.317" cy="273.692" r="8.41271" stroke-width="0.5" stroke="rgb(0,0,0)" fill="lightblue"/>
  <circle cx="216.317" cy="273.692" r="5.05167" stroke-width="0.5" stroke="rgb(0,0,0)" fill="blue"/>
   </g>
   <g id="cell120">
  <circle cx="217.577" cy="290.293" r="8.41271" stroke-width="0.5" stroke="rgb(0,0,0)" fill="lightblue"/>
  <circle cx="217.577" cy="290.293" r="5.05167" stroke-width="0.5" stroke="rgb(0,0,0)" fill="blue"/>
   </g>
   <g id="cell121">
  <circle cx="217.473" cy="306.937" r="8.41271" stroke-width="0.5" stroke="rgb(0,0,0)" fill="lightblue"/>
  <circle cx="217.473" cy="306.937" r="5.05167" stroke-width="0.5" stroke="rgb(0,0,0)" fill="blue"/>
   </g>
   <g id="cell122">
  <circle cx="215.296" cy="323.446" r="8.41271" stroke-width="0.5" stroke="rgb(0,0,0)" fill="lightblue"/>
  <circle cx="215.296" cy="323.446" r="5.05167" stroke-width="0.5" stroke="rgb(0,0,0)" fill="blue"/>
   </g>
   <g id="cell123">
  <circle cx="215.844" cy="340.05" r="5.29442" stroke-width="0.5" stroke="rgb(0,0,0)" fill="pink"/>
  <circle cx="215.844" cy="340.05" r="3.85305" stroke-width="0.5" stroke="rgb(0,0,0)" fill="purple"/>
   </g>
   <g id="cell124">
  <circle cx="216.433" cy="356.699" r="8.41271" stroke-width="0.5" stroke="rgb(0,0,0)" fill="lightblue"/>
  <circle cx="216.433" cy="356.699" r="5.05167" stroke-width="0.5" stroke="rgb(0,0,0)" fill="blue"/>
   </g>
   <g id="cell230">
  <circle cx="305.062" cy="133.479" r="8.41271" stroke-width="0.5" stroke="rgb(0,0,0)" fill="lightblue"/>
  <circle cx="305.062" cy="133.479" r="5.05167" stroke-width="0.5" stroke="rgb(0,0,0)" fill="blue"/>
   </g>
   <g id="cell126">
  <circle cx="216.537" cy="389.313" r="8.41271" stroke-width="0.5" stroke="rgb(0,0,0)" fill="lightblue"/>
  <circle cx="216.537" cy="389.313" r="5.05167" stroke-width="0.5" stroke="rgb(0,0,0)" fill="blue"/>
   </g>
   <g id="cell127">
  <circle cx="217.004" cy="405.976" r="8.41271" stroke-width="0.5" stroke="rgb(0,0,0)" fill="lightblue"/>
  <circle cx="217.004" cy="405.976" r="5.05167" stroke-width="0.5" stroke="rgb(0,0,0)" fill="blue"/>
   </g>
   <g id="cell217">
  <circle cx="290.065" cy="240.694" r="8.41271" stroke-width="0.5" stroke="rgb(0,0,0)" fill="lightblue"/>
  <circle cx="290.065" cy="240.694" r="5.05167" stroke-width="0.5" stroke="rgb(0,0,0)" fill="blue"/>
   </g>
   <g id="cell309">
  <circle cx="364.727" cy="328.635" r="8.41271" stroke-width="0.5" stroke="rgb(0,0,0)" fill="lightblue"/>
  <circle cx="364.727" cy="328.635" r="5.05167" stroke-width="0.5" stroke="rgb(0,0,0)" fill="blue"/>
   </g>
   <g id="cell130">
  <circle cx="231.508" cy="126.562" r="8.41271" stroke-width="0.5" stroke="rgb(0,0,0)" fill="lightblue"/>
  <circle cx="231.508" cy="126.562" r="5.05167" stroke-width="0.5" stroke="rgb(0,0,0)" fill="blue"/>
   </g>
   <g id="cell131">
  <circle cx="231.238" cy="143.226" r="8.41271" stroke-width="0.5" stroke="rgb(0,0,0)" fill="lightblue"/>
  <circle cx="231.238" cy="143.226" r="5.05167" stroke-width="0.5" stroke="rgb(0,0,0)" fill="blue"/>
   </g>
   <g id="cell240">
  <circle cx="307.557" cy="296.033" r="8.41271" stroke-width="0.5" stroke="rgb(0,0,0)" fill="lightblue"/>
  <circle cx="307.557" cy="296.033" r="5.05167" stroke-width="0.5" stroke="rgb(0,0,0)" fill="blue"/>
   </g>
   <g id="cell133">
  <circle cx="230.749" cy="175.819" r="8.41271" stroke-width="0.5" stroke="rgb(0,0,0)" fill="lightblue"/>
  <circle cx="230.749" cy="175.819" r="5.05167" stroke-width="0.5" stroke="rgb(0,0,0)" fill="blue"/>
   </g>
   <g id="cell134">
  <circle cx="231.596" cy="192.461" r="8.41271" stroke-width="0.5" stroke="rgb(0,0,0)" fill="lightblue"/>
  <circle cx="231.596" cy="192.461" r="5.05167" stroke-width="0.5" stroke="rgb(0,0,0)" fill="blue"/>
   </g>
   <g id="cell135">
  <circle cx="231.05" cy="209.11" r="8.41271" stroke-width="0.5" stroke="rgb(0,0,0)" fill="lightblue"/>
  <circle cx="231.05" cy="209.11" r="5.05167" stroke-width="0.5" stroke="rgb(0,0,0)" fill="blue"/>
   </g>
   <g id="cell136">
  <circle cx="230.573" cy="225.766" r="8.41271" stroke-width="0.5" stroke="rgb(0,0,0)" fill="lightblue"/>
  <circle cx="230.573" cy="225.766" r="5.05167" stroke-width="0.5" stroke="rgb(0,0,0)" fill="blue"/>
   </g>
   <g id="cell137">
  <circle cx="230.323" cy="242.434" r="8.41271" stroke-width="0.5" stroke="rgb(0,0,0)" fill="lightblue"/>
  <circle cx="230.323" cy="242.434" r="5.05167" stroke-width="0.5" stroke="rgb(0,0,0)" fill="blue"/>
   </g>
   <g id="cell329">
  <circle cx="393.673" cy="295.271" r="8.41271" stroke-width="0.5" stroke="rgb(0,0,0)" fill="lightblue"/>
  <circle cx="393.673" cy="295.271" r="5.05167" stroke-width="0.5" stroke="rgb(0,0,0)" fill="blue"/>
   </g>
   <g id="cell214">
  <circle cx="289.622" cy="190.724" r="8.41271" stroke-width="0.5" stroke="rgb(0,0,0)" fill="lightblue"/>
  <circle cx="289.622" cy="190.724" r="5.05167" stroke-width="0.5" stroke="rgb(0,0,0)" fill="blue"/>
   </g>
   <g id="cell140">
  <circle cx="231.363" cy="280.932" r="8.41271" stroke-width="0.5" stroke="rgb(0,0,0)" fill="lightblue"/>
  <circle cx="231.363" cy="280.932" r="5.05167" stroke-width="0.5" stroke="rgb(0,0,0)" fill="blue"/>
   </g>
   <g id="cell316">
  <circle cx="378.943" cy="237.543" r="8.41271" stroke-width="0.5" stroke="rgb(0,0,0)" fill="lightblue"/>
  <circle cx="378.943" cy="237.543" r="5.05167" stroke-width="0.5" stroke="rgb(0,0,0)" fill="blue"/>
   </g>
   <g id="cell142">
  <circle cx="233.738" cy="310.525" r="8.41271" stroke-width="0.5" stroke="rgb(0,0,0)" fill="lightblue"/>
  <circle cx="233.738" cy="310.525" r="5.05167" stroke-width="0.5" stroke="rgb(0,0,0)" fill="blue"/>
   </g>
   <g id="cell143">
  <circle cx="230.689" cy="329.807" r="8.41271" stroke-width="0.5" stroke="rgb(0,0,0)" fill="lightblue"/>
  <circle cx="230.689" cy="329.807" r="5.05167" stroke-width="0.5" stroke="rgb(0,0,0)" fill="blue"/>
   </g>
   <g id="cell243">
  <circle cx="304.939" cy="339.463" r="8.41271" stroke-width="0.5" stroke="rgb(0,0,0)" fill="lightblue"/>
  <circle cx="304.939" cy="339.463" r="5.05167" stroke-width="0.5" stroke="rgb(0,0,0)" fill="blue"/>
   </g>
   <g id="cell145">
  <circle cx="231.57" cy="363.702" r="8.41271" stroke-width="0.5" stroke="rgb(0,0,0)" fill="lightblue"/>
  <circle cx="231.57" cy="363.702" r="5.05167" stroke-width="0.5" stroke="rgb(0,0,0)" fill="blue"/>
   </g>
   <g id="cell236">
  <circle cx="304.659" cy="232.611" r="8.41271" stroke-width="0.5" stroke="rgb(0,0,0)" fill="lightblue"/>
  <circle cx="304.659" cy="232.611" r="5.05167" stroke-width="0.5" stroke="rgb(0,0,0)" fill="blue"/>
   </g>
   <g id="cell231">
  <circle cx="304.825" cy="150.131" r="8.41271" stroke-width="0.5" stroke="rgb(0,0,0)" fill="lightblue"/>
  <circle cx="304.825" cy="150.131" r="5.05167" stroke-width="0.5" stroke="rgb(0,0,0)" fill="blue"/>
   </g>
   <g id="cell206">
  <circle cx="274.95" cy="389.684" r="8.41271" stroke-width="0.5" stroke="rgb(0,0,0)" fill="lightblue"/>
  <circle cx="274.95" cy="389.684" r="5.05167" stroke-width="0.5" stroke="rgb(0,0,0)" fill="blue"/>
   </g>
   <g id="cell149">
  <circle cx="246.071" cy="118.457" r="8.41271" stroke-width="0.5" stroke="rgb(0,0,0)" fill="lightblue"/>
  <circle cx="246.071" cy="118.457" r="5.05167" stroke-width="0.5" stroke="rgb(0,0,0)" fill="blue"/>
   </g>
   <g id="cell150">
  <circle cx="245.816" cy="135.117" r="8.41271" stroke-width="0.5" stroke="rgb(0,0,0)" fill="lightblue"/>
  <circle cx="245.816" cy="135.117" r="5.05167" stroke-width="0.5" stroke="rgb(0,0,0)" fill="blue"/>
   </g>
   <g id="cell311">
  <circle cx="365.099" cy="361.95" r="8.41271" stroke-width="0.5" stroke="rgb(0,0,0)" fill="lightblue"/>
  <circle cx="365.099" cy="361.95" r="5.05167" stroke-width="0.5" stroke="rgb(0,0,0)" fill="blue"/>
   </g>
   <g id="cell152">
  <circle cx="245.529" cy="168.104" r="8.41271" stroke-width="0.5" stroke="rgb(0,0,0)" fill="lightblue"/>
  <circle cx="245.529" cy="168.104" r="5.05167" stroke-width="0.5" stroke="rgb(0,0,0)" fill="blue"/>
   </g>
   <g id="cell295">
  <circle cx="350.233" cy="336.918" r="8.41271" stroke-width="0.5" stroke="rgb(0,0,0)" fill="lightblue"/>
  <circle cx="350.233" cy="336.918" r="5.05167" stroke-width="0.5" stroke="rgb(0,0,0)" fill="blue"/>
   </g>
   <g id="cell154">
  <circle cx="247.505" cy="197.441" r="8.41271" stroke-width="0.5" stroke="rgb(0,0,0)" fill="lightblue"/>
  <circle cx="247.505" cy="197.441" r="5.05167" stroke-width="0.5" stroke="rgb(0,0,0)" fill="blue"/>
   </g>
   <g id="cell155">
  <circle cx="246.96" cy="214.1" r="8.41271" stroke-width="0.5" stroke="rgb(0,0,0)" fill="lightblue"/>
  <circle cx="246.96" cy="214.1" r="5.05167" stroke-width="0.5" stroke="rgb(0,0,0)" fill="blue"/>
   </g>
   <g id="cell156">
  <circle cx="246.524" cy="230.754" r="8.41271" stroke-width="0.5" stroke="rgb(0,0,0)" fill="lightblue"/>
  <circle cx="246.524" cy="230.754" r="5.05167" stroke-width="0.5" stroke="rgb(0,0,0)" fill="blue"/>
   </g>
   <g id="cell157">
  <circle cx="246.236" cy="247.431" r="8.41271" stroke-width="0.5" stroke="rgb(0,0,0)" fill="lightblue"/>
  <circle cx="246.236" cy="247.431" r="5.05167" stroke-width="0.5" stroke="rgb(0,0,0)" fill="blue"/>
   </g>
   <g id="cell158">
  <circle cx="246.228" cy="264.065" r="8.41271" stroke-width="0.5" stroke="rgb(0,0,0)" fill="lightblue"/>
  <circle cx="246.228" cy="264.065" r="5.05167" stroke-width="0.5" stroke="rgb(0,0,0)" fill="blue"/>
   </g>
   <g id="cell159">
  <circle cx="248.039" cy="280.599" r="8.41271" stroke-width="0.5" stroke="rgb(0,0,0)" fill="lightblue"/>
  <circle cx="248.039" cy="280.599" r="5.05167" stroke-width="0.5" stroke="rgb(0,0,0)" fill="blue"/>
   </g>
   <g id="cell160">
  <circle cx="242.232" cy="296.193" r="8.41271" stroke-width="0.5" stroke="rgb(0,0,0)" fill="lightblue"/>
  <circle cx="242.232" cy="296.193" r="5.05167" stroke-width="0.5" stroke="rgb(0,0,0)" fill="blue"/>
   </g>
   <g id="cell319">
  <circle cx="379.058" cy="287.292" r="8.41271" stroke-width="0.5" stroke="rgb(0,0,0)" fill="lightblue"/>
  <circle cx="379.058" cy="287.292" r="5.05167" stroke-width="0.5" stroke="rgb(0,0,0)" fill="blue"/>
   </g>
   <g id="cell162">
  <circle cx="245.553" cy="322.265" r="8.41271" stroke-width="0.5" stroke="rgb(0,0,0)" fill="lightblue"/>
  <circle cx="245.553" cy="322.265" r="5.05167" stroke-width="0.5" stroke="rgb(0,0,0)" fill="blue"/>
   </g>
   <g id="cell294">
  <circle cx="350.279" cy="320.28" r="8.41271" stroke-width="0.5" stroke="rgb(0,0,0)" fill="lightblue"/>
  <circle cx="350.279" cy="320.28" r="5.05167" stroke-width="0.5" stroke="rgb(0,0,0)" fill="blue"/>
   </g>
   <g id="cell282">
  <circle cx="349.177" cy="123.013" r="8.41271" stroke-width="0.5" stroke="rgb(0,0,0)" fill="lightblue"/>
  <circle cx="349.177" cy="123.013" r="5.05167" stroke-width="0.5" stroke="rgb(0,0,0)" fill="blue"/>
   </g>
   <g id="cell165">
  <circle cx="245.763" cy="372.463" r="8.41271" stroke-width="0.5" stroke="rgb(0,0,0)" fill="lightblue"/>
  <circle cx="245.763" cy="372.463" r="5.05167" stroke-width="0.5" stroke="rgb(0,0,0)" fill="blue"/>
   </g>
   <g id="cell250">
  <circle cx="319.22" cy="158.572" r="8.41271" stroke-width="0.5" stroke="rgb(0,0,0)" fill="lightblue"/>
  <circle cx="319.22" cy="158.572" r="5.05167" stroke-width="0.5" stroke="rgb(0,0,0)" fill="blue"/>
   </g>
   <g id="cell267">
  <circle cx="332.491" cy="148.383" r="8.41271" stroke-width="0.5" stroke="rgb(0,0,0)" fill="lightblue"/>
  <circle cx="332.491" cy="148.383" r="5.05167" stroke-width="0.5" stroke="rgb(0,0,0)" fill="blue"/>
   </g>
   <g id="cell248">
  <circle cx="319.647" cy="125.4" r="8.41271" stroke-width="0.5" stroke="rgb(0,0,0)" fill="lightblue"/>
  <circle cx="319.647" cy="125.4" r="5.05167" stroke-width="0.5" stroke="rgb(0,0,0)" fill="blue"/>
   </g>
   <g id="cell169">
  <circle cx="260.612" cy="110.328" r="8.41271" stroke-width="0.5" stroke="rgb(0,0,0)" fill="lightblue"/>
  <circle cx="260.612" cy="110.328" r="5.05167" stroke-width="0.5" stroke="rgb(0,0,0)" fill="blue"/>
   </g>
   <g id="cell170">
  <circle cx="260.402" cy="127.006" r="8.41271" stroke-width="0.5" stroke="rgb(0,0,0)" fill="lightblue"/>
  <circle cx="260.402" cy="127.006" r="5.05167" stroke-width="0.5" stroke="rgb(0,0,0)" fill="blue"/>
   </g>
   <g id="cell222">
  <circle cx="287.178" cy="317.199" r="8.41271" stroke-width="0.5" stroke="rgb(0,0,0)" fill="lightblue"/>
  <circle cx="287.178" cy="317.199" r="5.05167" stroke-width="0.5" stroke="rgb(0,0,0)" fill="blue"/>
   </g>
   <g id="cell172">
  <circle cx="260.073" cy="159.937" r="8.41271" stroke-width="0.5" stroke="rgb(0,0,0)" fill="lightblue"/>
  <circle cx="260.073" cy="159.937" r="5.05167" stroke-width="0.5" stroke="rgb(0,0,0)" fill="blue"/>
   </g>
   <g id="cell271">
  <circle cx="334.749" cy="214.493" r="1.25718" stroke-width="0.5" stroke="rgb(0,0,0)" fill="pink"/>
  <circle cx="334.749" cy="214.493" r="1.25148" stroke-width="0.5" stroke="rgb(0,0,0)" fill="purple"/>
   </g>
   <g id="cell322">
  <circle cx="379.112" cy="337.135" r="8.41271" stroke-width="0.5" stroke="rgb(0,0,0)" fill="lightblue"/>
  <circle cx="379.112" cy="337.135" r="5.05167" stroke-width="0.5" stroke="rgb(0,0,0)" fill="blue"/>
   </g>
   <g id="cell255">
  <circle cx="320.789" cy="236.866" r="8.41271" stroke-width="0.5" stroke="rgb(0,0,0)" fill="lightblue"/>
  <circle cx="320.789" cy="236.866" r="5.05167" stroke-width="0.5" stroke="rgb(0,0,0)" fill="blue"/>
   </g>
   <g id="cell176">
  <circle cx="261.21" cy="222.778" r="8.41271" stroke-width="0.5" stroke="rgb(0,0,0)" fill="lightblue"/>
  <circle cx="261.21" cy="222.778" r="5.05167" stroke-width="0.5" stroke="rgb(0,0,0)" fill="blue"/>
   </g>
   <g id="cell177">
  <circle cx="260.797" cy="239.399" r="8.41271" stroke-width="0.5" stroke="rgb(0,0,0)" fill="lightblue"/>
  <circle cx="260.797" cy="239.399" r="5.05167" stroke-width="0.5" stroke="rgb(0,0,0)" fill="blue"/>
   </g>
   <g id="cell178">
  <circle cx="260.811" cy="256.037" r="8.41271" stroke-width="0.5" stroke="rgb(0,0,0)" fill="lightblue"/>
  <circle cx="260.811" cy="256.037" r="5.05167" stroke-width="0.5" stroke="rgb(0,0,0)" fill="blue"/>
   </g>
   <g id="cell273">
  <circle cx="335.204" cy="245.257" r="8.41271" stroke-width="0.5" stroke="rgb(0,0,0)" fill="lightblue"/>
  <circle cx="335.204" cy="245.257" r="5.05167" stroke-width="0.5" stroke="rgb(0,0,0)" fill="blue"/>
   </g>
   <g id="cell211">
  <circle cx="290.476" cy="141.575" r="8.41271" stroke-width="0.5" stroke="rgb(0,0,0)" fill="lightblue"/>
  <circle cx="290.476" cy="141.575" r="5.05167" stroke-width="0.5" stroke="rgb(0,0,0)" fill="blue"/>
   </g>
   <g id="cell181">
  <circle cx="257.995" cy="301.688" r="8.41271" stroke-width="0.5" stroke="rgb(0,0,0)" fill="lightblue"/>
  <circle cx="257.995" cy="301.688" r="5.05167" stroke-width="0.5" stroke="rgb(0,0,0)" fill="blue"/>
   </g>
   <g id="cell302">
  <circle cx="364.363" cy="212.706" r="8.41271" stroke-width="0.5" stroke="rgb(0,0,0)" fill="lightblue"/>
  <circle cx="364.363" cy="212.706" r="5.05167" stroke-width="0.5" stroke="rgb(0,0,0)" fill="blue"/>
   </g>
   <g id="cell183">
  <circle cx="259.197" cy="331.831" r="8.41271" stroke-width="0.5" stroke="rgb(0,0,0)" fill="lightblue"/>
  <circle cx="259.197" cy="331.831" r="5.05167" stroke-width="0.5" stroke="rgb(0,0,0)" fill="blue"/>
   </g>
   <g id="cell184">
  <circle cx="261.25" cy="348.338" r="1.94916" stroke-width="0.5" stroke="rgb(0,0,0)" fill="pink"/>
  <circle cx="261.25" cy="348.338" r="1.88892" stroke-width="0.5" stroke="rgb(0,0,0)" fill="purple"/>
   </g>
   <g id="cell185">
  <circle cx="260.66" cy="364.952" r="8.41271" stroke-width="0.5" stroke="rgb(0,0,0)" fill="lightblue"/>
  <circle cx="260.66" cy="364.952" r="5.05167" stroke-width="0.5" stroke="rgb(0,0,0)" fill="blue"/>
   </g>
   <g id="cell186">
  <circle cx="260.32" cy="381.617" r="2.2507" stroke-width="0.5" stroke="rgb(0,0,0)" fill="pink"/>
  <circle cx="260.32" cy="381.617" r="2.14011" stroke-width="0.5" stroke="rgb(0,0,0)" fill="purple"/>
   </g>
   <g id="cell187">
  <circle cx="260.66" cy="398.267" r="8.41271" stroke-width="0.5" stroke="rgb(0,0,0)" fill="lightblue"/>
  <circle cx="260.66" cy="398.267" r="5.05167" stroke-width="0.5" stroke="rgb(0,0,0)" fill="blue"/>
   </g>
   <g id="cell188">
  <circle cx="275.289" cy="102.434" r="8.41271" stroke-width="0.5" stroke="rgb(0,0,0)" fill="lightblue"/>
  <circle cx="275.289" cy="102.434" r="5.05167" stroke-width="0.5" stroke="rgb(0,0,0)" fill="blue"/>
   </g>
   <g id="cell313">
  <circle cx="378.584" cy="188.187" r="8.41271" stroke-width="0.5" stroke="rgb(0,0,0)" fill="lightblue"/>
  <circle cx="378.584" cy="188.187" r="5.05167" stroke-width="0.5" stroke="rgb(0,0,0)" fill="blue"/>
   </g>
   <g id="cell190">
  <circle cx="276.084" cy="132.816" r="8.41271" stroke-width="0.5" stroke="rgb(0,0,0)" fill="lightblue"/>
  <circle cx="276.084" cy="132.816" r="5.05167" stroke-width="0.5" stroke="rgb(0,0,0)" fill="blue"/>
   </g>
   <g id="cell191">
  <circle cx="275.825" cy="149.475" r="8.41271" stroke-width="0.5" stroke="rgb(0,0,0)" fill="lightblue"/>
  <circle cx="275.825" cy="149.475" r="5.05167" stroke-width="0.5" stroke="rgb(0,0,0)" fill="blue"/>
   </g>
   <g id="cell192">
  <circle cx="275.562" cy="166.101" r="8.41271" stroke-width="0.5" stroke="rgb(0,0,0)" fill="lightblue"/>
  <circle cx="275.562" cy="166.101" r="5.05167" stroke-width="0.5" stroke="rgb(0,0,0)" fill="blue"/>
   </g>
   <g id="cell193">
  <circle cx="275.004" cy="182.74" r="8.41271" stroke-width="0.5" stroke="rgb(0,0,0)" fill="lightblue"/>
  <circle cx="275.004" cy="182.74" r="5.05167" stroke-width="0.5" stroke="rgb(0,0,0)" fill="blue"/>
   </g>
   <g id="cell194">
  <circle cx="275.42" cy="199.417" r="8.41271" stroke-width="0.5" stroke="rgb(0,0,0)" fill="lightblue"/>
  <circle cx="275.42" cy="199.417" r="5.05167" stroke-width="0.5" stroke="rgb(0,0,0)" fill="blue"/>
   </g>
   <g id="cell266">
  <circle cx="335.015" cy="131.862" r="8.41271" stroke-width="0.5" stroke="rgb(0,0,0)" fill="lightblue"/>
  <circle cx="335.015" cy="131.862" r="5.05167" stroke-width="0.5" stroke="rgb(0,0,0)" fill="blue"/>
   </g>
   <g id="cell196">
  <circle cx="275.753" cy="232.081" r="8.41271" stroke-width="0.5" stroke="rgb(0,0,0)" fill="lightblue"/>
  <circle cx="275.753" cy="232.081" r="5.05167" stroke-width="0.5" stroke="rgb(0,0,0)" fill="blue"/>
   </g>
   <g id="cell221">
  <circle cx="291.698" cy="301.157" r="8.41271" stroke-width="0.5" stroke="rgb(0,0,0)" fill="lightblue"/>
  <circle cx="291.698" cy="301.157" r="5.05167" stroke-width="0.5" stroke="rgb(0,0,0)" fill="blue"/>
   </g>
   <g id="cell198">
  <circle cx="275.139" cy="264.951" r="1.98741" stroke-width="0.5" stroke="rgb(0,0,0)" fill="pink"/>
  <circle cx="275.139" cy="264.951" r="1.92174" stroke-width="0.5" stroke="rgb(0,0,0)" fill="purple"/>
   </g>
   <g id="cell264">
  <circle cx="319.414" cy="380.387" r="8.41271" stroke-width="0.5" stroke="rgb(0,0,0)" fill="lightblue"/>
  <circle cx="319.414" cy="380.387" r="5.05167" stroke-width="0.5" stroke="rgb(0,0,0)" fill="blue"/>
   </g>
   <g id="cell200">
  <circle cx="275.594" cy="296.801" r="8.41271" stroke-width="0.5" stroke="rgb(0,0,0)" fill="lightblue"/>
  <circle cx="275.594" cy="296.801" r="5.05167" stroke-width="0.5" stroke="rgb(0,0,0)" fill="blue"/>
   </g>
   <g id="cell285">
  <circle cx="349.041" cy="172.949" r="8.41271" stroke-width="0.5" stroke="rgb(0,0,0)" fill="lightblue"/>
  <circle cx="349.041" cy="172.949" r="5.05167" stroke-width="0.5" stroke="rgb(0,0,0)" fill="blue"/>
   </g>
   <g id="cell238">
  <circle cx="305.551" cy="262.335" r="8.41271" stroke-width="0.5" stroke="rgb(0,0,0)" fill="lightblue"/>
  <circle cx="305.551" cy="262.335" r="5.05167" stroke-width="0.5" stroke="rgb(0,0,0)" fill="blue"/>
   </g>
   <g id="cell284">
  <circle cx="348.986" cy="156.284" r="8.41271" stroke-width="0.5" stroke="rgb(0,0,0)" fill="lightblue"/>
  <circle cx="348.986" cy="156.284" r="5.05167" stroke-width="0.5" stroke="rgb(0,0,0)" fill="blue"/>
   </g>
   <g id="cell204">
  <circle cx="275.4" cy="357.114" r="8.41271" stroke-width="0.5" stroke="rgb(0,0,0)" fill="lightblue"/>
  <circle cx="275.4" cy="357.114" r="5.05167" stroke-width="0.5" stroke="rgb(0,0,0)" fill="blue"/>
   </g>
   <g id="cell298">
  <circle cx="363.791" cy="148.577" r="8.41271" stroke-width="0.5" stroke="rgb(0,0,0)" fill="lightblue"/>
  <circle cx="363.791" cy="148.577" r="5.05167" stroke-width="0.5" stroke="rgb(0,0,0)" fill="blue"/>
   </g>
  </g>
 </g>
  <rect x="287.5" y="517.5" width="200" height="5" stroke-width="1" stroke="rgb(255,255,255)" fill="rgb(0,0,0)"/>
  <text x="290.625" y="514.375"
   font-family="Arial" font-size="12.5" fill="black" >
   200 &#956;m
  </text>
  <text x="12.5" y="522.5"
   font-family="Arial" font-size="9.375" fill="black" >
   0 days, 0 hours, 1 minutes, and 6.5782 seconds
  </text>
  <rect x="0" y="35" width="500" height="500" stroke-width="1" stroke="rgb(0,0,0)" fill="none"/>
</svg>
