<?xml version="1.0" encoding="UTF-8" standalone="no"?>
<!-- Created with PhysiCell (http://PhysiCell.MathCancer.org/) -->
<svg 
 xmlns:dc="http://purl.org/dc/elements/1.1/" 
 xmlns:cc="http://creativecommons.org/ns#" 
 xmlns:rdf="http://www.w3.org/1999/02/22-rdf-syntax-ns#" 
 xmlns:svg="http://www.w3.org/2000/svg" 
 xmlns="http://www.w3.org/2000/svg" 
 version="1.1" 
 width="500" 
 height="535" 
 id="svg2">
  <rect x="0" y="0" width="500" height="535" stroke-width="1" stroke="white" fill="white"/>
  <text x="6.25" y="15"
   font-family="Arial" font-size="12.5" fill="black" >
   Current time: 4 days, 0 hours, and 0.00 minutes, z = 0.00 &#956;m
  </text>
  <text x="6.25" y="28.75"
   font-family="Arial" font-size="11.875" fill="black" >
   141 agents
  </text>
 <g id="tissue" 
    transform="translate(0,535) scale(1,-1)">
  <g id="ECM">
  </g>
  <g id="cells">
   <g id="cell0">
  <circle cx="111.387" cy="187.325" r="8.41271" stroke-width="0.5" stroke="rgb(0,0,0)" fill="lightblue"/>
  <circle cx="111.387" cy="187.325" r="5.05167" stroke-width="0.5" stroke="rgb(0,0,0)" fill="blue"/>
   </g>
   <g id="cell231">
  <circle cx="304.734" cy="150.001" r="8.41271" stroke-width="0.5" stroke="rgb(0,0,0)" fill="lightblue"/>
  <circle cx="304.734" cy="150.001" r="5.05167" stroke-width="0.5" stroke="rgb(0,0,0)" fill="blue"/>
   </g>
   <g id="cell300">
  <circle cx="364.432" cy="179.316" r="8.41271" stroke-width="0.5" stroke="rgb(0,0,0)" fill="lightblue"/>
  <circle cx="364.432" cy="179.316" r="5.05167" stroke-width="0.5" stroke="rgb(0,0,0)" fill="blue"/>
   </g>
   <g id="cell292">
  <circle cx="349.997" cy="287.05" r="8.41271" stroke-width="0.5" stroke="rgb(0,0,0)" fill="lightblue"/>
  <circle cx="349.997" cy="287.05" r="5.05167" stroke-width="0.5" stroke="rgb(0,0,0)" fill="blue"/>
   </g>
   <g id="cell143">
  <circle cx="230.718" cy="329.554" r="8.41271" stroke-width="0.5" stroke="rgb(0,0,0)" fill="lightblue"/>
  <circle cx="230.718" cy="329.554" r="5.05167" stroke-width="0.5" stroke="rgb(0,0,0)" fill="blue"/>
   </g>
   <g id="cell227">
  <circle cx="289.378" cy="398.033" r="8.41271" stroke-width="0.5" stroke="rgb(0,0,0)" fill="lightblue"/>
  <circle cx="289.378" cy="398.033" r="5.05167" stroke-width="0.5" stroke="rgb(0,0,0)" fill="blue"/>
   </g>
   <g id="cell216">
  <circle cx="290.361" cy="223.982" r="8.41271" stroke-width="0.5" stroke="rgb(0,0,0)" fill="lightblue"/>
  <circle cx="290.361" cy="223.982" r="5.05167" stroke-width="0.5" stroke="rgb(0,0,0)" fill="blue"/>
   </g>
   <g id="cell290">
  <circle cx="349.381" cy="254.123" r="8.41271" stroke-width="0.5" stroke="rgb(0,0,0)" fill="lightblue"/>
  <circle cx="349.381" cy="254.123" r="5.05167" stroke-width="0.5" stroke="rgb(0,0,0)" fill="blue"/>
   </g>
   <g id="cell8">
  <circle cx="110.852" cy="318.652" r="8.41271" stroke-width="0.5" stroke="rgb(0,0,0)" fill="lightblue"/>
  <circle cx="110.852" cy="318.652" r="5.05167" stroke-width="0.5" stroke="rgb(0,0,0)" fill="blue"/>
   </g>
   <g id="cell196">
  <circle cx="275.609" cy="231.785" r="8.41271" stroke-width="0.5" stroke="rgb(0,0,0)" fill="lightblue"/>
  <circle cx="275.609" cy="231.785" r="5.05167" stroke-width="0.5" stroke="rgb(0,0,0)" fill="blue"/>
   </g>
   <g id="cell10">
  <circle cx="125.76" cy="178.881" r="8.41271" stroke-width="0.5" stroke="rgb(0,0,0)" fill="lightblue"/>
  <circle cx="125.76" cy="178.881" r="5.05167" stroke-width="0.5" stroke="rgb(0,0,0)" fill="blue"/>
   </g>
   <g id="cell311">
  <circle cx="365.101" cy="362.004" r="8.41271" stroke-width="0.5" stroke="rgb(0,0,0)" fill="lightblue"/>
  <circle cx="365.101" cy="362.004" r="5.05167" stroke-width="0.5" stroke="rgb(0,0,0)" fill="blue"/>
   </g>
   <g id="cell160">
  <circle cx="242.093" cy="296.173" r="8.41271" stroke-width="0.5" stroke="rgb(0,0,0)" fill="lightblue"/>
  <circle cx="242.093" cy="296.173" r="5.05167" stroke-width="0.5" stroke="rgb(0,0,0)" fill="blue"/>
   </g>
   <g id="cell13">
  <circle cx="126.534" cy="228.854" r="8.41271" stroke-width="0.5" stroke="rgb(0,0,0)" fill="lightblue"/>
  <circle cx="126.534" cy="228.854" r="5.05167" stroke-width="0.5" stroke="rgb(0,0,0)" fill="blue"/>
   </g>
   <g id="cell149">
  <circle cx="246.155" cy="118.482" r="8.41271" stroke-width="0.5" stroke="rgb(0,0,0)" fill="lightblue"/>
  <circle cx="246.155" cy="118.482" r="5.05167" stroke-width="0.5" stroke="rgb(0,0,0)" fill="blue"/>
   </g>
   <g id="cell15">
  <circle cx="126.549" cy="262.126" r="8.41271" stroke-width="0.5" stroke="rgb(0,0,0)" fill="lightblue"/>
  <circle cx="126.549" cy="262.126" r="5.05167" stroke-width="0.5" stroke="rgb(0,0,0)" fill="blue"/>
   </g>
   <g id="cell16">
  <circle cx="126.687" cy="278.795" r="8.41271" stroke-width="0.5" stroke="rgb(0,0,0)" fill="lightblue"/>
  <circle cx="126.687" cy="278.795" r="5.05167" stroke-width="0.5" stroke="rgb(0,0,0)" fill="blue"/>
   </g>
   <g id="cell275">
  <circle cx="335.665" cy="278.541" r="8.41271" stroke-width="0.5" stroke="rgb(0,0,0)" fill="lightblue"/>
  <circle cx="335.665" cy="278.541" r="5.05167" stroke-width="0.5" stroke="rgb(0,0,0)" fill="blue"/>
   </g>
   <g id="cell267">
  <circle cx="332.842" cy="148.386" r="8.41271" stroke-width="0.5" stroke="rgb(0,0,0)" fill="lightblue"/>
  <circle cx="332.842" cy="148.386" r="5.05167" stroke-width="0.5" stroke="rgb(0,0,0)" fill="blue"/>
   </g>
   <g id="cell19">
  <circle cx="124.855" cy="327.672" r="3.88479" stroke-width="0.5" stroke="rgb(0,0,0)" fill="pink"/>
  <circle cx="124.855" cy="327.672" r="3.21607" stroke-width="0.5" stroke="rgb(0,0,0)" fill="purple"/>
   </g>
   <g id="cell20">
  <circle cx="125.71" cy="344.271" r="8.41271" stroke-width="0.5" stroke="rgb(0,0,0)" fill="lightblue"/>
  <circle cx="125.71" cy="344.271" r="5.05167" stroke-width="0.5" stroke="rgb(0,0,0)" fill="blue"/>
   </g>
   <g id="cell21">
  <circle cx="141.603" cy="140.813" r="8.41271" stroke-width="0.5" stroke="rgb(0,0,0)" fill="lightblue"/>
  <circle cx="141.603" cy="140.813" r="5.05167" stroke-width="0.5" stroke="rgb(0,0,0)" fill="blue"/>
   </g>
   <g id="cell185">
  <circle cx="260.931" cy="364.797" r="6.653" stroke-width="0.5" stroke="rgb(0,0,0)" fill="pink"/>
  <circle cx="260.931" cy="364.797" r="4.336" stroke-width="0.5" stroke="rgb(0,0,0)" fill="purple"/>
   </g>
   <g id="cell23">
  <circle cx="141.96" cy="174.953" r="8.41271" stroke-width="0.5" stroke="rgb(0,0,0)" fill="lightblue"/>
  <circle cx="141.96" cy="174.953" r="5.05167" stroke-width="0.5" stroke="rgb(0,0,0)" fill="blue"/>
   </g>
   <g id="cell194">
  <circle cx="275.505" cy="199.517" r="8.41271" stroke-width="0.5" stroke="rgb(0,0,0)" fill="lightblue"/>
  <circle cx="275.505" cy="199.517" r="5.05167" stroke-width="0.5" stroke="rgb(0,0,0)" fill="blue"/>
   </g>
   <g id="cell25">
  <circle cx="141.805" cy="208.209" r="8.41271" stroke-width="0.5" stroke="rgb(0,0,0)" fill="lightblue"/>
  <circle cx="141.805" cy="208.209" r="5.05167" stroke-width="0.5" stroke="rgb(0,0,0)" fill="blue"/>
   </g>
   <g id="cell176">
  <circle cx="261.509" cy="222.861" r="8.41271" stroke-width="0.5" stroke="rgb(0,0,0)" fill="lightblue"/>
  <circle cx="261.509" cy="222.861" r="5.05167" stroke-width="0.5" stroke="rgb(0,0,0)" fill="blue"/>
   </g>
   <g id="cell264">
  <circle cx="319.414" cy="380.387" r="8.41271" stroke-width="0.5" stroke="rgb(0,0,0)" fill="lightblue"/>
  <circle cx="319.414" cy="380.387" r="5.05167" stroke-width="0.5" stroke="rgb(0,0,0)" fill="blue"/>
   </g>
   <g id="cell282">
  <circle cx="348.981" cy="123.065" r="8.41271" stroke-width="0.5" stroke="rgb(0,0,0)" fill="lightblue"/>
  <circle cx="348.981" cy="123.065" r="5.05167" stroke-width="0.5" stroke="rgb(0,0,0)" fill="blue"/>
   </g>
   <g id="cell269">
  <circle cx="334.634" cy="181.308" r="8.41271" stroke-width="0.5" stroke="rgb(0,0,0)" fill="lightblue"/>
  <circle cx="334.634" cy="181.308" r="5.05167" stroke-width="0.5" stroke="rgb(0,0,0)" fill="blue"/>
   </g>
   <g id="cell159">
  <circle cx="248.044" cy="280.626" r="1.53364" stroke-width="0.5" stroke="rgb(0,0,0)" fill="pink"/>
  <circle cx="248.044" cy="280.626" r="1.51535" stroke-width="0.5" stroke="rgb(0,0,0)" fill="purple"/>
   </g>
   <g id="cell224">
  <circle cx="290.366" cy="348.928" r="8.41271" stroke-width="0.5" stroke="rgb(0,0,0)" fill="lightblue"/>
  <circle cx="290.366" cy="348.928" r="5.05167" stroke-width="0.5" stroke="rgb(0,0,0)" fill="blue"/>
   </g>
   <g id="cell317">
  <circle cx="378.804" cy="254.168" r="8.41271" stroke-width="0.5" stroke="rgb(0,0,0)" fill="lightblue"/>
  <circle cx="378.804" cy="254.168" r="5.05167" stroke-width="0.5" stroke="rgb(0,0,0)" fill="blue"/>
   </g>
   <g id="cell33">
  <circle cx="141.048" cy="331.529" r="8.41271" stroke-width="0.5" stroke="rgb(0,0,0)" fill="lightblue"/>
  <circle cx="141.048" cy="331.529" r="5.05167" stroke-width="0.5" stroke="rgb(0,0,0)" fill="blue"/>
   </g>
   <g id="cell239">
  <circle cx="305.18" cy="279.246" r="8.41271" stroke-width="0.5" stroke="rgb(0,0,0)" fill="lightblue"/>
  <circle cx="305.18" cy="279.246" r="5.05167" stroke-width="0.5" stroke="rgb(0,0,0)" fill="blue"/>
   </g>
   <g id="cell313">
  <circle cx="378.563" cy="188.157" r="8.41271" stroke-width="0.5" stroke="rgb(0,0,0)" fill="lightblue"/>
  <circle cx="378.563" cy="188.157" r="5.05167" stroke-width="0.5" stroke="rgb(0,0,0)" fill="blue"/>
   </g>
   <g id="cell36">
  <circle cx="156.54" cy="148.212" r="8.41271" stroke-width="0.5" stroke="rgb(0,0,0)" fill="lightblue"/>
  <circle cx="156.54" cy="148.212" r="5.05167" stroke-width="0.5" stroke="rgb(0,0,0)" fill="blue"/>
   </g>
   <g id="cell221">
  <circle cx="291.58" cy="301.151" r="8.41271" stroke-width="0.5" stroke="rgb(0,0,0)" fill="lightblue"/>
  <circle cx="291.58" cy="301.151" r="5.05167" stroke-width="0.5" stroke="rgb(0,0,0)" fill="blue"/>
   </g>
   <g id="cell236">
  <circle cx="304.515" cy="232.825" r="8.41271" stroke-width="0.5" stroke="rgb(0,0,0)" fill="lightblue"/>
  <circle cx="304.515" cy="232.825" r="5.05167" stroke-width="0.5" stroke="rgb(0,0,0)" fill="blue"/>
   </g>
   <g id="cell298">
  <circle cx="363.629" cy="148.732" r="8.41271" stroke-width="0.5" stroke="rgb(0,0,0)" fill="lightblue"/>
  <circle cx="363.629" cy="148.732" r="5.05167" stroke-width="0.5" stroke="rgb(0,0,0)" fill="blue"/>
   </g>
   <g id="cell285">
  <circle cx="349.039" cy="172.92" r="8.41271" stroke-width="0.5" stroke="rgb(0,0,0)" fill="lightblue"/>
  <circle cx="349.039" cy="172.92" r="5.05167" stroke-width="0.5" stroke="rgb(0,0,0)" fill="blue"/>
   </g>
   <g id="cell41">
  <circle cx="156.83" cy="230.371" r="8.41271" stroke-width="0.5" stroke="rgb(0,0,0)" fill="lightblue"/>
  <circle cx="156.83" cy="230.371" r="5.05167" stroke-width="0.5" stroke="rgb(0,0,0)" fill="blue"/>
   </g>
   <g id="cell42">
  <circle cx="156.259" cy="247.033" r="8.41271" stroke-width="0.5" stroke="rgb(0,0,0)" fill="lightblue"/>
  <circle cx="156.259" cy="247.033" r="5.05167" stroke-width="0.5" stroke="rgb(0,0,0)" fill="blue"/>
   </g>
   <g id="cell43">
  <circle cx="155.689" cy="263.688" r="8.41271" stroke-width="0.5" stroke="rgb(0,0,0)" fill="lightblue"/>
  <circle cx="155.689" cy="263.688" r="5.05167" stroke-width="0.5" stroke="rgb(0,0,0)" fill="blue"/>
   </g>
   <g id="cell177">
  <circle cx="260.811" cy="239.5" r="8.41271" stroke-width="0.5" stroke="rgb(0,0,0)" fill="lightblue"/>
  <circle cx="260.811" cy="239.5" r="5.05167" stroke-width="0.5" stroke="rgb(0,0,0)" fill="blue"/>
   </g>
   <g id="cell215">
  <circle cx="290.235" cy="207.314" r="8.41271" stroke-width="0.5" stroke="rgb(0,0,0)" fill="lightblue"/>
  <circle cx="290.235" cy="207.314" r="5.05167" stroke-width="0.5" stroke="rgb(0,0,0)" fill="blue"/>
   </g>
   <g id="cell327">
  <circle cx="393.331" cy="262.377" r="8.41271" stroke-width="0.5" stroke="rgb(0,0,0)" fill="lightblue"/>
  <circle cx="393.331" cy="262.377" r="5.05167" stroke-width="0.5" stroke="rgb(0,0,0)" fill="blue"/>
   </g>
   <g id="cell253">
  <circle cx="319.437" cy="208.005" r="8.41271" stroke-width="0.5" stroke="rgb(0,0,0)" fill="lightblue"/>
  <circle cx="319.437" cy="208.005" r="5.05167" stroke-width="0.5" stroke="rgb(0,0,0)" fill="blue"/>
   </g>
   <g id="cell48">
  <circle cx="156.363" cy="338.123" r="8.41271" stroke-width="0.5" stroke="rgb(0,0,0)" fill="lightblue"/>
  <circle cx="156.363" cy="338.123" r="5.05167" stroke-width="0.5" stroke="rgb(0,0,0)" fill="blue"/>
   </g>
   <g id="cell49">
  <circle cx="157.088" cy="354.734" r="4.12476" stroke-width="0.5" stroke="rgb(0,0,0)" fill="pink"/>
  <circle cx="157.088" cy="354.734" r="3.33946" stroke-width="0.5" stroke="rgb(0,0,0)" fill="purple"/>
   </g>
   <g id="cell169">
  <circle cx="260.734" cy="110.405" r="8.41271" stroke-width="0.5" stroke="rgb(0,0,0)" fill="lightblue"/>
  <circle cx="260.734" cy="110.405" r="5.05167" stroke-width="0.5" stroke="rgb(0,0,0)" fill="blue"/>
   </g>
   <g id="cell156">
  <circle cx="246.715" cy="230.57" r="8.41271" stroke-width="0.5" stroke="rgb(0,0,0)" fill="lightblue"/>
  <circle cx="246.715" cy="230.57" r="5.05167" stroke-width="0.5" stroke="rgb(0,0,0)" fill="blue"/>
   </g>
   <g id="cell248">
  <circle cx="319.625" cy="125.404" r="8.41271" stroke-width="0.5" stroke="rgb(0,0,0)" fill="lightblue"/>
  <circle cx="319.625" cy="125.404" r="5.05167" stroke-width="0.5" stroke="rgb(0,0,0)" fill="blue"/>
   </g>
   <g id="cell53">
  <circle cx="170.635" cy="139.312" r="8.41271" stroke-width="0.5" stroke="rgb(0,0,0)" fill="lightblue"/>
  <circle cx="170.635" cy="139.312" r="5.05167" stroke-width="0.5" stroke="rgb(0,0,0)" fill="blue"/>
   </g>
   <g id="cell302">
  <circle cx="364.458" cy="212.613" r="8.41271" stroke-width="0.5" stroke="rgb(0,0,0)" fill="lightblue"/>
  <circle cx="364.458" cy="212.613" r="5.05167" stroke-width="0.5" stroke="rgb(0,0,0)" fill="blue"/>
   </g>
   <g id="cell145">
  <circle cx="231.639" cy="363.749" r="8.41271" stroke-width="0.5" stroke="rgb(0,0,0)" fill="lightblue"/>
  <circle cx="231.639" cy="363.749" r="5.05167" stroke-width="0.5" stroke="rgb(0,0,0)" fill="blue"/>
   </g>
   <g id="cell56">
  <circle cx="172.046" cy="189.325" r="8.41271" stroke-width="0.5" stroke="rgb(0,0,0)" fill="lightblue"/>
  <circle cx="172.046" cy="189.325" r="5.05167" stroke-width="0.5" stroke="rgb(0,0,0)" fill="blue"/>
   </g>
   <g id="cell57">
  <circle cx="172.411" cy="205.987" r="8.41271" stroke-width="0.5" stroke="rgb(0,0,0)" fill="lightblue"/>
  <circle cx="172.411" cy="205.987" r="5.05167" stroke-width="0.5" stroke="rgb(0,0,0)" fill="blue"/>
   </g>
   <g id="cell58">
  <circle cx="171.574" cy="222.616" r="1.25718" stroke-width="0.5" stroke="rgb(0,0,0)" fill="pink"/>
  <circle cx="171.574" cy="222.616" r="1.25148" stroke-width="0.5" stroke="rgb(0,0,0)" fill="purple"/>
   </g>
   <g id="cell59">
  <circle cx="170.966" cy="239.194" r="8.41271" stroke-width="0.5" stroke="rgb(0,0,0)" fill="lightblue"/>
  <circle cx="170.966" cy="239.194" r="5.05167" stroke-width="0.5" stroke="rgb(0,0,0)" fill="blue"/>
   </g>
   <g id="cell60">
  <circle cx="170.415" cy="255.848" r="8.41271" stroke-width="0.5" stroke="rgb(0,0,0)" fill="lightblue"/>
  <circle cx="170.415" cy="255.848" r="5.05167" stroke-width="0.5" stroke="rgb(0,0,0)" fill="blue"/>
   </g>
   <g id="cell288">
  <circle cx="350.003" cy="220.864" r="8.41271" stroke-width="0.5" stroke="rgb(0,0,0)" fill="lightblue"/>
  <circle cx="350.003" cy="220.864" r="5.05167" stroke-width="0.5" stroke="rgb(0,0,0)" fill="blue"/>
   </g>
   <g id="cell243">
  <circle cx="304.31" cy="339.691" r="8.41271" stroke-width="0.5" stroke="rgb(0,0,0)" fill="lightblue"/>
  <circle cx="304.31" cy="339.691" r="5.05167" stroke-width="0.5" stroke="rgb(0,0,0)" fill="blue"/>
   </g>
   <g id="cell63">
  <circle cx="170.83" cy="300.259" r="8.41271" stroke-width="0.5" stroke="rgb(0,0,0)" fill="lightblue"/>
  <circle cx="170.83" cy="300.259" r="5.05167" stroke-width="0.5" stroke="rgb(0,0,0)" fill="blue"/>
   </g>
   <g id="cell64">
  <circle cx="171.533" cy="316.913" r="8.41271" stroke-width="0.5" stroke="rgb(0,0,0)" fill="lightblue"/>
  <circle cx="171.533" cy="316.913" r="5.05167" stroke-width="0.5" stroke="rgb(0,0,0)" fill="blue"/>
   </g>
   <g id="cell192">
  <circle cx="275.646" cy="166.212" r="8.41271" stroke-width="0.5" stroke="rgb(0,0,0)" fill="lightblue"/>
  <circle cx="275.646" cy="166.212" r="5.05167" stroke-width="0.5" stroke="rgb(0,0,0)" fill="blue"/>
   </g>
   <g id="cell274">
  <circle cx="334.622" cy="261.911" r="8.41271" stroke-width="0.5" stroke="rgb(0,0,0)" fill="lightblue"/>
  <circle cx="334.622" cy="261.911" r="5.05167" stroke-width="0.5" stroke="rgb(0,0,0)" fill="blue"/>
   </g>
   <g id="cell320">
  <circle cx="379.349" cy="303.913" r="8.41271" stroke-width="0.5" stroke="rgb(0,0,0)" fill="lightblue"/>
  <circle cx="379.349" cy="303.913" r="5.05167" stroke-width="0.5" stroke="rgb(0,0,0)" fill="blue"/>
   </g>
   <g id="cell258">
  <circle cx="320.579" cy="285.625" r="8.41271" stroke-width="0.5" stroke="rgb(0,0,0)" fill="lightblue"/>
  <circle cx="320.579" cy="285.625" r="5.05167" stroke-width="0.5" stroke="rgb(0,0,0)" fill="blue"/>
   </g>
   <g id="cell209">
  <circle cx="290.882" cy="108.216" r="8.41271" stroke-width="0.5" stroke="rgb(0,0,0)" fill="lightblue"/>
  <circle cx="290.882" cy="108.216" r="5.05167" stroke-width="0.5" stroke="rgb(0,0,0)" fill="blue"/>
   </g>
   <g id="cell70">
  <circle cx="186.878" cy="124.889" r="8.41271" stroke-width="0.5" stroke="rgb(0,0,0)" fill="lightblue"/>
  <circle cx="186.878" cy="124.889" r="5.05167" stroke-width="0.5" stroke="rgb(0,0,0)" fill="blue"/>
   </g>
   <g id="cell321">
  <circle cx="379.314" cy="320.583" r="8.41271" stroke-width="0.5" stroke="rgb(0,0,0)" fill="lightblue"/>
  <circle cx="379.314" cy="320.583" r="5.05167" stroke-width="0.5" stroke="rgb(0,0,0)" fill="blue"/>
   </g>
   <g id="cell158">
  <circle cx="246.007" cy="264.111" r="8.41271" stroke-width="0.5" stroke="rgb(0,0,0)" fill="lightblue"/>
  <circle cx="246.007" cy="264.111" r="5.05167" stroke-width="0.5" stroke="rgb(0,0,0)" fill="blue"/>
   </g>
   <g id="cell73">
  <circle cx="185.875" cy="164.008" r="8.41271" stroke-width="0.5" stroke="rgb(0,0,0)" fill="lightblue"/>
  <circle cx="185.875" cy="164.008" r="5.05167" stroke-width="0.5" stroke="rgb(0,0,0)" fill="blue"/>
   </g>
   <g id="cell74">
  <circle cx="186.291" cy="180.673" r="8.41271" stroke-width="0.5" stroke="rgb(0,0,0)" fill="lightblue"/>
  <circle cx="186.291" cy="180.673" r="5.05167" stroke-width="0.5" stroke="rgb(0,0,0)" fill="blue"/>
   </g>
   <g id="cell75">
  <circle cx="186.668" cy="197.342" r="8.41271" stroke-width="0.5" stroke="rgb(0,0,0)" fill="lightblue"/>
  <circle cx="186.668" cy="197.342" r="5.05167" stroke-width="0.5" stroke="rgb(0,0,0)" fill="blue"/>
   </g>
   <g id="cell232">
  <circle cx="304.529" cy="166.669" r="8.41271" stroke-width="0.5" stroke="rgb(0,0,0)" fill="lightblue"/>
  <circle cx="304.529" cy="166.669" r="5.05167" stroke-width="0.5" stroke="rgb(0,0,0)" fill="blue"/>
   </g>
   <g id="cell277">
  <circle cx="335.768" cy="312.232" r="8.41271" stroke-width="0.5" stroke="rgb(0,0,0)" fill="lightblue"/>
  <circle cx="335.768" cy="312.232" r="5.05167" stroke-width="0.5" stroke="rgb(0,0,0)" fill="blue"/>
   </g>
   <g id="cell78">
  <circle cx="186.07" cy="246.224" r="8.41271" stroke-width="0.5" stroke="rgb(0,0,0)" fill="lightblue"/>
  <circle cx="186.07" cy="246.224" r="5.05167" stroke-width="0.5" stroke="rgb(0,0,0)" fill="blue"/>
   </g>
   <g id="cell79">
  <circle cx="185.529" cy="262.877" r="8.41271" stroke-width="0.5" stroke="rgb(0,0,0)" fill="lightblue"/>
  <circle cx="185.529" cy="262.877" r="5.05167" stroke-width="0.5" stroke="rgb(0,0,0)" fill="blue"/>
   </g>
   <g id="cell154">
  <circle cx="247.436" cy="197.519" r="8.41271" stroke-width="0.5" stroke="rgb(0,0,0)" fill="lightblue"/>
  <circle cx="247.436" cy="197.519" r="5.05167" stroke-width="0.5" stroke="rgb(0,0,0)" fill="blue"/>
   </g>
   <g id="cell303">
  <circle cx="364.414" cy="229.309" r="8.41271" stroke-width="0.5" stroke="rgb(0,0,0)" fill="lightblue"/>
  <circle cx="364.414" cy="229.309" r="5.05167" stroke-width="0.5" stroke="rgb(0,0,0)" fill="blue"/>
   </g>
   <g id="cell82">
  <circle cx="185.606" cy="307.977" r="8.41271" stroke-width="0.5" stroke="rgb(0,0,0)" fill="lightblue"/>
  <circle cx="185.606" cy="307.977" r="5.05167" stroke-width="0.5" stroke="rgb(0,0,0)" fill="blue"/>
   </g>
   <g id="cell183">
  <circle cx="259.228" cy="331.853" r="2.71639" stroke-width="0.5" stroke="rgb(0,0,0)" fill="pink"/>
  <circle cx="259.228" cy="331.853" r="2.49412" stroke-width="0.5" stroke="rgb(0,0,0)" fill="purple"/>
   </g>
   <g id="cell304">
  <circle cx="364.204" cy="246.049" r="8.41271" stroke-width="0.5" stroke="rgb(0,0,0)" fill="lightblue"/>
  <circle cx="364.204" cy="246.049" r="5.05167" stroke-width="0.5" stroke="rgb(0,0,0)" fill="blue"/>
   </g>
   <g id="cell85">
  <circle cx="187.371" cy="357.311" r="8.41271" stroke-width="0.5" stroke="rgb(0,0,0)" fill="lightblue"/>
  <circle cx="187.371" cy="357.311" r="5.05167" stroke-width="0.5" stroke="rgb(0,0,0)" fill="blue"/>
   </g>
   <g id="cell86">
  <circle cx="187.713" cy="373.977" r="8.41271" stroke-width="0.5" stroke="rgb(0,0,0)" fill="lightblue"/>
  <circle cx="187.713" cy="373.977" r="5.05167" stroke-width="0.5" stroke="rgb(0,0,0)" fill="blue"/>
   </g>
   <g id="cell87">
  <circle cx="187.525" cy="390.645" r="8.41271" stroke-width="0.5" stroke="rgb(0,0,0)" fill="lightblue"/>
  <circle cx="187.525" cy="390.645" r="5.05167" stroke-width="0.5" stroke="rgb(0,0,0)" fill="blue"/>
   </g>
   <g id="cell204">
  <circle cx="275.688" cy="356.952" r="8.41271" stroke-width="0.5" stroke="rgb(0,0,0)" fill="lightblue"/>
  <circle cx="275.688" cy="356.952" r="5.05167" stroke-width="0.5" stroke="rgb(0,0,0)" fill="blue"/>
   </g>
   <g id="cell89">
  <circle cx="200.356" cy="115.05" r="8.41271" stroke-width="0.5" stroke="rgb(0,0,0)" fill="lightblue"/>
  <circle cx="200.356" cy="115.05" r="5.05167" stroke-width="0.5" stroke="rgb(0,0,0)" fill="blue"/>
   </g>
   <g id="cell315">
  <circle cx="378.86" cy="220.973" r="8.41271" stroke-width="0.5" stroke="rgb(0,0,0)" fill="lightblue"/>
  <circle cx="378.86" cy="220.973" r="5.05167" stroke-width="0.5" stroke="rgb(0,0,0)" fill="blue"/>
   </g>
   <g id="cell219">
  <circle cx="291.03" cy="270.434" r="8.41271" stroke-width="0.5" stroke="rgb(0,0,0)" fill="lightblue"/>
  <circle cx="291.03" cy="270.434" r="5.05167" stroke-width="0.5" stroke="rgb(0,0,0)" fill="blue"/>
   </g>
   <g id="cell283">
  <circle cx="349.592" cy="139.729" r="8.41271" stroke-width="0.5" stroke="rgb(0,0,0)" fill="lightblue"/>
  <circle cx="349.592" cy="139.729" r="5.05167" stroke-width="0.5" stroke="rgb(0,0,0)" fill="blue"/>
   </g>
   <g id="cell325">
  <circle cx="393.314" cy="229.263" r="8.41271" stroke-width="0.5" stroke="rgb(0,0,0)" fill="lightblue"/>
  <circle cx="393.314" cy="229.263" r="5.05167" stroke-width="0.5" stroke="rgb(0,0,0)" fill="blue"/>
   </g>
   <g id="cell181">
  <circle cx="257.883" cy="301.52" r="8.41271" stroke-width="0.5" stroke="rgb(0,0,0)" fill="lightblue"/>
  <circle cx="257.883" cy="301.52" r="5.05167" stroke-width="0.5" stroke="rgb(0,0,0)" fill="blue"/>
   </g>
   <g id="cell95">
  <circle cx="201.141" cy="205.638" r="8.41271" stroke-width="0.5" stroke="rgb(0,0,0)" fill="lightblue"/>
  <circle cx="201.141" cy="205.638" r="5.05167" stroke-width="0.5" stroke="rgb(0,0,0)" fill="blue"/>
   </g>
   <g id="cell261">
  <circle cx="318.425" cy="330.773" r="8.41271" stroke-width="0.5" stroke="rgb(0,0,0)" fill="lightblue"/>
  <circle cx="318.425" cy="330.773" r="5.05167" stroke-width="0.5" stroke="rgb(0,0,0)" fill="blue"/>
   </g>
   <g id="cell97">
  <circle cx="201.019" cy="238.827" r="8.41271" stroke-width="0.5" stroke="rgb(0,0,0)" fill="lightblue"/>
  <circle cx="201.019" cy="238.827" r="5.05167" stroke-width="0.5" stroke="rgb(0,0,0)" fill="blue"/>
   </g>
   <g id="cell289">
  <circle cx="349.914" cy="237.498" r="8.41271" stroke-width="0.5" stroke="rgb(0,0,0)" fill="lightblue"/>
  <circle cx="349.914" cy="237.498" r="5.05167" stroke-width="0.5" stroke="rgb(0,0,0)" fill="blue"/>
   </g>
   <g id="cell150">
  <circle cx="245.844" cy="135.113" r="1.40347" stroke-width="0.5" stroke="rgb(0,0,0)" fill="pink"/>
  <circle cx="245.844" cy="135.113" r="1.3924" stroke-width="0.5" stroke="rgb(0,0,0)" fill="purple"/>
   </g>
   <g id="cell100">
  <circle cx="201.633" cy="285.855" r="8.41271" stroke-width="0.5" stroke="rgb(0,0,0)" fill="lightblue"/>
  <circle cx="201.633" cy="285.855" r="5.05167" stroke-width="0.5" stroke="rgb(0,0,0)" fill="blue"/>
   </g>
   <g id="cell101">
  <circle cx="201.363" cy="302.527" r="8.41271" stroke-width="0.5" stroke="rgb(0,0,0)" fill="lightblue"/>
  <circle cx="201.363" cy="302.527" r="5.05167" stroke-width="0.5" stroke="rgb(0,0,0)" fill="blue"/>
   </g>
   <g id="cell306">
  <circle cx="364.611" cy="279.03" r="8.41271" stroke-width="0.5" stroke="rgb(0,0,0)" fill="lightblue"/>
  <circle cx="364.611" cy="279.03" r="5.05167" stroke-width="0.5" stroke="rgb(0,0,0)" fill="blue"/>
   </g>
   <g id="cell165">
  <circle cx="246.004" cy="372.223" r="8.41271" stroke-width="0.5" stroke="rgb(0,0,0)" fill="lightblue"/>
  <circle cx="246.004" cy="372.223" r="5.05167" stroke-width="0.5" stroke="rgb(0,0,0)" fill="blue"/>
   </g>
   <g id="cell104">
  <circle cx="201.735" cy="348.853" r="8.41271" stroke-width="0.5" stroke="rgb(0,0,0)" fill="lightblue"/>
  <circle cx="201.735" cy="348.853" r="5.05167" stroke-width="0.5" stroke="rgb(0,0,0)" fill="blue"/>
   </g>
   <g id="cell244">
  <circle cx="305.309" cy="356.323" r="8.41271" stroke-width="0.5" stroke="rgb(0,0,0)" fill="lightblue"/>
  <circle cx="305.309" cy="356.323" r="5.05167" stroke-width="0.5" stroke="rgb(0,0,0)" fill="blue"/>
   </g>
   <g id="cell293">
  <circle cx="350.092" cy="303.728" r="8.41271" stroke-width="0.5" stroke="rgb(0,0,0)" fill="lightblue"/>
  <circle cx="350.092" cy="303.728" r="5.05167" stroke-width="0.5" stroke="rgb(0,0,0)" fill="blue"/>
   </g>
   <g id="cell310">
  <circle cx="364.526" cy="345.343" r="8.41271" stroke-width="0.5" stroke="rgb(0,0,0)" fill="lightblue"/>
  <circle cx="364.526" cy="345.343" r="5.05167" stroke-width="0.5" stroke="rgb(0,0,0)" fill="blue"/>
   </g>
   <g id="cell108">
  <circle cx="215.215" cy="104.77" r="8.41271" stroke-width="0.5" stroke="rgb(0,0,0)" fill="lightblue"/>
  <circle cx="215.215" cy="104.77" r="5.05167" stroke-width="0.5" stroke="rgb(0,0,0)" fill="blue"/>
   </g>
   <g id="cell109">
  <circle cx="215.751" cy="121.421" r="8.41271" stroke-width="0.5" stroke="rgb(0,0,0)" fill="lightblue"/>
  <circle cx="215.751" cy="121.421" r="5.05167" stroke-width="0.5" stroke="rgb(0,0,0)" fill="blue"/>
   </g>
   <g id="cell301">
  <circle cx="363.875" cy="195.943" r="1.87682" stroke-width="0.5" stroke="rgb(0,0,0)" fill="pink"/>
  <circle cx="363.875" cy="195.943" r="1.82611" stroke-width="0.5" stroke="rgb(0,0,0)" fill="purple"/>
   </g>
   <g id="cell111">
  <circle cx="216.926" cy="151.69" r="8.41271" stroke-width="0.5" stroke="rgb(0,0,0)" fill="lightblue"/>
  <circle cx="216.926" cy="151.69" r="5.05167" stroke-width="0.5" stroke="rgb(0,0,0)" fill="blue"/>
   </g>
   <g id="cell112">
  <circle cx="215.866" cy="168.325" r="8.41271" stroke-width="0.5" stroke="rgb(0,0,0)" fill="lightblue"/>
  <circle cx="215.866" cy="168.325" r="5.05167" stroke-width="0.5" stroke="rgb(0,0,0)" fill="blue"/>
   </g>
   <g id="cell294">
  <circle cx="350.287" cy="320.358" r="6.43656" stroke-width="0.5" stroke="rgb(0,0,0)" fill="pink"/>
  <circle cx="350.287" cy="320.358" r="4.26259" stroke-width="0.5" stroke="rgb(0,0,0)" fill="purple"/>
   </g>
   <g id="cell206">
  <circle cx="274.95" cy="389.685" r="8.41271" stroke-width="0.5" stroke="rgb(0,0,0)" fill="lightblue"/>
  <circle cx="274.95" cy="389.685" r="5.05167" stroke-width="0.5" stroke="rgb(0,0,0)" fill="blue"/>
   </g>
   <g id="cell115">
  <circle cx="216.507" cy="217.005" r="8.41271" stroke-width="0.5" stroke="rgb(0,0,0)" fill="lightblue"/>
  <circle cx="216.507" cy="217.005" r="5.05167" stroke-width="0.5" stroke="rgb(0,0,0)" fill="blue"/>
   </g>
   <g id="cell193">
  <circle cx="274.893" cy="182.862" r="8.41271" stroke-width="0.5" stroke="rgb(0,0,0)" fill="lightblue"/>
  <circle cx="274.893" cy="182.862" r="5.05167" stroke-width="0.5" stroke="rgb(0,0,0)" fill="blue"/>
   </g>
   <g id="cell233">
  <circle cx="304.569" cy="183.312" r="2.78603" stroke-width="0.5" stroke="rgb(0,0,0)" fill="pink"/>
  <circle cx="304.569" cy="183.312" r="2.54358" stroke-width="0.5" stroke="rgb(0,0,0)" fill="purple"/>
   </g>
   <g id="cell187">
  <circle cx="260.66" cy="398.267" r="8.41271" stroke-width="0.5" stroke="rgb(0,0,0)" fill="lightblue"/>
  <circle cx="260.66" cy="398.267" r="5.05167" stroke-width="0.5" stroke="rgb(0,0,0)" fill="blue"/>
   </g>
   <g id="cell119">
  <circle cx="216.425" cy="273.875" r="8.41271" stroke-width="0.5" stroke="rgb(0,0,0)" fill="lightblue"/>
  <circle cx="216.425" cy="273.875" r="5.05167" stroke-width="0.5" stroke="rgb(0,0,0)" fill="blue"/>
   </g>
   <g id="cell120">
  <circle cx="217.64" cy="290.494" r="8.41271" stroke-width="0.5" stroke="rgb(0,0,0)" fill="lightblue"/>
  <circle cx="217.64" cy="290.494" r="5.05167" stroke-width="0.5" stroke="rgb(0,0,0)" fill="blue"/>
   </g>
   <g id="cell142">
  <circle cx="233.767" cy="310.623" r="8.41271" stroke-width="0.5" stroke="rgb(0,0,0)" fill="lightblue"/>
  <circle cx="233.767" cy="310.623" r="5.05167" stroke-width="0.5" stroke="rgb(0,0,0)" fill="blue"/>
   </g>
   <g id="cell170">
  <circle cx="260.44" cy="127.073" r="8.41271" stroke-width="0.5" stroke="rgb(0,0,0)" fill="lightblue"/>
  <circle cx="260.44" cy="127.073" r="5.05167" stroke-width="0.5" stroke="rgb(0,0,0)" fill="blue"/>
   </g>
   <g id="cell191">
  <circle cx="275.856" cy="149.545" r="8.41271" stroke-width="0.5" stroke="rgb(0,0,0)" fill="lightblue"/>
  <circle cx="275.856" cy="149.545" r="5.05167" stroke-width="0.5" stroke="rgb(0,0,0)" fill="blue"/>
   </g>
   <g id="cell273">
  <circle cx="335.189" cy="245.269" r="8.41271" stroke-width="0.5" stroke="rgb(0,0,0)" fill="lightblue"/>
  <circle cx="335.189" cy="245.269" r="5.05167" stroke-width="0.5" stroke="rgb(0,0,0)" fill="blue"/>
   </g>
   <g id="cell178">
  <circle cx="260.663" cy="256.169" r="8.41271" stroke-width="0.5" stroke="rgb(0,0,0)" fill="lightblue"/>
  <circle cx="260.663" cy="256.169" r="5.05167" stroke-width="0.5" stroke="rgb(0,0,0)" fill="blue"/>
   </g>
   <g id="cell255">
  <circle cx="320.692" cy="236.98" r="8.41271" stroke-width="0.5" stroke="rgb(0,0,0)" fill="lightblue"/>
  <circle cx="320.692" cy="236.98" r="5.05167" stroke-width="0.5" stroke="rgb(0,0,0)" fill="blue"/>
   </g>
   <g id="cell127">
  <circle cx="217.004" cy="405.951" r="8.41271" stroke-width="0.5" stroke="rgb(0,0,0)" fill="lightblue"/>
  <circle cx="217.004" cy="405.951" r="5.05167" stroke-width="0.5" stroke="rgb(0,0,0)" fill="blue"/>
   </g>
   <g id="cell217">
  <circle cx="289.764" cy="240.623" r="8.41271" stroke-width="0.5" stroke="rgb(0,0,0)" fill="lightblue"/>
  <circle cx="289.764" cy="240.623" r="5.05167" stroke-width="0.5" stroke="rgb(0,0,0)" fill="blue"/>
   </g>
   <g id="cell309">
  <circle cx="364.728" cy="328.668" r="8.41271" stroke-width="0.5" stroke="rgb(0,0,0)" fill="lightblue"/>
  <circle cx="364.728" cy="328.668" r="5.05167" stroke-width="0.5" stroke="rgb(0,0,0)" fill="blue"/>
   </g>
   <g id="cell130">
  <circle cx="231.593" cy="126.585" r="8.41271" stroke-width="0.5" stroke="rgb(0,0,0)" fill="lightblue"/>
  <circle cx="231.593" cy="126.585" r="5.05167" stroke-width="0.5" stroke="rgb(0,0,0)" fill="blue"/>
   </g>
   <g id="cell131">
  <circle cx="231.299" cy="143.249" r="8.41271" stroke-width="0.5" stroke="rgb(0,0,0)" fill="lightblue"/>
  <circle cx="231.299" cy="143.249" r="5.05167" stroke-width="0.5" stroke="rgb(0,0,0)" fill="blue"/>
   </g>
   <g id="cell240">
  <circle cx="307.357" cy="295.773" r="8.41271" stroke-width="0.5" stroke="rgb(0,0,0)" fill="lightblue"/>
  <circle cx="307.357" cy="295.773" r="5.05167" stroke-width="0.5" stroke="rgb(0,0,0)" fill="blue"/>
   </g>
   <g id="cell133">
  <circle cx="230.794" cy="175.744" r="8.41271" stroke-width="0.5" stroke="rgb(0,0,0)" fill="lightblue"/>
  <circle cx="230.794" cy="175.744" r="5.05167" stroke-width="0.5" stroke="rgb(0,0,0)" fill="blue"/>
   </g>
   <g id="cell134">
  <circle cx="231.575" cy="192.393" r="8.41271" stroke-width="0.5" stroke="rgb(0,0,0)" fill="lightblue"/>
  <circle cx="231.575" cy="192.393" r="5.05167" stroke-width="0.5" stroke="rgb(0,0,0)" fill="blue"/>
   </g>
   <g id="cell135">
  <circle cx="231.159" cy="209.055" r="8.41271" stroke-width="0.5" stroke="rgb(0,0,0)" fill="lightblue"/>
  <circle cx="231.159" cy="209.055" r="5.05167" stroke-width="0.5" stroke="rgb(0,0,0)" fill="blue"/>
   </g>
   <g id="cell136">
  <circle cx="230.742" cy="225.718" r="8.41271" stroke-width="0.5" stroke="rgb(0,0,0)" fill="lightblue"/>
  <circle cx="230.742" cy="225.718" r="5.05167" stroke-width="0.5" stroke="rgb(0,0,0)" fill="blue"/>
   </g>
   <g id="cell137">
  <circle cx="230.469" cy="242.357" r="1.53364" stroke-width="0.5" stroke="rgb(0,0,0)" fill="pink"/>
  <circle cx="230.469" cy="242.357" r="1.51535" stroke-width="0.5" stroke="rgb(0,0,0)" fill="purple"/>
   </g>
   <g id="cell329">
  <circle cx="393.637" cy="295.326" r="8.41271" stroke-width="0.5" stroke="rgb(0,0,0)" fill="lightblue"/>
  <circle cx="393.637" cy="295.326" r="5.05167" stroke-width="0.5" stroke="rgb(0,0,0)" fill="blue"/>
   </g>
   <g id="cell214">
  <circle cx="289.627" cy="190.657" r="8.41271" stroke-width="0.5" stroke="rgb(0,0,0)" fill="lightblue"/>
  <circle cx="289.627" cy="190.657" r="5.05167" stroke-width="0.5" stroke="rgb(0,0,0)" fill="blue"/>
   </g>
   <g id="cell140">
  <circle cx="231.395" cy="281.168" r="3.88479" stroke-width="0.5" stroke="rgb(0,0,0)" fill="pink"/>
  <circle cx="231.395" cy="281.168" r="3.21607" stroke-width="0.5" stroke="rgb(0,0,0)" fill="purple"/>
   </g>
  </g>
 </g>
  <rect x="287.5" y="517.5" width="200" height="5" stroke-width="1" stroke="rgb(255,255,255)" fill="rgb(0,0,0)"/>
  <text x="290.625" y="514.375"
   font-family="Arial" font-size="12.5" fill="black" >
   200 &#956;m
  </text>
  <text x="12.5" y="522.5"
   font-family="Arial" font-size="9.375" fill="black" >
   0 days, 0 hours, 1 minutes, and 45.3293 seconds
  </text>
  <rect x="0" y="35" width="500" height="500" stroke-width="1" stroke="rgb(0,0,0)" fill="none"/>
</svg>
